<svg width="341" height="280" viewBox="0 0 341 280" fill="none" xmlns="http://www.w3.org/2000/svg">
<g clip-path="url(#clip0)">
<path d="M340.85 160.9C226.579 117.599 112.946 116.487 0 160.9V0H340.85V160.9Z" fill="#3F3D56"/>
<path d="M79.2595 10.2051H12.2461V13.2666H79.2595V10.2051Z" fill="#D0CDE1"/>
<path d="M79.2595 18.0291H12.2461V21.0906H79.2595V18.0291Z" fill="#D0CDE1"/>
<path d="M79.2595 25.8528H12.2461V28.9143H79.2595V25.8528Z" fill="#D0CDE1"/>
<path d="M30.2751 38.7793H23.4717V45.5827H30.2751V38.7793Z" fill="#D0CDE1"/>
<path d="M49.3246 38.7793H42.5212V45.5827H49.3246V38.7793Z" fill="#6C63FF"/>
<path d="M68.3741 38.7793H61.5707V45.5827H68.3741V38.7793Z" fill="#FF6584"/>
<path d="M74.4971 64.292H17.3486V74.1151H74.4971V64.292Z" fill="#D0CDE1"/>
<path d="M74.4971 79.3655H17.3486V89.1886H74.4971V79.3655Z" fill="#6C63FF"/>
<path d="M74.4971 94.4387H17.3486V104.262H74.4971V94.4387Z" fill="#FF6584"/>
<path opacity="0.15" d="M40.9904 64.292H17.3486V74.1151H40.9904V64.292Z" fill="black"/>
<path opacity="0.15" d="M25.0024 79.3655H17.3486V89.1886H25.0024V79.3655Z" fill="black"/>
<path opacity="0.15" d="M55.4476 94.4387H17.3486V104.262H55.4476V94.4387Z" fill="black"/>
<path d="M167.364 7.82397V120.08C182.25 120.08 196.526 114.167 207.052 103.64C217.578 93.1144 223.492 78.8381 223.492 63.952C223.492 49.0659 217.578 34.7895 207.052 24.2635C196.526 13.7374 182.25 7.82397 167.364 7.82397Z" fill="#D0CDE1"/>
<path d="M163.622 10.2913C154.056 10.2892 144.679 12.9483 136.538 17.9711C128.397 22.9939 121.814 30.1823 117.525 38.7325L163.622 66.0188V10.2913Z" fill="#D0CDE1"/>
<path d="M113.783 39.4639C109.494 48.0224 107.465 57.5353 107.889 67.0989C108.312 76.6625 111.174 85.959 116.202 94.1051C121.23 102.251 128.257 108.976 136.616 113.642C144.976 118.307 154.389 120.757 163.962 120.76V69.1665L113.783 39.4639Z" fill="#6C63FF"/>
<path d="M295.607 37.0786H261.25V40.1401H295.607V37.0786Z" fill="#D0CDE1"/>
<path d="M256.828 35.0376H250.025V41.841H256.828V35.0376Z" fill="#6C63FF"/>
<path d="M295.607 47.2837H261.25V50.3452H295.607V47.2837Z" fill="#D0CDE1"/>
<path d="M256.828 45.2427H250.025V52.0461H256.828V45.2427Z" fill="#6C63FF"/>
<path d="M295.607 57.4888H261.25V60.5503H295.607V57.4888Z" fill="#D0CDE1"/>
<path d="M256.828 55.4478H250.025V62.2511H256.828V55.4478Z" fill="#6C63FF"/>
<path d="M149.235 85.2828L148.754 84.8018L184.571 48.9844H246.963V49.6647H184.853L149.235 85.2828Z" fill="#2F2E41"/>
<path d="M340.85 249.004H0V171.786C109.535 129.105 223.151 129.105 340.85 171.786V249.004Z" fill="#3F3D56"/>
<path d="M140.083 205.762L143.191 215.383C143.191 215.383 140.379 224.411 141.711 234.476C143.043 244.54 142.303 244.836 142.303 244.836C142.303 244.836 128.993 244.07 130.326 248.066C131.658 252.063 144.671 249.721 144.671 249.721C144.671 249.721 147.17 249.048 148.355 241.943C149.539 234.839 152.516 221.155 152.516 221.155L149.716 208.237L140.083 205.762Z" fill="#FFB8B8"/>
<path d="M141.119 186.077C141.119 186.077 135.495 188.149 135.495 193.774C135.495 199.398 137.567 207.094 138.899 207.538C140.231 207.982 149.111 214.051 150.739 209.758C152.368 205.466 141.119 186.077 141.119 186.077Z" fill="#D0CDE1"/>
<path d="M188.186 252.681L200.026 252.237L209.055 250.905L206.39 259.785L184.485 260.377L188.186 252.681Z" fill="#FFB8B8"/>
<path d="M205.206 253.865C205.206 253.865 205.058 250.609 203.726 250.757C202.394 250.905 203.282 249.573 204.466 249.277C205.651 248.981 209.055 247.5 209.055 247.5L222.523 248.389C222.523 248.389 231.256 256.085 227.704 260.229C224.152 264.373 214.975 260.673 214.975 260.673L205.058 260.821C205.058 260.821 201.802 255.493 205.206 253.865Z" fill="#2F2E41"/>
<path d="M210.535 242.468L214.827 262.597L223.708 260.821L218.675 235.66L213.347 232.848L210.535 242.468Z" fill="#FFB8B8"/>
<path d="M159.472 239.952C159.472 239.952 134.607 251.201 145.115 262.597C145.115 262.597 145.115 267.926 156.216 266.89C167.316 265.854 188.778 263.929 189.814 264.521C190.85 265.114 194.106 252.829 191.294 252.237C188.482 251.645 185.077 250.905 185.077 250.905C185.077 250.905 188.038 250.461 188.038 247.945C188.038 247.945 196.474 247.353 198.99 242.024C201.506 236.696 203.874 232.7 203.874 232.7L209.647 247.501C209.647 247.501 216.307 235.216 221.339 240.692C221.339 240.692 215.715 205.318 211.423 202.062C207.131 198.806 204.17 197.77 200.174 200.73C196.178 203.69 192.478 211.238 192.478 211.238L159.472 239.952Z" fill="#2F2E41"/>
<path d="M218.823 256.529C217.788 257.31 216.8 258.15 215.863 259.045C214.679 260.229 213.051 259.637 212.903 259.045C212.755 258.453 210.091 259.489 209.795 263.781C209.499 268.074 207.723 271.922 212.459 273.254C217.195 274.586 217.047 278.434 217.047 278.434C220.795 280.232 225.096 280.498 229.036 279.174C235.696 276.954 233.328 274.586 233.328 274.586L224.448 259.933C224.448 259.933 222.079 255.493 218.823 256.529Z" fill="#2F2E41"/>
<path d="M194.254 183.117C194.254 183.117 208.463 188.001 209.943 189.037C211.423 190.073 218.083 194.958 214.827 197.474C211.571 199.99 208.907 201.618 202.542 199.694C196.178 197.77 189.074 191.849 189.074 191.849L194.254 183.117Z" fill="#FFB8B8"/>
<path d="M180.045 176.604C180.045 176.604 185.669 175.568 189.666 177.789C193.662 180.009 197.066 184.449 197.066 184.449C197.066 184.449 193.366 192.293 190.702 193.477C188.037 194.662 183.153 188.741 183.153 188.741L180.045 176.604Z" fill="#D0CDE1"/>
<path d="M154.144 172.312C154.144 172.312 154.292 178.085 153.7 178.677C153.108 179.269 160.804 196.734 169.241 189.037C177.677 181.341 171.165 178.233 171.165 178.233C171.165 178.233 168.056 172.46 168.204 171.868C168.353 171.276 154.44 171.868 154.44 171.868L154.144 172.312Z" fill="#FFB8B8"/>
<path opacity="0.1" d="M154.144 172.312C154.144 172.312 154.292 178.085 153.7 178.677C153.108 179.269 160.804 196.734 169.241 189.037C177.677 181.341 171.165 178.233 171.165 178.233C171.165 178.233 168.056 172.46 168.204 171.868C168.353 171.276 154.44 171.868 154.44 171.868L154.144 172.312Z" fill="black"/>
<path d="M156.512 183.413C156.512 183.413 162.136 187.261 164.504 186.373C166.872 185.485 169.833 181.637 170.129 181.341C170.425 181.045 185.521 211.386 185.521 211.386C185.521 211.386 183.301 222.487 177.381 225.743C171.461 228.999 171.535 231.59 170.795 233.81C170.055 236.03 160.508 226.779 160.508 226.779L154.44 201.026V185.337L156.512 183.413Z" fill="#D0CDE1"/>
<path d="M154.07 176.531C154.07 176.531 152.22 176.161 150.295 177.789C148.371 179.417 139.343 185.485 139.787 186.077C140.231 186.669 144.227 195.106 145.115 198.51C146.003 201.914 147.335 202.358 147.335 202.358C147.335 202.358 150.443 204.578 149.999 206.206C149.555 207.834 147.631 230.036 150.295 234.92C152.96 239.804 152.516 244.096 151.776 245.28C151.035 246.464 158.88 241.876 158.88 241.876C158.88 241.876 170.573 232.404 171.461 229.592C172.035 227.658 172.431 225.677 172.645 223.671C172.645 223.671 165.096 193.773 162.728 192.145C160.36 190.517 154.07 176.531 154.07 176.531Z" fill="#575A89"/>
<path d="M170.33 176.648C170.33 176.648 173.977 174.384 174.717 174.976C175.457 175.568 182.413 175.568 182.561 176.16C182.709 176.753 183.005 190.961 188.037 194.662C193.07 198.362 189.814 205.762 189.814 205.762L193.514 211.683C193.514 211.683 173.385 231.07 174.717 224.411C174.791 224.041 174.717 223.967 174.717 223.967C174.717 223.967 166.872 190.369 167.908 188.593C168.944 186.817 170.827 178.763 170.33 176.648Z" fill="#575A89"/>
<path d="M201.358 190.221L181.229 197.178C181.229 197.178 161.248 201.914 164.356 207.39C167.464 212.867 180.637 203.542 180.637 203.542L207.442 200.539C207.442 200.539 218.083 191.554 201.358 190.221Z" fill="#FFB8B8"/>
<path d="M162.136 177.789C168.185 177.789 173.089 172.885 173.089 166.836C173.089 160.787 168.185 155.883 162.136 155.883C156.087 155.883 151.183 160.787 151.183 166.836C151.183 172.885 156.087 177.789 162.136 177.789Z" fill="#FFB8B8"/>
<path d="M153.414 155.951L151.388 155.214C151.388 155.214 155.624 150.978 161.518 151.347L159.86 149.689C159.86 149.689 163.912 148.215 167.596 152.083C169.532 154.116 171.773 156.506 173.169 159.199H175.339L174.433 161.01L177.603 162.821L174.35 162.496C174.658 164.059 174.552 165.676 174.042 167.186L173.305 169.212C173.305 169.212 170.358 163.318 170.358 162.582V164.423C170.358 164.423 168.332 162.766 168.332 161.661L167.227 162.95L166.675 160.924L159.86 162.95L160.965 161.292L156.729 161.845L158.387 159.819C158.387 159.819 153.598 162.213 153.414 164.239C153.23 166.265 150.835 168.844 150.835 168.844L149.73 167.002C149.73 167.002 148.073 158.714 153.414 155.951Z" fill="#2F2E41"/>
<path d="M296.311 249.668L295.63 249.655C295.894 242.091 296.701 234.555 298.045 227.106C300.987 211.159 305.879 200.685 312.585 195.977L312.976 196.534C297.311 207.533 296.319 249.248 296.311 249.668Z" fill="#D0CDE1"/>
<path d="M304.815 249.506L304.135 249.492C304.149 248.739 304.574 230.982 311.565 226.074L311.955 226.631C305.247 231.341 304.818 249.325 304.815 249.506Z" fill="#D0CDE1"/>
<path d="M316.846 196.595C318.725 196.595 320.248 195.072 320.248 193.194C320.248 191.315 318.725 189.792 316.846 189.792C314.968 189.792 313.445 191.315 313.445 193.194C313.445 195.072 314.968 196.595 316.846 196.595Z" fill="#6C63FF"/>
<path d="M315.162 225.85C317.041 225.85 318.564 224.327 318.564 222.448C318.564 220.57 317.041 219.047 315.162 219.047C313.283 219.047 311.76 220.57 311.76 222.448C311.76 224.327 313.283 225.85 315.162 225.85Z" fill="#6C63FF"/>
<path d="M303.229 198.634C303.869 202.718 302.202 206.37 302.202 206.37C302.202 206.37 299.5 203.402 298.86 199.318C298.221 195.235 299.887 191.583 299.887 191.583C299.887 191.583 302.59 194.551 303.229 198.634Z" fill="#6C63FF"/>
<path d="M314.338 208.521C310.428 209.862 306.547 208.872 306.547 208.872C306.547 208.872 309.004 205.709 312.913 204.368C316.823 203.027 320.704 204.016 320.704 204.016C320.704 204.016 318.247 207.18 314.338 208.521Z" fill="#D0CDE1"/>
<path d="M314.474 234.459C312.705 235.015 310.82 235.097 309.01 234.695C310.159 233.232 311.708 232.131 313.468 231.528C315.229 230.924 317.127 230.842 318.933 231.292C317.75 232.72 316.212 233.812 314.474 234.459Z" fill="#D0CDE1"/>
<path d="M274.171 188.568C273.297 188.568 272.442 188.309 271.715 187.823C270.987 187.337 270.421 186.646 270.086 185.838C269.751 185.03 269.664 184.141 269.834 183.283C270.005 182.425 270.426 181.637 271.044 181.019C271.663 180.4 272.451 179.979 273.309 179.809C274.167 179.638 275.056 179.726 275.864 180.06C276.672 180.395 277.362 180.962 277.848 181.689C278.334 182.416 278.594 183.271 278.594 184.146C278.592 185.318 278.126 186.442 277.297 187.271C276.468 188.1 275.344 188.567 274.171 188.568ZM274.171 180.404C273.431 180.404 272.708 180.623 272.093 181.035C271.477 181.446 270.998 182.03 270.714 182.714C270.431 183.398 270.357 184.15 270.502 184.876C270.646 185.602 271.002 186.268 271.526 186.792C272.049 187.315 272.716 187.671 273.441 187.816C274.167 187.96 274.92 187.886 275.603 187.603C276.287 187.32 276.872 186.84 277.283 186.225C277.694 185.609 277.913 184.886 277.913 184.146C277.912 183.154 277.518 182.203 276.816 181.501C276.115 180.8 275.164 180.405 274.171 180.404Z" fill="#D0CDE1"/>
<path d="M253.426 211.586C254.929 211.586 256.148 210.367 256.148 208.864C256.148 207.361 254.929 206.143 253.426 206.143C251.923 206.143 250.705 207.361 250.705 208.864C250.705 210.367 251.923 211.586 253.426 211.586Z" fill="#D0CDE1"/>
<path d="M12.2461 180.63C13.7491 180.63 14.9675 179.412 14.9675 177.909C14.9675 176.406 13.7491 175.188 12.2461 175.188C10.7432 175.188 9.52478 176.406 9.52478 177.909C9.52478 179.412 10.7432 180.63 12.2461 180.63Z" fill="#D0CDE1"/>
<path d="M29.2546 223.491H20.4102V214.647H29.2546V223.491ZM21.0905 222.811H28.5742V215.327H21.0905V222.811Z" fill="#D0CDE1"/>
<path d="M85.3825 192.196C82.0186 192.196 78.7301 193.193 75.9331 195.062C73.1361 196.931 70.9561 199.588 69.6687 202.695C68.3814 205.803 68.0446 209.223 68.7008 212.522C69.3571 215.822 70.977 218.852 73.3557 221.231C75.7344 223.61 78.765 225.23 82.0643 225.886C85.3637 226.542 88.7835 226.205 91.8914 224.918C94.9993 223.631 97.6556 221.451 99.5246 218.654C101.393 215.857 102.391 212.568 102.391 209.204C102.391 204.693 100.599 200.367 97.4093 197.177C94.2196 193.988 89.8935 192.196 85.3825 192.196ZM82.4485 216.816L75.1324 209.499L77.1845 207.447L82.4554 212.718L93.5806 201.593L95.6326 203.645L82.4485 216.816Z" fill="#6C63FF"/>
</g>
<defs>
<clipPath id="clip0">
<rect width="340.85" height="280" fill="white"/>
</clipPath>
</defs>
</svg>