<svg width="497" height="300" viewBox="0 0 497 300" fill="none" xmlns="http://www.w3.org/2000/svg">
<g clip-path="url(#clip0)">
<path opacity="0.1" d="M491.712 279.801C489.79 284.531 487.427 289.069 484.655 293.356C483.353 295.4 481.925 297.362 480.38 299.23L480.333 299.286H2.40822L2.49423 299.226C2.92427 298.891 5.4486 296.848 9.37486 293.352C12.1916 290.84 15.7265 287.58 19.6958 283.659C52.1595 251.728 114.52 176.149 62.5837 106.912C14.3031 42.5481 66.2863 30.864 100.578 29.505C113.754 28.9935 126.898 31.142 139.225 35.8223C155.064 41.8429 184.018 51.0758 221.741 55.3031C222.98 55.4436 224.23 55.5783 225.491 55.7074C245.463 57.7393 265.57 58.1032 285.602 56.7954C286.191 56.7653 286.785 56.7223 287.383 56.6792C307.2 55.2841 326.866 52.2403 346.178 47.5796C347.429 47.2743 348.663 46.9862 349.893 46.7195C414.24 31.8316 473.56 82.5719 458.732 139.918C453.245 161.123 454.638 183.734 472.923 202.02C502.832 231.882 499.19 261.279 491.712 279.801Z" fill="#6C63FF"/>
<path d="M390.059 119.131C391.687 116.219 391.204 112.849 388.98 111.606C386.755 110.362 383.632 111.715 382.004 114.628C380.375 117.54 380.858 120.91 383.082 122.153C385.307 123.397 388.43 122.044 390.059 119.131Z" fill="#3F3D56"/>
<path d="M393.661 112.685C395.289 109.772 394.806 106.403 392.582 105.159C390.357 103.916 387.234 105.269 385.605 108.181C383.977 111.094 384.46 114.463 386.684 115.707C388.909 116.951 392.032 115.598 393.661 112.685Z" fill="#3F3D56"/>
<path d="M397.266 106.241C398.895 103.329 398.412 99.9593 396.187 98.7156C393.963 97.472 390.84 98.8249 389.211 101.737C387.583 104.65 388.066 108.019 390.29 109.263C392.514 110.507 395.638 109.154 397.266 106.241Z" fill="#3F3D56"/>
<path d="M400.868 99.7908C402.497 96.8782 402.013 93.5088 399.789 92.2652C397.565 91.0215 394.441 92.3745 392.813 95.2871C391.185 98.1997 391.668 101.569 393.892 102.813C396.116 104.056 399.24 102.703 400.868 99.7908Z" fill="#3F3D56"/>
<path d="M404.468 93.3481C406.096 90.4355 405.613 87.0662 403.389 85.8225C401.165 84.5789 398.041 85.9318 396.413 88.8444C394.784 91.757 395.267 95.1263 397.492 96.37C399.716 97.6137 402.839 96.2607 404.468 93.3481Z" fill="#3F3D56"/>
<path d="M408.074 86.9021C409.703 83.9895 409.219 80.6202 406.995 79.3765C404.771 78.1328 401.647 79.4858 400.019 82.3984C398.39 85.311 398.874 88.6803 401.098 89.924C403.322 91.1676 406.446 89.8147 408.074 86.9021Z" fill="#3F3D56"/>
<path d="M411.68 80.458C413.308 77.5454 412.825 74.1761 410.601 72.9324C408.376 71.6887 405.253 73.0417 403.625 75.9543C401.996 78.8669 402.479 82.2362 404.704 83.4799C406.928 84.7235 410.051 83.3706 411.68 80.458Z" fill="#3F3D56"/>
<path d="M447.37 42.5181C448.312 42.1247 449.226 41.6678 450.105 41.1505L440.494 33.4915L451.886 39.9765C454.319 38.2009 456.365 35.9477 457.897 33.3545C459.43 30.7614 460.418 27.8829 460.8 24.895L440.988 24.2758L460.972 21.7858C460.949 18.7373 460.295 15.7265 459.053 12.9427C457.81 10.1589 456.005 7.66225 453.751 5.60956C451.497 3.55687 448.842 1.99255 445.955 1.01487C443.067 0.0371903 440.009 -0.332707 436.971 -0.0715827C433.934 0.189542 430.983 1.07604 428.305 2.53222C425.626 3.9884 423.278 5.98279 421.407 8.39007C419.537 10.7973 418.184 13.5655 417.435 16.5206C416.685 19.4756 416.555 22.5538 417.052 25.5616C415.586 26.173 414.189 26.94 412.885 27.8494L422.643 42.6686L410.744 29.561C408.014 32.026 405.942 35.133 404.716 38.6007C403.49 42.0683 403.148 45.7871 403.721 49.4202C399.892 51.0155 396.59 53.6559 394.191 57.0395C391.792 60.4232 390.393 64.4136 390.155 68.5546C389.917 72.6955 390.849 76.82 392.844 80.4564C394.839 84.0928 397.817 87.0945 401.438 89.1183C405.058 91.1421 409.175 92.1064 413.318 91.9009C417.461 91.6953 421.462 90.3283 424.864 87.9561C428.267 85.5839 430.933 82.3022 432.559 78.4862C434.184 74.6701 434.703 70.4737 434.056 66.3767C438.632 64.471 442.434 61.0823 444.852 56.7552C447.27 52.4281 448.163 47.4138 447.387 42.5181H447.37Z" fill="#6C63FF"/>
<path opacity="0.1" d="M406.241 35.1816C403.825 39.5096 402.937 44.5257 403.721 49.4202C399.892 51.0155 396.59 53.6559 394.191 57.0396C391.792 60.4232 390.393 64.4136 390.155 68.5546C389.917 72.6955 390.849 76.82 392.844 80.4564C394.839 84.0928 397.817 87.0945 401.438 89.1183C405.058 91.1421 409.175 92.1064 413.318 91.9009C417.461 91.6954 421.462 90.3284 424.864 87.9562C428.267 85.5839 430.933 82.3022 432.559 78.4862C434.184 74.6701 434.703 70.4737 434.056 66.3767C438.456 64.5404 407.454 33.0314 406.241 35.1816Z" fill="black"/>
<path d="M434.938 271.686H440.146C442.997 271.686 445.731 272.819 447.748 274.835C449.764 276.851 450.897 279.586 450.897 282.437V298.396H424.187V282.437C424.187 279.586 425.32 276.851 427.336 274.835C429.352 272.819 432.086 271.686 434.938 271.686Z" fill="#3F3D56"/>
<path opacity="0.1" d="M434.938 271.686H440.146C442.997 271.686 445.731 272.819 447.748 274.835C449.764 276.851 450.897 279.586 450.897 282.437V298.396H424.187V282.437C424.187 279.586 425.32 276.851 427.336 274.835C429.352 272.819 432.086 271.686 434.938 271.686Z" fill="black"/>
<path d="M436.477 277.565C437.658 277.565 438.615 276.608 438.615 275.428C438.615 274.247 437.658 273.29 436.477 273.29C435.297 273.29 434.34 274.247 434.34 275.428C434.34 276.608 435.297 277.565 436.477 277.565Z" fill="#3F3D56"/>
<path d="M436.477 274.894C437.658 274.894 438.615 273.937 438.615 272.757C438.615 271.577 437.658 270.62 436.477 270.62C435.297 270.62 434.34 271.577 434.34 272.757C434.34 273.937 435.297 274.894 436.477 274.894Z" fill="#3F3D56"/>
<path d="M436.477 272.219C437.658 272.219 438.615 271.263 438.615 270.082C438.615 268.902 437.658 267.945 436.477 267.945C435.297 267.945 434.34 268.902 434.34 270.082C434.34 271.263 435.297 272.219 436.477 272.219Z" fill="#3F3D56"/>
<path d="M436.477 269.549C437.658 269.549 438.615 268.592 438.615 267.412C438.615 266.231 437.658 265.274 436.477 265.274C435.297 265.274 434.34 266.231 434.34 267.412C434.34 268.592 435.297 269.549 436.477 269.549Z" fill="#3F3D56"/>
<path d="M436.477 266.878C437.658 266.878 438.615 265.921 438.615 264.741C438.615 263.561 437.658 262.604 436.477 262.604C435.297 262.604 434.34 263.561 434.34 264.741C434.34 265.921 435.297 266.878 436.477 266.878Z" fill="#3F3D56"/>
<path d="M436.477 264.208C437.658 264.208 438.615 263.251 438.615 262.07C438.615 260.89 437.658 259.933 436.477 259.933C435.297 259.933 434.34 260.89 434.34 262.07C434.34 263.251 435.297 264.208 436.477 264.208Z" fill="#3F3D56"/>
<path d="M436.477 261.537C437.658 261.537 438.615 260.58 438.615 259.4C438.615 258.22 437.658 257.263 436.477 257.263C435.297 257.263 434.34 258.22 434.34 259.4C434.34 260.58 435.297 261.537 436.477 261.537Z" fill="#3F3D56"/>
<path d="M439.681 262.604C440.862 262.604 441.818 261.647 441.818 260.466C441.818 259.286 440.862 258.329 439.681 258.329C438.501 258.329 437.544 259.286 437.544 260.466C437.544 261.647 438.501 262.604 439.681 262.604Z" fill="#3F3D56"/>
<path d="M441.818 261.537C442.999 261.537 443.956 260.58 443.956 259.4C443.956 258.22 442.999 257.263 441.818 257.263C440.638 257.263 439.681 258.22 439.681 259.4C439.681 260.58 440.638 261.537 441.818 261.537Z" fill="#3F3D56"/>
<path d="M443.956 260.466C445.136 260.466 446.093 259.51 446.093 258.329C446.093 257.149 445.136 256.192 443.956 256.192C442.775 256.192 441.818 257.149 441.818 258.329C441.818 259.51 442.775 260.466 443.956 260.466Z" fill="#3F3D56"/>
<path d="M436.477 258.867C437.658 258.867 438.615 257.91 438.615 256.729C438.615 255.549 437.658 254.592 436.477 254.592C435.297 254.592 434.34 255.549 434.34 256.729C434.34 257.91 435.297 258.867 436.477 258.867Z" fill="#3F3D56"/>
<path d="M436.477 256.196C437.658 256.196 438.615 255.239 438.615 254.059C438.615 252.879 437.658 251.922 436.477 251.922C435.297 251.922 434.34 252.879 434.34 254.059C434.34 255.239 435.297 256.196 436.477 256.196Z" fill="#3F3D56"/>
<path d="M436.477 253.521C437.658 253.521 438.615 252.564 438.615 251.384C438.615 250.204 437.658 249.247 436.477 249.247C435.297 249.247 434.34 250.204 434.34 251.384C434.34 252.564 435.297 253.521 436.477 253.521Z" fill="#3F3D56"/>
<path d="M436.477 250.851C437.658 250.851 438.615 249.894 438.615 248.713C438.615 247.533 437.658 246.576 436.477 246.576C435.297 246.576 434.34 247.533 434.34 248.713C434.34 249.894 435.297 250.851 436.477 250.851Z" fill="#3F3D56"/>
<path d="M445.336 241.824C444.806 241.902 444.273 241.958 443.736 241.992C444.232 241.559 444.692 241.088 445.113 240.581C444.816 239.683 444.381 238.837 443.822 238.074C443.292 238.372 442.707 238.558 442.102 238.62C441.573 238.698 441.04 238.754 440.507 238.788C441.225 238.107 441.906 237.39 442.55 236.638C441.008 235.241 439.033 234.416 436.955 234.301C434.878 234.187 432.824 234.789 431.138 236.009C429.452 237.228 428.237 238.99 427.695 240.999C427.153 243.007 427.318 245.141 428.163 247.043C429.007 248.945 430.479 250.498 432.332 251.444C434.186 252.389 436.308 252.669 438.343 252.237C440.378 251.804 442.202 250.685 443.511 249.067C444.819 247.45 445.532 245.432 445.53 243.351C445.53 242.828 445.484 242.305 445.392 241.79L445.336 241.824Z" fill="#6C63FF"/>
<path d="M452.475 252.442C451.929 252.777 451.314 252.983 450.677 253.044C450.148 253.121 449.615 253.177 449.082 253.212C449.649 252.703 450.178 252.154 450.664 251.569C450.218 251.452 449.758 251.391 449.297 251.388C448.025 251.386 446.794 251.837 445.824 252.66C444.855 253.483 444.21 254.625 444.006 255.88C443.803 257.136 444.053 258.423 444.712 259.511C445.371 260.598 446.396 261.416 447.604 261.816C448.811 262.216 450.121 262.173 451.3 261.695C452.478 261.216 453.447 260.333 454.034 259.205C454.62 258.076 454.786 256.776 454.5 255.536C454.214 254.297 453.496 253.2 452.475 252.442Z" fill="#6C63FF"/>
<path d="M433.269 262.604C434.45 262.604 435.407 261.647 435.407 260.466C435.407 259.286 434.45 258.329 433.269 258.329C432.089 258.329 431.132 259.286 431.132 260.466C431.132 261.647 432.089 262.604 433.269 262.604Z" fill="#3F3D56"/>
<path d="M431.132 261.537C432.312 261.537 433.269 260.58 433.269 259.4C433.269 258.22 432.312 257.263 431.132 257.263C429.952 257.263 428.995 258.22 428.995 259.4C428.995 260.58 429.952 261.537 431.132 261.537Z" fill="#3F3D56"/>
<path d="M428.999 260.466C430.179 260.466 431.136 259.51 431.136 258.329C431.136 257.149 430.179 256.192 428.999 256.192C427.819 256.192 426.862 257.149 426.862 258.329C426.862 259.51 427.819 260.466 428.999 260.466Z" fill="#3F3D56"/>
<path d="M420.493 252.442C421.038 252.777 421.653 252.983 422.29 253.044C422.819 253.121 423.353 253.177 423.886 253.212C423.319 252.703 422.79 252.154 422.303 251.569C422.75 251.452 423.209 251.391 423.671 251.388C424.943 251.386 426.174 251.837 427.143 252.66C428.113 253.483 428.757 254.625 428.961 255.88C429.165 257.136 428.915 258.423 428.256 259.511C427.597 260.598 426.571 261.416 425.364 261.816C424.157 262.216 422.847 262.173 421.668 261.695C420.49 261.216 419.52 260.333 418.934 259.205C418.347 258.076 418.182 256.776 418.468 255.536C418.753 254.297 419.471 253.2 420.493 252.442Z" fill="#6C63FF"/>
<path d="M434.938 273.29H440.146C442.997 273.29 445.731 274.423 447.748 276.439C449.764 278.455 450.897 281.19 450.897 284.041V298.177C450.897 298.66 450.705 299.124 450.363 299.466C450.021 299.808 449.557 300 449.073 300H426.01C425.527 300 425.063 299.808 424.721 299.466C424.379 299.124 424.187 298.66 424.187 298.177V284.041C424.187 281.19 425.32 278.455 427.336 276.439C429.352 274.423 432.086 273.29 434.938 273.29Z" fill="#3F3D56"/>
<g opacity="0.1">
<path opacity="0.1" d="M445.5 242.409C445.284 242.642 445.053 242.861 444.807 243.063C445.052 243.063 445.298 243.024 445.538 242.998C445.53 242.8 445.521 242.602 445.5 242.409Z" fill="black"/>
<path opacity="0.1" d="M441.603 239.855C442.137 239.82 442.67 239.764 443.199 239.687C443.678 239.628 444.146 239.501 444.588 239.308C444.369 238.879 444.119 238.467 443.84 238.074C443.572 238.237 443.283 238.36 442.98 238.44C442.558 238.946 442.098 239.419 441.603 239.855Z" fill="black"/>
<path opacity="0.1" d="M428.461 244.443C428.458 242.813 428.895 241.212 429.725 239.809C430.555 238.405 431.749 237.252 433.18 236.47C434.61 235.689 436.225 235.307 437.855 235.366C439.484 235.425 441.067 235.922 442.438 236.806L442.575 236.659C441.681 235.864 440.638 235.253 439.506 234.862C438.375 234.471 437.177 234.308 435.982 234.382C434.787 234.456 433.619 234.766 432.544 235.293C431.47 235.821 430.51 236.556 429.721 237.456C428.932 238.357 428.328 239.404 427.946 240.538C427.563 241.673 427.409 242.872 427.492 244.066C427.574 245.26 427.893 246.426 428.428 247.497C428.964 248.568 429.706 249.522 430.612 250.305C429.221 248.668 428.459 246.59 428.461 244.443Z" fill="black"/>
</g>
<g opacity="0.1">
<path opacity="0.1" d="M449.082 254.282C449.615 254.244 450.148 254.188 450.677 254.11C451.314 254.051 451.929 253.846 452.475 253.513C453.079 253.957 453.584 254.523 453.954 255.175C454.325 255.827 454.553 256.55 454.625 257.297C454.646 257.109 454.656 256.919 454.655 256.729C454.659 255.894 454.466 255.07 454.093 254.323C453.719 253.576 453.175 252.927 452.505 252.429C451.959 252.764 451.345 252.97 450.707 253.031L450.277 253.083C449.912 253.514 449.512 253.915 449.082 254.282Z" fill="black"/>
<path opacity="0.1" d="M449.305 252.455C449.486 252.455 449.662 252.455 449.839 252.493C450.118 252.197 450.394 251.878 450.673 251.569C450.227 251.452 449.767 251.391 449.305 251.388C447.889 251.388 446.53 251.951 445.529 252.953C444.527 253.954 443.964 255.313 443.964 256.729C443.964 256.91 443.964 257.091 443.99 257.263C444.123 255.945 444.741 254.724 445.723 253.836C446.705 252.948 447.981 252.455 449.305 252.455Z" fill="black"/>
</g>
<g opacity="0.1">
<path opacity="0.1" d="M423.869 254.282C423.335 254.244 422.802 254.188 422.273 254.11C421.636 254.051 421.021 253.846 420.476 253.513C419.871 253.957 419.367 254.523 418.996 255.175C418.626 255.827 418.397 256.55 418.325 257.297C418.305 257.109 418.295 256.919 418.295 256.729C418.292 255.894 418.484 255.07 418.858 254.323C419.231 253.576 419.775 252.927 420.446 252.429C420.991 252.764 421.606 252.97 422.243 253.031L422.673 253.083C423.04 253.513 423.44 253.914 423.869 254.282Z" fill="black"/>
<path opacity="0.1" d="M423.654 252.455C423.473 252.455 423.297 252.455 423.12 252.493C422.841 252.197 422.566 251.878 422.286 251.569C422.733 251.452 423.192 251.391 423.654 251.388C425.07 251.388 426.429 251.951 427.43 252.953C428.432 253.954 428.995 255.313 428.995 256.729C428.995 256.91 428.995 257.091 428.969 257.263C428.836 255.945 428.218 254.724 427.236 253.836C426.254 252.948 424.978 252.455 423.654 252.455Z" fill="black"/>
</g>
<path d="M24.5123 231.792H65.5983C68.4496 231.792 71.1842 232.924 73.2004 234.94C75.2166 236.957 76.3493 239.691 76.3493 242.542V294.358H13.7613V242.542C13.7613 239.691 14.894 236.957 16.9102 234.94C18.9264 232.924 21.6609 231.792 24.5123 231.792Z" fill="#3F3D56"/>
<path opacity="0.1" d="M24.5123 231.792H65.5983C68.4496 231.792 71.1842 232.924 73.2004 234.94C75.2166 236.957 76.3493 239.691 76.3493 242.542V294.358H13.7613V242.542C13.7613 239.691 14.894 236.957 16.9102 234.94C18.9264 232.924 21.6609 231.792 24.5123 231.792Z" fill="black"/>
<path d="M42.561 245.54C45.3256 245.54 47.5667 243.299 47.5667 240.534C47.5667 237.769 45.3256 235.528 42.561 235.528C39.7965 235.528 37.5554 237.769 37.5554 240.534C37.5554 243.299 39.7965 245.54 42.561 245.54Z" fill="#3F3D56"/>
<path d="M42.561 239.283C45.3256 239.283 47.5667 237.041 47.5667 234.277C47.5667 231.512 45.3256 229.271 42.561 229.271C39.7965 229.271 37.5554 231.512 37.5554 234.277C37.5554 237.041 39.7965 239.283 42.561 239.283Z" fill="#3F3D56"/>
<path d="M42.561 233.021C45.3256 233.021 47.5667 230.78 47.5667 228.016C47.5667 225.251 45.3256 223.01 42.561 223.01C39.7965 223.01 37.5554 225.251 37.5554 228.016C37.5554 230.78 39.7965 233.021 42.561 233.021Z" fill="#3F3D56"/>
<path d="M42.561 226.764C45.3256 226.764 47.5667 224.523 47.5667 221.759C47.5667 218.994 45.3256 216.753 42.561 216.753C39.7965 216.753 37.5554 218.994 37.5554 221.759C37.5554 224.523 39.7965 226.764 42.561 226.764Z" fill="#3F3D56"/>
<path d="M42.561 220.503C45.3256 220.503 47.5667 218.262 47.5667 215.497C47.5667 212.733 45.3256 210.491 42.561 210.491C39.7965 210.491 37.5554 212.733 37.5554 215.497C37.5554 218.262 39.7965 220.503 42.561 220.503Z" fill="#3F3D56"/>
<path d="M42.561 214.246C45.3256 214.246 47.5667 212.005 47.5667 209.24C47.5667 206.475 45.3256 204.234 42.561 204.234C39.7965 204.234 37.5554 206.475 37.5554 209.24C37.5554 212.005 39.7965 214.246 42.561 214.246Z" fill="#3F3D56"/>
<path d="M42.561 207.989C45.3256 207.989 47.5667 205.748 47.5667 202.983C47.5667 200.218 45.3256 197.977 42.561 197.977C39.7965 197.977 37.5554 200.218 37.5554 202.983C37.5554 205.748 39.7965 207.989 42.561 207.989Z" fill="#3F3D56"/>
<path d="M50.0695 210.492C52.8341 210.492 55.0752 208.25 55.0752 205.486C55.0752 202.721 52.8341 200.48 50.0695 200.48C47.305 200.48 45.0639 202.721 45.0639 205.486C45.0639 208.25 47.305 210.492 50.0695 210.492Z" fill="#3F3D56"/>
<path d="M55.0752 207.989C57.8397 207.989 60.0808 205.748 60.0808 202.983C60.0808 200.218 57.8397 197.977 55.0752 197.977C52.3106 197.977 50.0695 200.218 50.0695 202.983C50.0695 205.748 52.3106 207.989 55.0752 207.989Z" fill="#3F3D56"/>
<path d="M60.0851 205.482C62.8497 205.482 65.0908 203.24 65.0908 200.476C65.0908 197.711 62.8497 195.47 60.0851 195.47C57.3206 195.47 55.0795 197.711 55.0795 200.476C55.0795 203.24 57.3206 205.482 60.0851 205.482Z" fill="#3F3D56"/>
<path d="M42.561 201.727C45.3256 201.727 47.5667 199.486 47.5667 196.722C47.5667 193.957 45.3256 191.716 42.561 191.716C39.7965 191.716 37.5554 193.957 37.5554 196.722C37.5554 199.486 39.7965 201.727 42.561 201.727Z" fill="#3F3D56"/>
<path d="M42.561 195.47C45.3256 195.47 47.5667 193.229 47.5667 190.465C47.5667 187.7 45.3256 185.459 42.561 185.459C39.7965 185.459 37.5554 187.7 37.5554 190.465C37.5554 193.229 39.7965 195.47 42.561 195.47Z" fill="#3F3D56"/>
<path d="M42.561 189.209C45.3256 189.209 47.5667 186.968 47.5667 184.203C47.5667 181.439 45.3256 179.198 42.561 179.198C39.7965 179.198 37.5554 181.439 37.5554 184.203C37.5554 186.968 39.7965 189.209 42.561 189.209Z" fill="#3F3D56"/>
<path d="M42.561 182.952C45.3256 182.952 47.5667 180.711 47.5667 177.946C47.5667 175.182 45.3256 172.94 42.561 172.94C39.7965 172.94 37.5554 175.182 37.5554 177.946C37.5554 180.711 39.7965 182.952 42.561 182.952Z" fill="#3F3D56"/>
<path d="M63.319 161.798C62.0777 161.979 60.8306 162.111 59.5777 162.194C60.7371 161.178 61.8142 160.072 62.7987 158.887C62.1158 156.785 61.1088 154.803 59.8142 153.012C58.5824 153.716 57.2174 154.156 55.8063 154.302C54.5677 154.483 53.3163 154.616 52.0649 154.702C53.712 153.369 55.2386 151.352 56.8512 149.714C53.1126 146.319 48.2903 144.36 43.2429 144.188C38.1954 144.015 33.2506 145.639 29.2887 148.771C25.3267 151.903 22.6049 156.34 21.6079 161.291C20.6108 166.242 21.4032 171.386 23.844 175.807C26.2847 180.228 30.2154 183.64 34.9362 185.435C39.657 187.229 44.8615 187.29 49.623 185.607C54.3844 183.923 58.3939 180.604 60.9374 176.241C63.481 171.878 64.3935 166.754 63.5126 161.781L63.319 161.798Z" fill="#6C63FF"/>
<path d="M80.0476 186.68C78.8693 187.51 77.3039 187.867 75.8375 188.082C74.5947 188.267 73.3476 188.396 72.0962 188.482C73.3863 187.446 74.5732 186.001 75.8031 184.637C72.7898 183.838 69.5866 184.19 66.8195 185.626C64.0523 187.063 61.9201 189.479 60.8394 192.403C59.7588 195.327 59.8074 198.55 60.9758 201.44C62.1441 204.33 64.3483 206.681 67.1575 208.033C69.9667 209.385 73.1791 209.641 76.1669 208.751C79.1547 207.861 81.7032 205.888 83.3143 203.219C84.9255 200.55 85.4836 197.376 84.8795 194.318C84.2754 191.259 82.5525 188.536 80.0476 186.68Z" fill="#6C63FF"/>
<path d="M35.0482 210.492C37.8128 210.492 40.0539 208.25 40.0539 205.486C40.0539 202.721 37.8128 200.48 35.0482 200.48C32.2837 200.48 30.0426 202.721 30.0426 205.486C30.0426 208.25 32.2837 210.492 35.0482 210.492Z" fill="#3F3D56"/>
<path d="M30.0426 207.989C32.8071 207.989 35.0482 205.748 35.0482 202.983C35.0482 200.218 32.8071 197.977 30.0426 197.977C27.278 197.977 25.0369 200.218 25.0369 202.983C25.0369 205.748 27.278 207.989 30.0426 207.989Z" fill="#3F3D56"/>
<path d="M25.0369 205.482C27.8015 205.482 30.0426 203.24 30.0426 200.476C30.0426 197.711 27.8015 195.47 25.0369 195.47C22.2724 195.47 20.0312 197.711 20.0312 200.476C20.0312 203.24 22.2724 205.482 25.0369 205.482Z" fill="#3F3D56"/>
<path d="M5.07446 186.68C6.25277 187.51 7.81811 187.867 9.28885 188.082C10.5274 188.267 11.7745 188.396 13.0259 188.482C11.7358 187.446 10.5489 186.001 9.31895 184.637C12.3322 183.838 15.5354 184.19 18.3026 185.626C21.0697 187.063 23.202 189.479 24.2826 192.403C25.3633 195.327 25.3147 198.55 24.1463 201.44C22.9779 204.33 20.7738 206.681 17.9646 208.033C15.1554 209.385 11.943 209.641 8.95518 208.751C5.96738 207.861 3.41889 205.888 1.80771 203.219C0.196536 200.55 -0.361527 197.376 0.242575 194.318C0.846677 191.259 2.56953 188.536 5.07446 186.68Z" fill="#6C63FF"/>
<path d="M24.5123 235.528H65.5983C68.4496 235.528 71.1842 236.661 73.2004 238.677C75.2166 240.693 76.3493 243.428 76.3493 246.279V296.297C76.3493 296.781 76.1571 297.245 75.8152 297.586C75.4733 297.928 75.0095 298.121 74.5259 298.121H15.5932C15.3531 298.122 15.115 298.075 14.8928 297.984C14.6706 297.893 14.4686 297.759 14.2984 297.59C14.1281 297.42 13.9931 297.219 13.9009 296.997C13.8087 296.775 13.7613 296.537 13.7613 296.297V246.279C13.7613 243.428 14.894 240.693 16.9102 238.677C18.9264 236.661 21.6609 235.528 24.5123 235.528Z" fill="#3F3D56"/>
<g opacity="0.1">
<path opacity="0.1" d="M63.6975 163.166C63.1943 163.713 62.654 164.224 62.0805 164.697C62.6525 164.658 63.2287 164.606 63.8007 164.551C63.7792 164.086 63.7491 163.622 63.6975 163.166Z" fill="black"/>
<path opacity="0.1" d="M54.5721 157.188C55.8235 157.102 57.0706 156.973 58.3091 156.788C59.4309 156.658 60.5285 156.368 61.5688 155.928C61.0602 154.918 60.4736 153.949 59.8142 153.03C59.1925 153.414 58.5171 153.704 57.8102 153.89C56.818 155.072 55.7353 156.174 54.5721 157.188Z" fill="black"/>
<path opacity="0.1" d="M23.7812 167.935C23.7736 164.115 24.7965 160.363 26.7421 157.076C28.6877 153.788 31.4839 151.086 34.8363 149.254C38.1886 147.423 41.9729 146.529 45.7906 146.667C49.6082 146.806 53.3179 147.971 56.5287 150.041C56.6362 149.929 56.7437 149.804 56.8512 149.697C54.7595 147.807 52.3129 146.352 49.6537 145.417C46.9946 144.481 44.1759 144.084 41.3618 144.248C38.5476 144.412 35.7942 145.134 33.2616 146.372C30.7291 147.61 28.468 149.339 26.6099 151.459C24.7518 153.579 23.3338 156.047 22.4384 158.72C21.5429 161.393 21.188 164.217 21.3942 167.028C21.6004 169.84 22.3636 172.582 23.6393 175.096C24.9151 177.609 26.6781 179.844 28.8256 181.67C25.5644 177.837 23.7759 172.968 23.7812 167.935Z" fill="black"/>
</g>
<g opacity="0.1">
<path opacity="0.1" d="M72.0961 190.985C73.3461 190.905 74.5932 190.771 75.8375 190.585C77.3039 190.374 78.8478 190.017 80.0476 189.183C81.4587 190.226 82.6345 191.554 83.4984 193.081C84.3624 194.608 84.895 196.3 85.0619 198.046C85.1049 197.616 85.1307 197.186 85.1307 196.726C85.1319 194.771 84.6737 192.844 83.793 191.099C82.9123 189.354 81.6337 187.84 80.0605 186.68C78.8822 187.51 77.3168 187.867 75.8504 188.082C75.5193 188.129 75.1924 188.168 74.8656 188.207C74.0173 189.205 73.0913 190.134 72.0961 190.985Z" fill="black"/>
<path opacity="0.1" d="M72.5907 186.71C73.0105 186.717 73.4296 186.746 73.8464 186.796C74.5001 186.1 75.1365 185.36 75.7945 184.646C73.9421 184.147 71.9994 184.081 70.1176 184.455C68.2357 184.829 66.4656 185.632 64.9447 186.802C63.4239 187.971 62.1934 189.476 61.3491 191.199C60.5047 192.922 60.0693 194.816 60.0765 196.735C60.0765 197.165 60.098 197.595 60.1367 197.986C60.4449 194.897 61.89 192.032 64.1914 189.949C66.4927 187.865 69.4862 186.711 72.5907 186.71Z" fill="black"/>
</g>
<g opacity="0.1">
<path opacity="0.1" d="M13.0216 190.985C11.7716 190.905 10.5259 190.771 9.28456 190.585C7.81382 190.374 6.24848 190.017 5.07017 189.183C3.66142 190.227 2.48809 191.555 1.62642 193.082C0.764761 194.609 0.234058 196.301 0.0688072 198.046C0.0258033 197.616 9.53097e-07 197.186 9.53097e-07 196.726C-0.000763305 194.771 0.458108 192.843 1.33958 191.098C2.22105 189.353 3.50044 187.84 5.07447 186.68C6.25278 187.51 7.81812 187.867 9.28886 188.082C9.61569 188.129 9.94252 188.168 10.2693 188.207C11.1133 189.203 12.0335 190.132 13.0216 190.985Z" fill="black"/>
<path opacity="0.1" d="M12.5185 186.71C12.0987 186.717 11.6795 186.746 11.2627 186.796C10.6091 186.1 9.97263 185.36 9.31467 184.646C11.1671 184.147 13.1098 184.081 14.9916 184.455C16.8734 184.829 18.6436 185.632 20.1644 186.802C21.6853 187.971 22.9157 189.476 23.7601 191.199C24.6044 192.922 25.0399 194.816 25.0326 196.735C25.0326 197.165 25.0326 197.595 24.9724 197.986C24.6642 194.897 23.2192 192.032 20.9178 189.949C18.6164 187.865 15.6229 186.711 12.5185 186.71Z" fill="black"/>
</g>
<path d="M292.418 299.368L208.561 298.293L208.806 296.143L212.861 260.664H286.505L291.924 296.143L292.337 298.83L292.418 299.368Z" fill="#D0D2D5"/>
<path opacity="0.1" d="M292.337 298.83H250.49L208.561 298.293L208.806 296.143H291.924L292.337 298.83Z" fill="black"/>
<path d="M305.857 296.68H194.584V299.368H305.857V296.68Z" fill="#D0D2D5"/>
<path d="M412.021 47.5711C412.03 45.715 411.302 43.9313 409.996 42.612C408.691 41.2927 406.915 40.5459 405.059 40.5356H94.3077C93.3883 40.5402 92.4788 40.7257 91.6311 41.0817C90.7834 41.4377 90.0142 41.9572 89.3673 42.6105C88.7203 43.2638 88.2084 44.0381 87.8608 44.8893C87.5131 45.7404 87.3365 46.6517 87.3411 47.5711V235.928H412.021V47.5711Z" fill="#444053"/>
<path d="M87.3411 234.053V256.119C87.3382 257.035 87.5164 257.943 87.8653 258.791C88.2142 259.638 88.7269 260.408 89.3742 261.057C90.0214 261.706 90.7904 262.221 91.637 262.572C92.4837 262.923 93.3912 263.103 94.3077 263.103H405.059C406.905 263.103 408.676 262.369 409.982 261.063C411.288 259.758 412.021 257.987 412.021 256.14V234.053H87.3411Z" fill="#D0D2D5"/>
<path opacity="0.1" d="M400.195 52.3616H100.78V221.69H400.195V52.3616Z" fill="#6C63FF"/>
<path d="M251.294 254.713C252.393 254.713 253.478 254.464 254.468 253.985C255.457 253.505 256.324 252.807 257.005 251.943C257.21 251.679 257.398 251.402 257.568 251.113L253.586 250.46L257.886 250.49C258.301 249.592 258.527 248.618 258.551 247.629C258.574 246.64 258.395 245.657 258.024 244.74L252.248 247.75L257.577 243.837C257.088 242.959 256.422 242.193 255.621 241.586C254.82 240.979 253.902 240.546 252.925 240.312C251.948 240.079 250.933 240.051 249.944 240.23C248.956 240.41 248.015 240.792 247.182 241.354C246.35 241.916 245.642 242.645 245.106 243.494C244.569 244.343 244.215 245.295 244.066 246.288C243.916 247.282 243.974 248.296 244.237 249.265C244.5 250.235 244.961 251.14 245.591 251.922C246.268 252.789 247.133 253.491 248.121 253.974C249.109 254.458 250.194 254.71 251.294 254.713Z" fill="#6C63FF"/>
<path opacity="0.1" d="M258.553 263.081L292.006 296.68L286.875 263.081H258.553Z" fill="black"/>
<path d="M340.26 75.4204H109.114V198.158H340.26V75.4204Z" fill="white"/>
<path opacity="0.1" d="M186.478 107.415H122.007V110.757H186.478V107.415Z" fill="#6C63FF"/>
<path opacity="0.1" d="M133.949 89.7451H127.739V107.415H133.949V89.7451Z" fill="#6C63FF"/>
<path opacity="0.1" d="M143.023 89.7451H136.813V107.415H143.023V89.7451Z" fill="#6C63FF"/>
<path opacity="0.1" d="M152.096 89.7451H145.887V107.415H152.096V89.7451Z" fill="#6C63FF"/>
<path opacity="0.1" d="M161.17 89.7451H154.961V107.415H161.17V89.7451Z" fill="#6C63FF"/>
<path opacity="0.1" d="M170.244 89.7451H164.034V107.415H170.244V89.7451Z" fill="#6C63FF"/>
<path opacity="0.1" d="M179.318 89.7451H173.108V107.415H179.318V89.7451Z" fill="#6C63FF"/>
<path opacity="0.1" d="M133.949 93.0908H127.739V95.0002H133.949V93.0908Z" fill="#6C63FF"/>
<path opacity="0.1" d="M143.023 93.0908H136.813V95.0002H143.023V93.0908Z" fill="#6C63FF"/>
<path opacity="0.1" d="M152.096 93.0908H145.887V95.0002H152.096V93.0908Z" fill="#6C63FF"/>
<path opacity="0.1" d="M161.17 93.0908H154.961V95.0002H161.17V93.0908Z" fill="#6C63FF"/>
<path opacity="0.1" d="M170.244 93.0908H164.034V95.0002H170.244V93.0908Z" fill="#6C63FF"/>
<path opacity="0.1" d="M179.318 93.0908H173.108V95.0002H179.318V93.0908Z" fill="#6C63FF"/>
<path opacity="0.1" d="M133.949 101.687H127.739V103.597H133.949V101.687Z" fill="#6C63FF"/>
<path opacity="0.1" d="M143.023 101.687H136.813V103.597H143.023V101.687Z" fill="#6C63FF"/>
<path opacity="0.1" d="M152.096 101.687H145.887V103.597H152.096V101.687Z" fill="#6C63FF"/>
<path opacity="0.1" d="M161.17 101.687H154.961V103.597H161.17V101.687Z" fill="#6C63FF"/>
<path opacity="0.1" d="M170.244 101.687H164.034V103.597H170.244V101.687Z" fill="#6C63FF"/>
<path opacity="0.1" d="M179.318 101.687H173.108V103.597H179.318V101.687Z" fill="#6C63FF"/>
<path opacity="0.1" d="M327.841 116.012H263.369V119.353H327.841V116.012Z" fill="#6C63FF"/>
<path opacity="0.1" d="M275.311 98.3416H269.102V116.012H275.311V98.3416Z" fill="#6C63FF"/>
<path opacity="0.1" d="M284.385 98.3416H278.175V116.012H284.385V98.3416Z" fill="#6C63FF"/>
<path opacity="0.1" d="M293.459 98.3416H287.249V116.012H293.459V98.3416Z" fill="#6C63FF"/>
<path opacity="0.1" d="M302.533 98.3416H296.323V116.012H302.533V98.3416Z" fill="#6C63FF"/>
<path opacity="0.1" d="M311.607 98.3416H305.397V116.012H311.607V98.3416Z" fill="#6C63FF"/>
<path opacity="0.1" d="M320.681 98.3416H314.471V116.012H320.681V98.3416Z" fill="#6C63FF"/>
<path opacity="0.1" d="M275.311 101.687H269.102V103.597H275.311V101.687Z" fill="#6C63FF"/>
<path opacity="0.1" d="M284.385 101.687H278.175V103.597H284.385V101.687Z" fill="#6C63FF"/>
<path opacity="0.1" d="M293.459 101.687H287.249V103.597H293.459V101.687Z" fill="#6C63FF"/>
<path opacity="0.1" d="M302.533 101.687H296.323V103.597H302.533V101.687Z" fill="#6C63FF"/>
<path opacity="0.1" d="M311.607 101.687H305.397V103.597H311.607V101.687Z" fill="#6C63FF"/>
<path opacity="0.1" d="M320.681 101.687H314.471V103.597H320.681V101.687Z" fill="#6C63FF"/>
<path opacity="0.1" d="M275.311 110.284H269.102V112.193H275.311V110.284Z" fill="#6C63FF"/>
<path opacity="0.1" d="M284.385 110.284H278.175V112.193H284.385V110.284Z" fill="#6C63FF"/>
<path opacity="0.1" d="M293.459 110.284H287.249V112.193H293.459V110.284Z" fill="#6C63FF"/>
<path opacity="0.1" d="M302.533 110.284H296.323V112.193H302.533V110.284Z" fill="#6C63FF"/>
<path opacity="0.1" d="M311.607 110.284H305.397V112.193H311.607V110.284Z" fill="#6C63FF"/>
<path opacity="0.1" d="M320.681 110.284H314.471V112.193H320.681V110.284Z" fill="#6C63FF"/>
<path opacity="0.1" d="M327.841 140.369H263.369V143.711H327.841V140.369Z" fill="#6C63FF"/>
<path opacity="0.1" d="M275.311 122.699H269.102V140.369H275.311V122.699Z" fill="#6C63FF"/>
<path opacity="0.1" d="M284.385 122.699H278.175V140.369H284.385V122.699Z" fill="#6C63FF"/>
<path opacity="0.1" d="M293.459 122.699H287.249V140.369H293.459V122.699Z" fill="#6C63FF"/>
<path opacity="0.1" d="M302.533 122.699H296.323V140.369H302.533V122.699Z" fill="#6C63FF"/>
<path opacity="0.1" d="M311.607 122.699H305.397V140.369H311.607V122.699Z" fill="#6C63FF"/>
<path opacity="0.1" d="M320.681 122.699H314.471V140.369H320.681V122.699Z" fill="#6C63FF"/>
<path opacity="0.1" d="M275.311 126.04H269.102V127.95H275.311V126.04Z" fill="#6C63FF"/>
<path opacity="0.1" d="M284.385 126.04H278.175V127.95H284.385V126.04Z" fill="#6C63FF"/>
<path opacity="0.1" d="M293.459 126.04H287.249V127.95H293.459V126.04Z" fill="#6C63FF"/>
<path opacity="0.1" d="M302.533 126.04H296.323V127.95H302.533V126.04Z" fill="#6C63FF"/>
<path opacity="0.1" d="M311.607 126.04H305.397V127.95H311.607V126.04Z" fill="#6C63FF"/>
<path opacity="0.1" d="M320.681 126.04H314.471V127.95H320.681V126.04Z" fill="#6C63FF"/>
<path opacity="0.1" d="M275.311 134.637H269.102V136.546H275.311V134.637Z" fill="#6C63FF"/>
<path opacity="0.1" d="M284.385 134.637H278.175V136.546H284.385V134.637Z" fill="#6C63FF"/>
<path opacity="0.1" d="M293.459 134.637H287.249V136.546H293.459V134.637Z" fill="#6C63FF"/>
<path opacity="0.1" d="M302.533 134.637H296.323V136.546H302.533V134.637Z" fill="#6C63FF"/>
<path opacity="0.1" d="M311.607 134.637H305.397V136.546H311.607V134.637Z" fill="#6C63FF"/>
<path opacity="0.1" d="M320.681 134.637H314.471V136.546H320.681V134.637Z" fill="#6C63FF"/>
<path opacity="0.1" d="M161.549 145.207C161.066 144.593 160.626 143.947 160.233 143.272L169.517 141.75L159.459 141.831C158.496 139.736 157.971 137.466 157.915 135.16C157.86 132.855 158.275 130.562 159.136 128.423L172.605 135.411L160.185 126.281C161.346 124.266 162.909 122.511 164.778 121.126C166.647 119.742 168.781 118.758 171.048 118.235C173.314 117.712 175.664 117.662 177.95 118.088C180.237 118.514 182.411 119.407 184.337 120.711C186.263 122.015 187.899 123.701 189.144 125.666C190.389 127.63 191.216 129.831 191.573 132.129C191.929 134.427 191.809 136.774 191.218 139.024C190.627 141.273 189.578 143.377 188.138 145.203C188.893 146.157 189.544 147.189 190.078 148.282L178.036 154.539L190.882 150.239C191.785 152.904 192.009 155.753 191.532 158.527C191.056 161.301 189.896 163.912 188.155 166.124C190.119 168.62 191.341 171.619 191.681 174.776C192.021 177.934 191.466 181.124 190.078 183.98C188.691 186.837 186.528 189.246 183.836 190.931C181.144 192.617 178.032 193.51 174.856 193.51C171.68 193.51 168.569 192.617 165.877 190.931C163.185 189.246 161.021 186.837 159.634 183.98C158.247 181.124 157.691 177.934 158.032 174.776C158.372 171.619 159.593 168.62 161.557 166.124C159.212 163.142 157.937 159.458 157.937 155.664C157.937 151.87 159.212 148.185 161.557 145.203L161.549 145.207Z" fill="#6C63FF"/>
<path opacity="0.1" d="M191.768 155.67C191.773 159.465 190.497 163.15 188.147 166.129C190.111 168.625 191.332 171.623 191.672 174.78C192.013 177.938 191.457 181.128 190.07 183.985C188.682 186.842 186.519 189.25 183.827 190.936C181.135 192.621 178.024 193.515 174.848 193.515C171.672 193.515 168.56 192.621 165.868 190.936C163.176 189.25 161.013 186.842 159.626 183.985C158.238 181.128 157.683 177.938 158.023 174.78C158.363 171.623 159.585 168.625 161.549 166.129C159.282 163.252 191.768 153.769 191.768 155.67Z" fill="#6C63FF"/>
<path opacity="0.2" d="M177.563 198.016C177.593 198.063 177.615 198.111 177.645 198.158H171.9C171.93 198.111 171.951 198.063 171.981 198.016C171.488 197.155 171.233 196.179 171.242 195.186C171.241 194.507 171.359 193.834 171.59 193.195C171.908 193.247 172.304 193.303 172.76 193.35C174.093 193.483 175.435 193.483 176.768 193.35C177.146 193.311 177.546 193.256 177.95 193.195C177.951 193.205 177.951 193.215 177.95 193.225C178.177 193.854 178.292 194.518 178.29 195.186C178.303 196.177 178.052 197.154 177.563 198.016Z" fill="#3F3D56"/>
<path opacity="0.1" d="M156.917 198.167H124.965C124.892 197.982 124.828 197.788 124.772 197.599C123.645 193.975 123.777 190.077 125.146 186.538C122.023 184.381 119.717 181.237 118.597 177.611C117.477 173.985 117.608 170.088 118.97 166.546C118.328 166.1 117.716 165.611 117.139 165.084L125.559 160.886L115.99 163.923C114.45 162.204 113.278 160.19 112.544 158.003C111.811 155.815 111.532 153.501 111.724 151.202L126.655 153.898L112.094 148.841C112.609 146.573 113.586 144.435 114.964 142.561C116.341 140.687 118.091 139.118 120.102 137.95C122.114 136.783 124.345 136.043 126.655 135.776C128.966 135.509 131.307 135.721 133.531 136.4C135.756 137.078 137.817 138.208 139.586 139.718C141.355 141.228 142.793 143.087 143.811 145.178C144.829 147.27 145.405 149.548 145.504 151.872C145.602 154.196 145.22 156.515 144.382 158.685C145.382 159.378 146.306 160.175 147.138 161.063L137.471 170.601L148.475 162.688C150.125 164.97 151.179 167.627 151.542 170.419C151.906 173.211 151.567 176.049 150.557 178.677C153.603 180.783 155.874 183.829 157.023 187.349C158.172 190.87 158.135 194.67 156.917 198.167Z" fill="#6C63FF"/>
<path opacity="0.1" d="M156.917 198.167H124.965C124.892 197.982 124.828 197.788 124.772 197.599C123.645 193.975 123.777 190.077 125.146 186.538C122.136 184.453 150.372 165.806 150.948 167.617C152.07 171.242 151.939 175.14 150.574 178.681C153.616 180.789 155.884 183.836 157.029 187.355C158.175 190.874 158.135 194.672 156.917 198.167Z" fill="#6C63FF"/>
<path opacity="0.1" d="M301.604 175.241C299.663 178.502 296.678 181.011 293.132 182.363C293.284 183.571 293.308 184.792 293.205 186.005L279.65 185.192L292.887 188.086C292.012 192.131 289.689 195.716 286.355 198.167H267.906V198.644H249.126C249.165 198.48 249.204 198.321 249.247 198.167C249.937 195.573 251.232 193.179 253.026 191.182C254.82 189.186 257.062 187.643 259.568 186.68C259.088 182.915 259.887 179.098 261.837 175.841C263.786 172.585 266.773 170.077 270.319 168.722C270.218 167.948 270.17 167.167 270.177 166.387L278.928 169.827L270.276 164.744C270.523 162.453 271.234 160.237 272.366 158.23C273.498 156.224 275.027 154.469 276.86 153.073L284.832 165.974L278.859 151.782C282.113 149.973 285.874 149.287 289.557 149.831C293.241 150.376 296.642 152.121 299.233 154.795C301.824 157.47 303.46 160.924 303.888 164.623C304.316 168.322 303.512 172.059 301.6 175.254L301.604 175.241Z" fill="#6C63FF"/>
<path opacity="0.1" d="M290.866 193.2C289.714 195.144 288.179 196.834 286.355 198.167H267.906V198.644H249.126C249.165 198.481 249.204 198.322 249.247 198.167C249.937 195.573 251.232 193.179 253.026 191.183C254.82 189.186 257.062 187.643 259.568 186.68C259.409 185.446 263.055 185.614 267.91 186.431C277.401 188.022 291.511 192.12 290.866 193.2Z" fill="#6C63FF"/>
<path d="M210.913 148.05C210.913 148.05 213.214 160.594 208.053 164.684C202.893 168.773 212.414 193.316 228.231 190.456C244.048 187.596 250.455 167.002 250.455 167.002C250.455 167.002 234.638 163.733 240.5 147.099L210.913 148.05Z" fill="#EFB7B9"/>
<path opacity="0.1" d="M210.913 148.05C210.913 148.05 213.214 160.594 208.053 164.684C202.893 168.773 212.414 193.316 228.231 190.456C244.048 187.596 250.455 167.002 250.455 167.002C250.455 167.002 234.638 163.733 240.5 147.099L210.913 148.05Z" fill="black"/>
<path d="M224.889 157.253C239.346 157.253 251.066 145.533 251.066 131.076C251.066 116.619 239.346 104.9 224.889 104.9C210.432 104.9 198.713 116.619 198.713 131.076C198.713 145.533 210.432 157.253 224.889 157.253Z" fill="#EFB7B9"/>
<path d="M267.906 180.84V198.635H181.468V181.653C181.469 179.499 182.104 177.393 183.294 175.597C184.484 173.801 186.176 172.396 188.16 171.556L190.641 170.502C196.911 167.832 204.527 164.516 207.017 163.136C207.29 163 207.546 162.834 207.782 162.641C209.146 161.278 208.875 163.05 208.875 163.05C208.875 163.05 208.836 163.385 208.81 163.97C208.664 167.973 209.24 183.722 227.689 182.41C245.69 181.12 246.482 168.975 246.318 165.402C246.308 165.071 246.279 164.741 246.232 164.413C246.232 164.318 247.78 164.843 249.879 165.6C253.65 166.989 259.194 169.225 260.686 170.278C261.15 170.601 261.714 170.945 262.324 171.285C264.024 172.234 265.439 173.62 266.422 175.3C267.405 176.981 267.921 178.894 267.915 180.84H267.906Z" fill="#6C63FF"/>
<path opacity="0.1" d="M249.875 165.6C248.352 172.661 243.57 185.889 226.321 186.242C207.954 186.603 206.896 168.335 207.008 163.153C207.283 163.017 207.541 162.849 207.778 162.654C209.141 161.291 208.87 163.062 208.87 163.062C208.87 163.062 206.552 183.924 227.685 182.414C248.817 180.905 246.228 164.417 246.228 164.417C246.228 164.318 247.776 164.826 249.875 165.6Z" fill="black"/>
<path d="M193.905 132.371C195.625 131.811 197.676 132.758 198.635 134.091C199.594 135.424 199.728 137.036 199.844 138.58C200.983 138.821 201.624 137.531 201.727 136.563C202.157 132.603 202.179 128.569 203.508 124.75C204.836 120.931 207.739 117.233 212.203 115.762C213.721 115.236 215.343 115.081 216.933 115.311C217.875 115.47 218.765 115.797 219.707 115.952C222.963 116.489 226.51 114.945 229.568 116.02C231.482 116.696 232.716 118.257 233.593 119.822C233.984 120.662 234.513 121.431 235.159 122.097C236.449 123.258 238.496 123.563 240.353 123.929C242.211 124.294 244.25 124.922 245.045 126.359C245.763 127.649 245.234 129.154 244.994 130.564C244.626 132.787 244.999 135.069 246.056 137.058C246.4 137.712 247.096 138.451 247.918 138.241C248.292 138.114 248.608 137.858 248.808 137.518C250.958 134.508 250.889 130.603 253.569 127.915C254.467 127.017 255.624 126.311 256.497 125.395C257.158 124.728 257.642 123.907 257.907 123.007C258.172 122.106 258.209 121.153 258.015 120.235C257.534 118.166 255.865 116.442 254.545 114.644C252.809 112.341 251.545 109.718 250.825 106.925C250.698 106.602 250.698 106.242 250.825 105.919C251.078 105.59 251.403 105.323 251.775 105.14C252.505 104.656 253.033 103.923 253.26 103.077C253.488 102.232 253.398 101.332 253.01 100.548C252.261 98.9866 250.58 97.8297 248.735 97.1331C246.89 96.4364 244.865 96.1397 242.861 95.843C241.545 96.0365 240.001 95.2839 239.592 94.2303C239.412 93.7616 239.412 93.2541 239.227 92.7854C238.87 91.8866 237.842 91.2501 236.737 91.0308C235.613 90.8466 234.461 90.9276 233.374 91.2673C232.135 91.6157 230.699 92.1274 229.62 91.534C229.052 91.2114 228.734 90.6266 228.123 90.3643C226.885 89.8353 225.577 90.9018 224.683 91.7834C223.815 92.7018 222.753 93.4144 221.574 93.8691C220.331 94.2991 218.8 94.2991 217.729 93.6154C216.869 93.0692 216.439 92.1919 215.755 91.4953C214.633 90.3471 212.857 89.7235 211.085 89.5816C209.308 89.4882 207.528 89.6828 205.813 90.1578C202.539 90.951 199.411 92.2572 196.545 94.0282C195.113 94.927 193.741 95.9763 192.993 97.3309C192.462 98.3872 192.188 99.5543 192.193 100.737C192.06 104.439 193.29 108.344 196.494 110.937C194.541 111.754 193.879 113.754 193.423 115.53C192.692 118.36 191.957 121.241 192.232 124.131C192.37 125.623 192.778 127.115 192.559 128.599C192.456 129.317 192.206 130.023 192.266 130.749C192.346 131.152 192.545 131.522 192.837 131.811C193.129 132.1 193.501 132.295 193.905 132.371Z" fill="#454B69"/>
<g opacity="0.1">
<path opacity="0.1" d="M257.637 119.117C257.353 119.73 256.971 120.292 256.506 120.781C255.646 121.697 254.476 122.402 253.577 123.305C250.898 125.989 250.954 129.906 248.817 132.908C248.616 133.247 248.3 133.502 247.926 133.626C247.105 133.837 246.408 133.097 246.064 132.444C245.647 131.649 245.333 130.803 245.131 129.928C245.085 130.146 245.042 130.365 245.002 130.586C244.634 132.808 245.008 135.09 246.064 137.079C246.408 137.733 247.105 138.473 247.926 138.262C248.3 138.136 248.616 137.879 248.817 137.54C250.967 134.529 250.898 130.625 253.577 127.937C254.476 127.038 255.633 126.333 256.506 125.417C257.166 124.75 257.651 123.929 257.916 123.028C258.181 122.127 258.218 121.175 258.024 120.256C257.932 119.865 257.802 119.483 257.637 119.117Z" fill="black"/>
<path opacity="0.1" d="M251.792 100.548C251.419 100.728 251.094 100.993 250.842 101.322C250.715 101.645 250.715 102.005 250.842 102.328C251.09 103.303 251.408 104.259 251.792 105.188C252.531 104.7 253.063 103.957 253.288 103.1C253.513 102.244 253.413 101.335 253.009 100.548C252.888 100.292 252.745 100.047 252.579 99.8167C252.355 100.098 252.09 100.345 251.792 100.548Z" fill="black"/>
<path opacity="0.1" d="M196.489 106.345C194.272 104.511 192.809 101.923 192.383 99.0769C192.271 99.644 192.208 100.219 192.193 100.797C192.055 103.53 192.777 106.237 194.258 108.538C194.708 107.558 195.502 106.777 196.489 106.345Z" fill="black"/>
<path opacity="0.1" d="M245.002 125.95C245.243 124.54 245.772 123.039 245.054 121.744C244.258 120.308 242.224 119.676 240.362 119.315C238.5 118.953 236.466 118.644 235.167 117.483C234.522 116.817 233.993 116.048 233.602 115.208C232.742 113.642 231.49 112.081 229.577 111.406C226.519 110.331 222.971 111.875 219.716 111.337C218.774 111.182 217.884 110.856 216.942 110.697C215.354 110.46 213.731 110.607 212.212 111.127C207.748 112.597 204.845 116.287 203.516 120.114C202.187 123.942 202.157 127.967 201.736 131.928C201.633 132.895 200.992 134.185 199.852 133.944C199.736 132.401 199.594 130.788 198.644 129.455C197.694 128.122 195.664 127.171 193.913 127.735C193.384 127.615 192.914 127.31 192.589 126.875C192.649 127.447 192.64 128.024 192.563 128.595C192.46 129.313 192.211 130.018 192.271 130.745C192.349 131.148 192.547 131.519 192.839 131.808C193.13 132.098 193.501 132.294 193.905 132.371C195.625 131.811 197.676 132.758 198.635 134.091C199.594 135.424 199.728 137.036 199.844 138.58C200.983 138.821 201.624 137.531 201.727 136.563C202.157 132.603 202.179 128.569 203.508 124.75C204.836 120.931 207.739 117.233 212.203 115.762C213.721 115.236 215.343 115.081 216.934 115.311C217.875 115.47 218.765 115.797 219.707 115.952C222.963 116.489 226.51 114.945 229.568 116.02C231.482 116.696 232.716 118.257 233.593 119.822C233.984 120.662 234.513 121.431 235.159 122.097C236.449 123.258 238.496 123.563 240.353 123.929C242.211 124.294 244.099 124.879 244.951 126.212C244.972 126.139 244.985 126.045 245.002 125.95Z" fill="black"/>
<path opacity="0.1" d="M192.572 123.998C192.672 122.83 192.603 121.654 192.365 120.506C192.181 121.717 192.141 122.945 192.245 124.165C192.271 124.479 192.314 124.789 192.357 125.103C192.408 124.733 192.503 124.368 192.572 123.998Z" fill="black"/>
</g>
<path d="M390.79 171.453H352.086V198.309H390.79V171.453Z" fill="white"/>
<path opacity="0.1" d="M387.341 191.716C386.789 192.645 385.938 193.359 384.928 193.742C384.972 194.085 384.979 194.433 384.95 194.778L381.08 194.546L384.847 195.371C384.595 196.52 383.935 197.538 382.989 198.235H377.751V198.373H372.41C372.41 198.326 372.41 198.283 372.444 198.235C372.559 197.798 372.736 197.38 372.969 196.993C373.521 196.066 374.369 195.352 375.377 194.967C375.24 193.896 375.467 192.81 376.021 191.883C376.576 190.956 377.426 190.243 378.435 189.858C378.405 189.639 378.392 189.417 378.396 189.196L380.886 190.177L378.422 188.732C378.492 188.079 378.694 187.447 379.017 186.875C379.341 186.303 379.778 185.804 380.301 185.407L382.568 189.08L380.869 185.038C381.795 184.534 382.86 184.347 383.902 184.507C384.943 184.667 385.904 185.164 386.636 185.922C387.368 186.68 387.832 187.657 387.955 188.704C388.078 189.75 387.855 190.808 387.319 191.716H387.341Z" fill="#6C63FF"/>
<path opacity="0.1" d="M384.283 196.838C383.954 197.391 383.515 197.871 382.993 198.248H377.751V198.386H372.41C372.41 198.339 372.41 198.296 372.444 198.248C372.559 197.811 372.736 197.393 372.969 197.005C373.521 196.078 374.369 195.365 375.377 194.98C375.334 194.632 376.371 194.679 377.751 194.911C380.452 195.367 384.468 196.532 384.283 196.838Z" fill="#6C63FF"/>
<path opacity="0.1" d="M353.557 191.716C354.109 192.645 354.96 193.359 355.97 193.742C355.926 194.085 355.919 194.433 355.948 194.778L359.818 194.546L356.051 195.371C356.303 196.52 356.963 197.538 357.909 198.235H363.16V198.373H368.505C368.505 198.326 368.48 198.283 368.471 198.235C368.353 197.8 368.176 197.382 367.946 196.993C367.392 196.066 366.542 195.353 365.534 194.967C365.671 193.896 365.445 192.81 364.89 191.883C364.335 190.956 363.485 190.243 362.476 189.858C362.505 189.639 362.52 189.418 362.519 189.196L360.029 190.177L362.489 188.732C362.419 188.079 362.217 187.447 361.894 186.875C361.57 186.303 361.133 185.804 360.61 185.407L358.343 189.08L360.042 185.038C359.116 184.534 358.051 184.347 357.009 184.507C355.968 184.667 355.007 185.164 354.275 185.922C353.543 186.68 353.079 187.657 352.956 188.704C352.833 189.75 353.056 190.808 353.591 191.716H353.557Z" fill="#6C63FF"/>
<path opacity="0.1" d="M356.615 196.838C356.944 197.391 357.383 197.871 357.905 198.248H363.156V198.386H368.501C368.501 198.339 368.475 198.296 368.467 198.248C368.348 197.812 368.172 197.394 367.942 197.005C367.388 196.079 366.538 195.366 365.529 194.98C365.572 194.632 364.536 194.679 363.156 194.911C360.446 195.367 356.417 196.532 356.615 196.838Z" fill="#6C63FF"/>
<path d="M375.261 177.37H366.613V187.003H375.261V177.37Z" fill="#464353"/>
<path opacity="0.1" d="M375.261 177.37H366.613V187.003H375.261V177.37Z" fill="black"/>
<path d="M362.928 195.819L362.751 198.321H365.22L365.375 195.014L362.928 195.819Z" fill="#A1616A"/>
<path d="M375.932 195.819L375.558 198.321H377.82L377.962 195.014L375.932 195.819Z" fill="#A1616A"/>
<path d="M368.772 182.191C368.772 182.191 368.686 183.442 368.385 183.769C368.084 184.096 371.073 186.99 373.425 184.13C373.425 184.13 372.414 183.27 372.651 182.307C372.887 181.343 368.772 182.191 368.772 182.191Z" fill="#A1616A"/>
<path opacity="0.1" d="M368.772 182.191C368.772 182.191 368.686 183.442 368.385 183.769C368.084 184.096 371.073 186.99 373.425 184.13C373.425 184.13 372.414 183.27 372.651 182.307C372.887 181.343 368.772 182.191 368.772 182.191Z" fill="black"/>
<path d="M370.935 183.309C373.324 183.309 375.261 181.372 375.261 178.982C375.261 176.593 373.324 174.656 370.935 174.656C368.546 174.656 366.609 176.593 366.609 178.982C366.609 181.372 368.546 183.309 370.935 183.309Z" fill="#A1616A"/>
<path d="M370.711 184.874C370.711 184.874 368.897 184.844 368.626 183.188C368.266 183.499 367.887 183.786 367.49 184.048C367.314 184.109 365.581 185.089 365.254 185.149C364.935 185.214 364.638 185.362 364.394 185.579C363.967 185.915 363.617 186.34 363.37 186.824C363.123 187.308 362.984 187.84 362.962 188.383C362.902 190.323 362.665 194.111 362.665 194.111L362.756 195.483V196.378C362.756 196.378 364.364 196.808 365.336 195.948C365.336 195.948 365.336 195.621 365.517 195.518C365.697 195.414 365.723 194.98 365.693 194.799C365.677 194.531 365.677 194.263 365.693 193.995C365.724 194.141 365.81 194.269 365.934 194.352C366.005 194.595 366.026 194.849 365.994 195.1C365.904 195.277 365.813 195.694 365.904 195.784C365.949 195.864 365.968 195.956 365.957 196.048C365.946 196.139 365.906 196.225 365.843 196.292C365.679 196.521 365.549 196.773 365.456 197.04C365.456 197.04 365.366 197.573 365.276 197.633C365.174 197.851 365.104 198.083 365.069 198.321H375.82C375.631 197.777 375.487 197.217 375.39 196.648C375.42 196.382 375.124 195.277 375.33 194.98C375.634 194.587 375.801 194.105 375.807 193.608L375.928 194.769L375.601 197.349C375.601 197.349 377.596 197.977 377.807 197.586C378.03 196.905 378.2 196.208 378.314 195.5C378.314 195.5 378.792 193.35 378.912 193.053C379.033 192.757 379.299 186.792 377.687 185.928C376.074 185.063 373.034 183.575 372.956 183.648C372.784 184.083 372.465 184.443 372.055 184.667C371.645 184.891 371.17 184.964 370.711 184.874Z" fill="#6C63FF"/>
<path opacity="0.1" d="M365.529 190.706C365.222 191.145 365.09 191.683 365.16 192.215C365.232 192.742 365.404 193.25 365.667 193.712" stroke="black" stroke-miterlimit="10"/>
<path opacity="0.1" d="M375.975 191.114C376.052 191.333 376.113 191.557 376.156 191.785C376.233 192.07 376.248 192.368 376.199 192.659C376.15 192.95 376.038 193.227 375.872 193.471" stroke="black" stroke-miterlimit="10"/>
<path d="M369 176.024C369.338 175.934 369.698 175.97 370.01 176.127C370.318 176.286 370.641 176.414 370.974 176.51C371.197 176.557 371.404 176.557 371.653 176.592C372.069 176.667 372.452 176.865 372.754 177.16C373.056 177.455 373.263 177.834 373.348 178.247C373.541 179.305 372.918 180.346 372.918 181.425C372.92 182.043 373.137 182.64 373.532 183.115C373.864 183.418 374.153 183.763 374.393 184.143C374.517 184.418 374.543 184.732 374.663 185.003C374.927 185.49 375.362 185.861 375.885 186.044C376.403 186.218 376.903 186.443 377.377 186.715C378.237 187.287 378.745 188.383 379.742 188.62C379.792 188.641 379.845 188.652 379.899 188.652C379.953 188.652 380.007 188.641 380.056 188.62C380.102 188.584 380.138 188.538 380.164 188.486C380.189 188.434 380.202 188.377 380.202 188.319C380.227 188.108 380.204 187.895 380.135 187.695C380.066 187.494 379.952 187.312 379.802 187.162C379.557 186.917 379.2 186.732 379.123 186.401C379.046 186.07 379.252 185.786 379.364 185.485C379.721 184.509 379.127 183.446 378.452 182.655C377.777 181.864 376.969 181.081 376.805 180.075C376.766 179.735 376.754 179.393 376.766 179.051C376.754 178.347 376.632 177.649 376.405 176.983C376.296 176.623 376.121 176.286 375.889 175.989C375.674 175.731 375.399 175.534 375.175 175.284C374.878 174.874 374.611 174.443 374.375 173.994C374.034 173.462 373.567 173.023 373.016 172.713C372.465 172.403 371.846 172.233 371.215 172.218C370.006 172.218 368.862 172.751 367.839 173.392C367.462 173.597 367.136 173.884 366.884 174.231C366.454 174.914 366.583 175.817 366.334 176.592C366.084 177.366 365.495 177.938 365.289 178.694C365.225 178.917 365.215 179.151 365.259 179.378C365.335 179.618 365.438 179.849 365.564 180.066C365.792 180.62 365.922 181.209 365.947 181.808C366.011 182.53 366.041 183.309 365.663 183.924C365.369 184.297 365.003 184.607 364.588 184.835C365.009 185.178 365.547 185.343 366.088 185.296C366.906 185.33 367.852 185.296 368.359 184.65C368.663 184.187 368.785 183.629 368.703 183.081C368.663 182.482 368.541 181.892 368.342 181.326C368.062 180.531 367.632 179.778 367.508 178.944C367.459 178.643 367.472 178.335 367.546 178.04C367.62 177.744 367.753 177.466 367.938 177.224C368.092 177.03 368.368 176.931 368.497 176.725C368.66 176.45 368.613 176.161 369 176.024Z" fill="#464353"/>
<g opacity="0.1">
<path opacity="0.1" d="M365.564 180.01C365.792 180.564 365.922 181.153 365.947 181.752C365.947 181.941 365.977 182.135 365.981 182.328C366.026 181.908 366.026 181.484 365.981 181.064C365.955 180.473 365.825 179.89 365.598 179.344C365.475 179.126 365.372 178.897 365.293 178.66C365.229 178.881 365.219 179.114 365.263 179.339C365.339 179.573 365.44 179.798 365.564 180.01Z" fill="black"/>
<path opacity="0.1" d="M368.398 183.975C367.89 184.616 366.944 184.655 366.127 184.625C365.782 184.626 365.438 184.573 365.108 184.47C364.945 184.603 364.768 184.728 364.596 184.848C365.018 185.19 365.556 185.355 366.097 185.308C366.914 185.343 367.86 185.308 368.368 184.663C368.658 184.233 368.784 183.712 368.72 183.197C368.682 183.48 368.571 183.748 368.398 183.975Z" fill="black"/>
<path opacity="0.1" d="M379.153 185.695C379.165 185.744 379.182 185.792 379.205 185.837C379.256 185.717 379.317 185.592 379.364 185.467C379.467 185.184 379.497 184.879 379.45 184.582C379.435 184.65 379.417 184.717 379.394 184.784C379.282 185.085 379.08 185.386 379.153 185.695Z" fill="black"/>
<path opacity="0.1" d="M373.373 178.454C373.423 178.159 373.423 177.858 373.373 177.563C373.289 177.15 373.082 176.771 372.78 176.476C372.478 176.18 372.095 175.983 371.679 175.908C371.451 175.869 371.223 175.869 371 175.826C370.667 175.728 370.345 175.6 370.036 175.443C369.724 175.285 369.364 175.247 369.026 175.336C368.639 175.473 368.686 175.766 368.514 176.05C368.389 176.256 368.11 176.359 367.955 176.548C367.614 177.003 367.46 177.571 367.525 178.135C367.579 177.806 367.716 177.497 367.925 177.237C368.08 177.043 368.355 176.944 368.484 176.738C368.656 176.45 368.609 176.161 368.996 176.024C369.334 175.934 369.693 175.97 370.006 176.127C370.314 176.286 370.637 176.414 370.969 176.51C371.193 176.557 371.399 176.557 371.649 176.591C372.064 176.667 372.448 176.865 372.75 177.16C373.051 177.455 373.258 177.834 373.343 178.247C373.357 178.315 373.368 178.384 373.373 178.454Z" fill="black"/>
<path opacity="0.1" d="M380.069 187.919C379.968 187.958 379.856 187.958 379.755 187.919C378.757 187.682 378.241 186.586 377.39 186.014C376.914 185.745 376.414 185.521 375.898 185.343C375.375 185.162 374.94 184.793 374.676 184.307C374.556 184.027 374.53 183.717 374.405 183.446C374.166 183.067 373.877 182.721 373.545 182.419C373.187 181.992 372.971 181.464 372.926 180.909C372.9 181.076 372.887 181.244 372.887 181.412C372.895 182.038 373.124 182.641 373.532 183.115C373.864 183.418 374.153 183.763 374.393 184.143C374.517 184.418 374.543 184.732 374.663 185.003C374.926 185.49 375.362 185.861 375.885 186.044C376.403 186.218 376.903 186.443 377.377 186.715C378.237 187.287 378.745 188.383 379.742 188.62C379.792 188.641 379.845 188.652 379.899 188.652C379.953 188.652 380.007 188.641 380.056 188.62C380.101 188.584 380.138 188.538 380.163 188.486C380.188 188.434 380.202 188.377 380.202 188.319C380.222 188.156 380.213 187.992 380.177 187.833C380.149 187.871 380.112 187.9 380.069 187.919Z" fill="black"/>
</g>
<path opacity="0.1" d="M361.565 173.427H356.034V181.326H361.565V173.427Z" fill="#6C63FF"/>
<path opacity="0.1" d="M360.773 174.558H356.825V180.2H360.773V174.558Z" fill="#6C63FF"/>
<path opacity="0.1" d="M388.812 174.613H379.729V179.352H388.812V174.613Z" fill="#6C63FF"/>
<path opacity="0.1" d="M387.629 175.233H380.916V178.737H387.629V175.233Z" fill="#6C63FF"/>
</g>
<defs>
<clipPath id="clip0">
<rect width="496.954" height="300" fill="white"/>
</clipPath>
</defs>
</svg>