<svg width="72" height="48" viewBox="0 0 72 48" fill="none" xmlns="http://www.w3.org/2000/svg">
<path d="M2.29601 5.144L32.296 21.26C33.304 21.8 34.608 22.056 35.92 22.056C37.232 22.056 38.536 21.8 39.544 21.26L69.544 5.144C71.5 4.092 73.348 0 69.76 0H2.08401C-1.50399 0 0.344006 4.092 2.29601 5.144ZM70.452 13.956L39.544 30.064C38.184 30.776 37.232 30.86 35.92 30.86C34.608 30.86 33.656 30.776 32.296 30.064C30.936 29.352 3.76401 15.108 1.54401 13.952C-0.0159934 13.136 6.46424e-06 14.092 6.46424e-06 14.828V44C6.46424e-06 45.68 2.26401 48 4.00001 48H68C69.736 48 72 45.68 72 44V14.832C72 14.096 72.016 13.14 70.452 13.956Z" fill="#0B5F73"/>
</svg>
