<svg width="48" height="68" viewBox="0 0 48 68" fill="none" xmlns="http://www.w3.org/2000/svg">
<path d="M23.9994 32.3333C21.7892 32.3333 19.6696 31.4553 18.1068 29.8925C16.544 28.3297 15.666 26.2101 15.666 24C15.666 21.7898 16.544 19.6702 18.1068 18.1074C19.6696 16.5446 21.7892 15.6666 23.9994 15.6666C26.2095 15.6666 28.3291 16.5446 29.8919 18.1074C31.4547 19.6702 32.3327 21.7898 32.3327 24C32.3327 25.0943 32.1171 26.1779 31.6983 27.189C31.2796 28.2 30.6657 29.1187 29.8919 29.8925C29.1181 30.6663 28.1994 31.2802 27.1884 31.699C26.1773 32.1177 25.0937 32.3333 23.9994 32.3333ZM23.9994 0.666626C17.811 0.666626 11.876 3.12495 7.50019 7.5008C3.12434 11.8766 0.666016 17.8116 0.666016 24C0.666016 41.5 23.9994 67.3333 23.9994 67.3333C23.9994 67.3333 47.3327 41.5 47.3327 24C47.3327 17.8116 44.8744 11.8766 40.4985 7.5008C36.1227 3.12495 30.1877 0.666626 23.9994 0.666626Z" fill="#0B5F73"/>
</svg>
