<svg width="374" height="322" viewBox="0 0 374 322" fill="none" xmlns="http://www.w3.org/2000/svg">
<g clip-path="url(#clip0)">
<g opacity="0.5">
<path opacity="0.5" d="M200.107 8.22461H1.95244C0.874135 8.22461 0 9.09847 0 10.1764V192.641C0 193.719 0.874135 194.593 1.95244 194.593H200.107C201.186 194.593 202.06 193.719 202.06 192.641V10.1764C202.06 9.09847 201.186 8.22461 200.107 8.22461Z" fill="url(#paint0_linear)"/>
</g>
<path d="M197.912 9.66895H4.41685C3.33855 9.66895 2.46442 10.5428 2.46442 11.6208V189.566C2.46442 190.644 3.33855 191.518 4.41685 191.518H197.912C198.99 191.518 199.864 190.644 199.864 189.566V11.6208C199.864 10.5428 198.99 9.66895 197.912 9.66895Z" fill="#F5F5F5"/>
<path d="M49.0192 39.623H19.6329C18.5546 39.623 17.6804 40.4969 17.6804 41.5749V67.6252C17.6804 68.7031 18.5546 69.577 19.6329 69.577H49.0192C50.0975 69.577 50.9716 68.7031 50.9716 67.6252V41.5749C50.9716 40.4969 50.0975 39.623 49.0192 39.623Z" fill="#0B5F73"/>
<path d="M191.803 39.623H62.4476C61.6233 39.623 60.9551 40.2911 60.9551 41.1151V41.4578C60.9551 42.2818 61.6233 42.9498 62.4476 42.9498H191.803C192.627 42.9498 193.296 42.2818 193.296 41.4578V41.1151C193.296 40.2911 192.627 39.623 191.803 39.623Z" fill="#E0E0E0"/>
<path d="M191.803 49.6074H62.4476C61.6233 49.6074 60.9551 50.2754 60.9551 51.0995V51.4421C60.9551 52.2662 61.6233 52.9342 62.4476 52.9342H191.803C192.627 52.9342 193.296 52.2662 193.296 51.4421V51.0995C193.296 50.2754 192.627 49.6074 191.803 49.6074Z" fill="#E0E0E0"/>
<path d="M191.803 85.8467H15.8407C15.0164 85.8467 14.3482 86.5147 14.3482 87.3387V87.6814C14.3482 88.5054 15.0164 89.1734 15.8407 89.1734H191.803C192.627 89.1734 193.295 88.5054 193.295 87.6814V87.3387C193.295 86.5147 192.627 85.8467 191.803 85.8467Z" fill="#E0E0E0"/>
<path d="M191.803 95.8262H15.8407C15.0164 95.8262 14.3482 96.4942 14.3482 97.3182V97.6609C14.3482 98.4849 15.0164 99.1529 15.8407 99.1529H191.803C192.627 99.1529 193.295 98.4849 193.295 97.6609V97.3182C193.295 96.4942 192.627 95.8262 191.803 95.8262Z" fill="#E0E0E0"/>
<path d="M191.803 109.143H15.8407C15.0164 109.143 14.3482 109.811 14.3482 110.635V110.977C14.3482 111.801 15.0164 112.469 15.8407 112.469H191.803C192.627 112.469 193.295 111.801 193.295 110.977V110.635C193.295 109.811 192.627 109.143 191.803 109.143Z" fill="#E0E0E0"/>
<path d="M116.057 119.123H15.8407C15.0164 119.123 14.3482 119.791 14.3482 120.615V120.958C14.3482 121.782 15.0164 122.45 15.8407 122.45H116.057C116.881 122.45 117.55 121.782 117.55 120.958V120.615C117.55 119.791 116.881 119.123 116.057 119.123Z" fill="#E0E0E0"/>
<path d="M191.803 132.404H15.8407C15.0164 132.404 14.3482 133.072 14.3482 133.896V134.239C14.3482 135.063 15.0164 135.731 15.8407 135.731H191.803C192.627 135.731 193.295 135.063 193.295 134.239V133.896C193.295 133.072 192.627 132.404 191.803 132.404Z" fill="#E0E0E0"/>
<path d="M191.803 142.389H15.8407C15.0164 142.389 14.3482 143.057 14.3482 143.881V144.223C14.3482 145.047 15.0164 145.715 15.8407 145.715H191.803C192.627 145.715 193.295 145.047 193.295 144.223V143.881C193.295 143.057 192.627 142.389 191.803 142.389Z" fill="#E0E0E0"/>
<path d="M191.803 155.7H15.8407C15.0164 155.7 14.3482 156.368 14.3482 157.192V157.535C14.3482 158.359 15.0164 159.027 15.8407 159.027H191.803C192.627 159.027 193.295 158.359 193.295 157.535V157.192C193.295 156.368 192.627 155.7 191.803 155.7Z" fill="#E0E0E0"/>
<path d="M116.057 165.685H15.8407C15.0164 165.685 14.3482 166.353 14.3482 167.177V167.519C14.3482 168.343 15.0164 169.011 15.8407 169.011H116.057C116.881 169.011 117.55 168.343 117.55 167.519V167.177C117.55 166.353 116.881 165.685 116.057 165.685Z" fill="#E0E0E0"/>
<g opacity="0.5">
<path opacity="0.5" d="M230.604 51.291H32.4495C31.3712 51.291 30.4971 52.1649 30.4971 53.2428V235.708C30.4971 236.786 31.3712 237.659 32.4495 237.659H230.604C231.683 237.659 232.557 236.786 232.557 235.708V53.2428C232.557 52.1649 231.683 51.291 230.604 51.291Z" fill="url(#paint1_linear)"/>
</g>
<path d="M228.409 52.7344H34.9139C33.8356 52.7344 32.9615 53.6082 32.9615 54.6862V232.631C32.9615 233.709 33.8356 234.583 34.9139 234.583H228.409C229.487 234.583 230.361 233.709 230.361 232.631V54.6862C230.361 53.6082 229.487 52.7344 228.409 52.7344Z" fill="white"/>
<path d="M79.5119 82.6885H50.1255C49.0472 82.6885 48.1731 83.5623 48.1731 84.6403V110.691C48.1731 111.769 49.0472 112.642 50.1255 112.642H79.5119C80.5902 112.642 81.4643 111.769 81.4643 110.691V84.6403C81.4643 83.5623 80.5902 82.6885 79.5119 82.6885Z" fill="#0B5F73"/>
<path d="M222.3 82.6885H92.9446C92.1203 82.6885 91.4521 83.3565 91.4521 84.1805V84.5232C91.4521 85.3472 92.1203 86.0152 92.9446 86.0152H222.3C223.124 86.0152 223.793 85.3472 223.793 84.5232V84.1805C223.793 83.3565 223.124 82.6885 222.3 82.6885Z" fill="#E0E0E0"/>
<path d="M222.3 92.6738H92.9446C92.1203 92.6738 91.4521 93.3418 91.4521 94.1659V94.5085C91.4521 95.3326 92.1203 96.0006 92.9446 96.0006H222.3C223.124 96.0006 223.793 95.3326 223.793 94.5085V94.1659C223.793 93.3418 223.124 92.6738 222.3 92.6738Z" fill="#E0E0E0"/>
<path d="M222.3 128.912H46.3378C45.5135 128.912 44.8453 129.58 44.8453 130.404V130.747C44.8453 131.571 45.5135 132.239 46.3378 132.239H222.3C223.124 132.239 223.793 131.571 223.793 130.747V130.404C223.793 129.58 223.124 128.912 222.3 128.912Z" fill="#E0E0E0"/>
<path d="M222.3 138.896H46.3378C45.5135 138.896 44.8453 139.564 44.8453 140.389V140.731C44.8453 141.555 45.5135 142.223 46.3378 142.223H222.3C223.124 142.223 223.793 141.555 223.793 140.731V140.389C223.793 139.564 223.124 138.896 222.3 138.896Z" fill="#E0E0E0"/>
<path d="M222.3 152.208H46.3378C45.5135 152.208 44.8453 152.876 44.8453 153.7V154.043C44.8453 154.867 45.5135 155.535 46.3378 155.535H222.3C223.124 155.535 223.793 154.867 223.793 154.043V153.7C223.793 152.876 223.124 152.208 222.3 152.208Z" fill="#E0E0E0"/>
<path d="M146.554 162.193H46.3378C45.5135 162.193 44.8453 162.861 44.8453 163.685V164.028C44.8453 164.852 45.5135 165.52 46.3378 165.52H146.554C147.379 165.52 148.047 164.852 148.047 164.028V163.685C148.047 162.861 147.379 162.193 146.554 162.193Z" fill="#E0E0E0"/>
<path d="M222.3 175.47H46.3378C45.5135 175.47 44.8453 176.138 44.8453 176.962V177.304C44.8453 178.129 45.5135 178.797 46.3378 178.797H222.3C223.124 178.797 223.793 178.129 223.793 177.304V176.962C223.793 176.138 223.124 175.47 222.3 175.47Z" fill="#E0E0E0"/>
<path d="M222.3 185.454H46.3378C45.5135 185.454 44.8453 186.122 44.8453 186.946V187.289C44.8453 188.113 45.5135 188.781 46.3378 188.781H222.3C223.124 188.781 223.793 188.113 223.793 187.289V186.946C223.793 186.122 223.124 185.454 222.3 185.454Z" fill="#E0E0E0"/>
<path d="M222.3 198.766H46.3378C45.5135 198.766 44.8453 199.434 44.8453 200.258V200.6C44.8453 201.424 45.5135 202.092 46.3378 202.092H222.3C223.124 202.092 223.793 201.424 223.793 200.6V200.258C223.793 199.434 223.124 198.766 222.3 198.766Z" fill="#E0E0E0"/>
<path d="M146.554 208.75H46.3378C45.5135 208.75 44.8453 209.418 44.8453 210.242V210.585C44.8453 211.409 45.5135 212.077 46.3378 212.077H146.554C147.379 212.077 148.047 211.409 148.047 210.585V210.242C148.047 209.418 147.379 208.75 146.554 208.75Z" fill="#E0E0E0"/>
<path d="M232.557 119.851L234.449 118.064" stroke="#535461" stroke-miterlimit="10"/>
<path d="M238.414 114.313L307.812 48.6621" stroke="#535461" stroke-miterlimit="10" stroke-dasharray="12.58 12.58"/>
<path d="M309.795 46.7841L311.683 44.9971" stroke="#535461" stroke-miterlimit="10"/>
<path d="M233.264 185.454L235.203 187.193" stroke="#535461" stroke-miterlimit="10"/>
<path d="M239.221 190.798L309.522 253.889" stroke="#535461" stroke-miterlimit="10" stroke-dasharray="12.44 12.44"/>
<path d="M311.531 255.693L313.466 257.428" stroke="#535461" stroke-miterlimit="10"/>
<g opacity="0.5">
<path opacity="0.5" d="M316.859 304.823C347.84 304.823 372.954 279.716 372.954 248.745C372.954 217.774 347.84 192.667 316.859 192.667C285.878 192.667 260.763 217.774 260.763 248.745C260.763 279.716 285.878 304.823 316.859 304.823Z" fill="url(#paint2_linear)"/>
</g>
<path d="M316.859 303.331C347.185 303.331 371.77 278.754 371.77 248.437C371.77 218.12 347.185 193.543 316.859 193.543C286.532 193.543 261.948 218.12 261.948 248.437C261.948 278.754 286.532 303.331 316.859 303.331Z" fill="#F5F5F5"/>
<path d="M347.23 253.382C347.23 273.599 334.031 296.105 317.757 296.105C301.482 296.105 288.284 273.594 288.284 253.382C288.284 233.17 301.482 222.903 317.757 222.903C334.031 222.903 347.23 233.161 347.23 253.382Z" fill="#FDD835"/>
<path d="M317.015 303.497C327.745 303.513 338.242 300.372 347.199 294.466C345.178 283.41 337.476 282.781 337.476 282.781H295.035C295.035 282.781 287.767 283.38 285.49 293.547C294.719 300.036 305.731 303.512 317.015 303.497Z" fill="#0B5F73"/>
<path opacity="0.1" d="M307.882 269.296H324.864V283.757C324.864 285.774 324.062 287.709 322.635 289.136C321.208 290.563 319.272 291.364 317.254 291.364H315.492C313.474 291.364 311.538 290.563 310.111 289.136C308.684 287.709 307.882 285.774 307.882 283.757V269.296Z" fill="black"/>
<path d="M309.353 268.667H323.432C323.817 268.667 324.187 268.82 324.46 269.093C324.732 269.365 324.885 269.735 324.885 270.12V283.132C324.885 285.15 324.084 287.085 322.656 288.512C321.229 289.938 319.294 290.74 317.275 290.74H315.514C313.495 290.74 311.56 289.938 310.133 288.512C308.705 287.085 307.904 285.15 307.904 283.132V270.12C307.904 269.735 308.056 269.366 308.328 269.094C308.599 268.822 308.968 268.668 309.353 268.667Z" fill="#FDB797"/>
<path opacity="0.1" d="M307.912 275.71C313.385 277.755 319.41 277.772 324.894 275.758V273.672H307.912V275.71Z" fill="black"/>
<path d="M316.438 276.843C329.881 276.843 340.778 265.949 340.778 252.51C340.778 239.072 329.881 228.178 316.438 228.178C302.995 228.178 292.097 239.072 292.097 252.51C292.097 265.949 302.995 276.843 316.438 276.843Z" fill="#FDB797"/>
<path d="M292.596 255.72C293.847 255.72 294.861 253.819 294.861 251.474C294.861 249.129 293.847 247.228 292.596 247.228C291.346 247.228 290.332 249.129 290.332 251.474C290.332 253.819 291.346 255.72 292.596 255.72Z" fill="#FDB797"/>
<path d="M340.149 255.72C341.4 255.72 342.414 253.819 342.414 251.474C342.414 249.129 341.4 247.228 340.149 247.228C338.898 247.228 337.884 249.129 337.884 251.474C337.884 253.819 338.898 255.72 340.149 255.72Z" fill="#FDB797"/>
<path opacity="0.1" d="M294.866 239.312C294.866 239.312 308.645 258.153 340.188 251.712C340.188 251.712 343.711 247.427 335.133 234.263C326.556 221.099 302.675 223.242 294.866 239.312Z" fill="black"/>
<path d="M294.866 239.008C294.866 239.008 308.645 257.836 340.188 251.408C340.188 251.408 343.711 247.123 335.133 233.959C326.556 220.795 302.675 222.933 294.866 239.008Z" fill="#FDD835"/>
<g opacity="0.5">
<path opacity="0.5" d="M317.904 111.974C348.885 111.974 374 86.8673 374 55.8963C374 24.9253 348.885 -0.181641 317.904 -0.181641C286.924 -0.181641 261.809 24.9253 261.809 55.8963C261.809 86.8673 286.924 111.974 317.904 111.974Z" fill="url(#paint3_linear)"/>
</g>
<path d="M318.017 110.43C348.344 110.43 372.928 85.8534 372.928 55.5364C372.928 25.2194 348.344 0.642578 318.017 0.642578C287.691 0.642578 263.106 25.2194 263.106 55.5364C263.106 85.8534 287.691 110.43 318.017 110.43Z" fill="#F5F5F5"/>
<path d="M318.061 110.647C328.791 110.663 339.288 107.523 348.245 101.617C346.223 90.5606 338.522 89.9316 338.522 89.9316H296.063C296.063 89.9316 288.796 90.5302 286.518 100.697C295.752 107.19 306.771 110.666 318.061 110.647Z" fill="#0B5F73"/>
<path d="M317.483 80.8759C332.122 80.8759 343.989 69.0128 343.989 54.3789C343.989 39.745 332.122 27.8818 317.483 27.8818C302.845 27.8818 290.978 39.745 290.978 54.3789C290.978 69.0128 302.845 80.8759 317.483 80.8759Z" fill="#333333"/>
<path opacity="0.1" d="M308.919 76.4473H325.901V90.9038C325.901 92.9215 325.099 94.8565 323.672 96.2833C322.245 97.71 320.309 98.5115 318.29 98.5115H316.529C314.511 98.5115 312.575 97.71 311.148 96.2833C309.721 94.8565 308.919 92.9215 308.919 90.9038V76.4473Z" fill="black"/>
<path d="M310.381 75.8184H324.46C324.846 75.8184 325.215 75.9715 325.488 76.244C325.761 76.5165 325.914 76.886 325.914 77.2714V90.2835C325.914 92.3012 325.112 94.2363 323.685 95.663C322.258 97.0898 320.322 97.8913 318.304 97.8913H316.542C315.542 97.893 314.551 97.6975 313.626 97.3159C312.701 96.9344 311.86 96.3743 311.152 95.6676C310.444 94.961 309.883 94.1218 309.499 93.1979C309.116 92.274 308.919 91.2837 308.919 90.2835V77.2714C308.919 77.0799 308.957 76.8902 309.03 76.7133C309.104 76.5365 309.212 76.3759 309.348 76.2409C309.484 76.1058 309.645 75.999 309.822 75.9265C309.999 75.854 310.189 75.8172 310.381 75.8184Z" fill="#FDB797"/>
<path opacity="0.1" d="M308.962 82.8628C314.435 84.9074 320.46 84.9243 325.944 82.9105V80.8242H308.962V82.8628Z" fill="black"/>
<path d="M317.483 83.9945C330.926 83.9945 341.824 73.1004 341.824 59.6618C341.824 46.2232 330.926 35.3291 317.483 35.3291C304.041 35.3291 293.143 46.2232 293.143 59.6618C293.143 73.1004 304.041 83.9945 317.483 83.9945Z" fill="#FDB797"/>
<path opacity="0.1" d="M300.146 37.5282C300.146 37.5282 310.403 58.3477 339.342 46.2551L332.604 35.6935L320.659 31.4082L300.146 37.5282Z" fill="black"/>
<path d="M300.146 37.224C300.146 37.224 310.403 58.0434 339.342 45.9508L332.604 35.3849L320.659 31.0996L300.146 37.224Z" fill="#333333"/>
<path d="M300.055 35.8148C300.742 33.675 301.932 31.731 303.526 30.1459C308.298 25.4138 316.165 24.4162 320.191 19.0205C320.41 19.4022 320.547 19.8255 320.592 20.2632C320.637 20.7009 320.591 21.1433 320.454 21.5618C320.318 21.9803 320.096 22.3656 319.802 22.6929C319.507 23.0202 319.148 23.2822 318.746 23.462C322.599 23.436 327.072 23.0976 329.255 19.9227C329.794 21.177 329.966 22.5586 329.751 23.9069C329.536 25.2551 328.942 26.5147 328.04 27.5391C331.459 27.6953 335.108 30.0158 335.329 33.4293C335.476 35.7021 334.049 37.8577 332.179 39.1633C330.309 40.4688 328.048 41.0674 325.818 41.5575C319.332 42.9932 295.811 49.0005 300.055 35.8148Z" fill="#333333"/>
<path d="M293.13 63.8861C294.381 63.8861 295.395 61.985 295.395 59.6398C295.395 57.2947 294.381 55.3936 293.13 55.3936C291.879 55.3936 290.865 57.2947 290.865 59.6398C290.865 61.985 291.879 63.8861 293.13 63.8861Z" fill="#FDB797"/>
<path d="M341.824 63.8861C343.075 63.8861 344.089 61.985 344.089 59.6398C344.089 57.2947 343.075 55.3936 341.824 55.3936C340.573 55.3936 339.559 57.2947 339.559 59.6398C339.559 61.985 340.573 63.8861 341.824 63.8861Z" fill="#FDB797"/>
</g>
<defs>
<linearGradient id="paint0_linear" x1="101.032" y1="194.593" x2="101.032" y2="8.22461" gradientUnits="userSpaceOnUse">
<stop stop-color="#808080" stop-opacity="0.25"/>
<stop offset="0.54" stop-color="#808080" stop-opacity="0.12"/>
<stop offset="1" stop-color="#808080" stop-opacity="0.1"/>
</linearGradient>
<linearGradient id="paint1_linear" x1="61282.9" y1="102246" x2="61282.9" y2="22167.6" gradientUnits="userSpaceOnUse">
<stop stop-color="#808080" stop-opacity="0.25"/>
<stop offset="0.54" stop-color="#808080" stop-opacity="0.12"/>
<stop offset="1" stop-color="#808080" stop-opacity="0.1"/>
</linearGradient>
<linearGradient id="paint2_linear" x1="82194.1" y1="79059.6" x2="82194.1" y2="50059.4" gradientUnits="userSpaceOnUse">
<stop stop-color="#808080" stop-opacity="0.25"/>
<stop offset="0.54" stop-color="#808080" stop-opacity="0.12"/>
<stop offset="1" stop-color="#808080" stop-opacity="0.1"/>
</linearGradient>
<linearGradient id="paint3_linear" x1="82465.5" y1="29000" x2="82465.5" y2="-0.181641" gradientUnits="userSpaceOnUse">
<stop stop-color="#808080" stop-opacity="0.25"/>
<stop offset="0.54" stop-color="#808080" stop-opacity="0.12"/>
<stop offset="1" stop-color="#808080" stop-opacity="0.1"/>
</linearGradient>
<clipPath id="clip0">
<rect width="374" height="322" fill="white"/>
</clipPath>
</defs>
</svg>
