<svg width="100" height="66" viewBox="0 0 100 66" fill="none" xmlns="http://www.w3.org/2000/svg">
<path d="M17.5488 56.6233H20.49V59.5644H17.5488V56.6233Z" fill="white"/>
<path d="M88.2343 6.53052H79.3126V9.47169H85.2931V50.5422H14.7048V9.47169H70.4891V6.53052H11.7637V53.4834H88.2343V6.53052Z" fill="white"/>
<path d="M73.4316 6.53052H76.3727V9.4717H73.4316V6.53052Z" fill="white"/>
<path d="M94.0592 56.6233V0.645996H5.94077V56.6233H0V65.3539H100V56.6233H94.0592ZM97.0588 62.4127H2.94117V59.5645H14.6078V56.6233H8.88194V3.58717H91.1181V56.6233H23.4313V59.5645H97.0588V62.4127Z" fill="white"/>
<path d="M49.9351 14.4471L47.5128 12.3477H26.4707V44.7641H46.4581L50.0306 47.5307L53.3728 44.7641H73.3986V12.3479H52.5147L49.9351 14.4471ZM70.4574 15.289V41.8231H52.3136L49.9694 43.7635L47.4638 41.8231H29.4119V15.289H46.4157L49.8757 18.2874L53.5602 15.289H70.4574Z" fill="white"/>
<path d="M48.5312 21.1379H51.4724V38.785H48.5312V21.1379Z" fill="white"/>
<path d="M32.2559 21.1714H44.0206V24.1126H32.2559V21.1714Z" fill="white"/>
<path d="M32.2559 26.9875H44.0206V29.9287H32.2559V26.9875Z" fill="white"/>
<path d="M32.2559 33.0007H44.0206V35.9419H32.2559V33.0007Z" fill="white"/>
<path d="M55.7812 21.1714H67.546V24.1126H55.7812V21.1714Z" fill="white"/>
<path d="M55.7812 26.9875H67.546V29.9287H55.7812V26.9875Z" fill="white"/>
<path d="M55.7812 33.0007H67.546V35.9419H55.7812V33.0007Z" fill="white"/>
<path d="M17.5488 12.3147H20.49V15.2559H17.5488V12.3147Z" fill="white"/>
<path d="M17.5488 18.1973H20.49V21.1385H17.5488V18.1973Z" fill="white"/>
</svg>