<svg width="100" height="100" viewBox="0 0 100 100" fill="none" xmlns="http://www.w3.org/2000/svg">
<path d="M42.3096 38.2676C43.1186 38.2676 43.7744 37.6117 43.7744 36.8027V24.1906C43.7744 23.3816 43.1186 22.7258 42.3096 22.7258C41.5006 22.7258 40.8447 23.3816 40.8447 24.1906V36.8027C40.8447 37.6117 41.5006 38.2676 42.3096 38.2676ZM50.8051 37.1037C51.0529 37.8012 51.7143 38.2676 52.4535 38.2676H52.4654C53.2096 38.2625 53.8703 37.7857 54.1133 37.0715L58.2313 24.6756C58.4863 23.9078 58.0707 23.0787 57.3029 22.8236C56.535 22.5684 55.7061 22.9842 55.451 23.752L52.4291 32.8482L49.2572 23.7102C48.992 22.9459 48.1572 22.5418 47.393 22.8066C46.6287 23.0719 46.2242 23.9066 46.4895 24.6709L50.8051 37.1037ZM62.4047 38.2676H67.6703C68.4793 38.2676 69.1352 37.6117 69.1352 36.8027C69.1352 35.9937 68.4793 35.3379 67.6703 35.3379H63.8695V32.0191H67.2822C68.0912 32.0191 68.7471 31.3633 68.7471 30.5543C68.7471 29.7453 68.0912 29.0895 67.2822 29.0895H63.8695V25.7707H67.6703C68.4793 25.7707 69.1352 25.1148 69.1352 24.3059C69.1352 23.4969 68.4793 22.841 67.6703 22.841H62.4047C61.5957 22.841 60.9398 23.4969 60.9398 24.3059V36.8027C60.9398 37.6117 61.5957 38.2676 62.4047 38.2676ZM24.8066 5.85938C23.9977 5.85938 23.3418 6.51523 23.3418 7.32422C23.3418 8.1332 23.9977 8.78906 24.8066 8.78906C25.6156 8.78906 26.2715 8.1332 26.2715 7.32422C26.2715 6.51523 25.6156 5.85938 24.8066 5.85938ZM36.5254 5.85938C35.7164 5.85938 35.0605 6.51523 35.0605 7.32422C35.0605 8.1332 35.7164 8.78906 36.5254 8.78906C37.3344 8.78906 37.9902 8.1332 37.9902 7.32422C37.9902 6.51523 37.3344 5.85938 36.5254 5.85938ZM30.666 5.85938C29.857 5.85938 29.2012 6.51523 29.2012 7.32422C29.2012 8.1332 29.857 8.78906 30.666 8.78906C31.475 8.78906 32.1309 8.1332 32.1309 7.32422C32.1309 6.51523 31.475 5.85938 30.666 5.85938ZM75.1934 51.9746H45.9715C45.3447 49.9406 43.4479 48.458 41.2109 48.458C38.974 48.458 37.0771 49.9406 36.4504 51.9746H24.8066C23.9977 51.9746 23.3418 52.6305 23.3418 53.4394C23.3418 54.2484 23.9977 54.9043 24.8066 54.9043H36.451C37.0783 56.9373 38.9748 58.4189 41.2109 58.4189C43.4471 58.4189 45.3436 56.9373 45.9709 54.9043H75.1934C76.0023 54.9043 76.6582 54.2484 76.6582 53.4394C76.6582 52.6305 76.0023 51.9746 75.1934 51.9746ZM41.2109 55.4893C40.0801 55.4893 39.1602 54.5693 39.1602 53.4385C39.1602 52.3076 40.0801 51.3877 41.2109 51.3877C42.3418 51.3877 43.2617 52.3076 43.2617 53.4385C43.2617 54.5693 42.3418 55.4893 41.2109 55.4893ZM92.6758 8.40625H82.5176V3.80859C82.5176 1.70859 80.809 0 78.709 0H21.291C19.191 0 17.4824 1.70859 17.4824 3.80859V8.40625H7.32422C3.28555 8.40625 0 11.6918 0 15.7305V70.8906C0 74.9293 3.28555 78.2148 7.32422 78.2148H41.5787L40.4631 86.5068H38.8309C37.4756 86.5068 36.276 87.4189 35.9137 88.725L33.8506 96.1635C33.5955 97.0828 33.7807 98.0457 34.358 98.8049C34.9355 99.5643 35.8139 99.9998 36.7678 99.9998H63.232C64.1859 99.9998 65.0643 99.5643 65.6418 98.8049C66.2193 98.0455 66.4043 97.0828 66.1492 96.1635L64.0861 88.7248C63.7238 87.4187 62.5242 86.5066 61.1689 86.5066H59.5367L58.4211 78.2147H92.6758C96.7145 78.2147 100 74.9291 100 70.8904V15.7305C100 11.6918 96.7145 8.40625 92.6758 8.40625ZM82.5176 17.1953H91.2109V66.4961H82.5176V17.1953ZM20.4121 14.6484H36.4502C37.2592 14.6484 37.915 13.9926 37.915 13.1836C37.915 12.3746 37.2592 11.7188 36.4502 11.7188H20.4121V3.80859C20.4121 3.32402 20.8064 2.92969 21.291 2.92969H78.709C79.1936 2.92969 79.5879 3.32402 79.5879 3.80859V11.7188H43.2861C42.4771 11.7188 41.8213 12.3746 41.8213 13.1836C41.8213 13.9926 42.4771 14.6484 43.2861 14.6484H79.5879V66.4961H20.4121V14.6484ZM61.1691 89.4365C61.2129 89.4365 61.2516 89.466 61.2633 89.508L63.3264 96.9465C63.3451 96.9936 63.2824 97.0758 63.2322 97.0703H36.7678C36.7174 97.0758 36.6547 96.9943 36.6736 96.9465L38.7367 89.508C38.7484 89.4658 38.7871 89.4363 38.8309 89.4363H48.49C49.299 89.4363 49.9549 88.7805 49.9549 87.9715C49.9549 87.1625 49.299 86.5066 48.49 86.5066H43.4191L44.5348 78.2147H55.465L56.5807 86.5066H55.3258C54.5168 86.5066 53.8609 87.1625 53.8609 87.9715C53.8609 88.7805 54.5168 89.4363 55.3258 89.4363H61.1691V89.4365ZM97.0703 70.8906C97.0703 73.3139 95.099 75.2852 92.6758 75.2852H7.32422C4.90098 75.2852 2.92969 73.3139 2.92969 70.8906V15.7305C2.92969 13.3072 4.90098 11.3359 7.32422 11.3359H17.4824V14.2656H8.10547C6.86699 14.2656 5.85938 15.2732 5.85938 16.5117V67.1797C5.85938 68.4182 6.86699 69.4258 8.10547 69.4258H91.8945C93.133 69.4258 94.1406 68.4182 94.1406 67.1797V16.5117C94.1406 15.2732 93.133 14.2656 91.8945 14.2656H82.5176V11.3359H92.6758C95.099 11.3359 97.0703 13.3072 97.0703 15.7305V70.8906ZM17.4824 17.1953V66.4961H8.78906V17.1953H17.4824ZM32.0818 38.2359C32.1863 38.2539 35.3221 38.265 36.7543 38.257C37.5633 38.2525 38.2154 37.593 38.2109 36.784C38.2064 35.9777 37.5516 35.3273 36.7463 35.3273H36.7379C35.7205 35.333 34.6281 35.3371 33.7945 35.3379V24.1906C33.7945 23.3816 33.1387 22.7258 32.3297 22.7258C31.5207 22.7258 30.8648 23.3816 30.8648 24.1906V36.7922C30.8648 37.5055 31.3787 38.1152 32.0818 38.2359Z" fill="#3A3A3A"/>
</svg>
