<svg width="100" height="100" viewBox="0 0 100 100" fill="none" xmlns="http://www.w3.org/2000/svg">
<g clip-path="url(#clip0)">
<path d="M96.6371 3.48716C95.5183 1.93286 93.7803 0.976025 91.8687 0.862158C91.7412 0.854736 91.6142 0.85083 91.4879 0.85083C88.6314 0.85083 86.1162 2.77837 85.3715 5.53794L79.5342 27.1622C77.8474 33.4104 72.1494 37.7741 65.6775 37.7741H57.1293C56.2369 37.2745 55.6392 36.1381 55.6392 35.1159V29.6137H49.9056H44.1719V35.1159C44.1719 36.1381 43.574 37.2745 42.6818 37.7741H34.4267C27.9547 37.7741 22.2566 33.4102 20.5701 27.1622L14.8541 5.98872C14.0396 2.97153 11.2881 0.864502 8.16307 0.864502C6.2828 0.864502 4.54862 1.72056 3.40545 3.21333C2.26209 4.7061 1.88749 6.60337 2.37752 8.4188L11.8502 43.5104C12.8795 47.3229 15.084 50.6024 18.2256 52.9936C24.1777 57.5245 28.2746 64.2075 29.7617 71.8122L32.3306 84.9477C32.7103 86.8901 34.4224 88.2997 36.4013 88.2997H63.7025C65.6814 88.2997 67.3935 86.8899 67.7732 84.9477L70.342 71.8122C71.8291 64.2075 75.926 57.5245 81.8781 52.9936C85.0199 50.6022 87.2244 47.3231 88.2535 43.5104L97.6119 8.84282C98.1111 6.99341 97.7556 5.04145 96.6371 3.48716Z" fill="#FED9A8"/>
<path d="M96.6371 3.48716C95.5184 1.93286 93.7803 0.976025 91.8688 0.862158C91.7412 0.854736 91.6143 0.85083 91.4879 0.85083C91.0436 0.85083 90.6092 0.902588 90.1867 0.991846C90.1553 1.16372 90.1189 1.33521 90.0728 1.50552L80.7145 36.1731C79.6853 39.9858 77.4809 43.2651 74.3391 45.6563C68.3871 50.1872 64.2902 56.8702 62.8029 64.4749L58.0586 88.2995H63.7025C65.6814 88.2995 67.3936 86.8897 67.7732 84.9475L70.342 71.812C71.8291 64.2073 75.926 57.5243 81.8781 52.9934C85.0199 50.602 87.2244 47.3229 88.2535 43.5102L97.6119 8.84263C98.1111 6.99341 97.7557 5.04146 96.6371 3.48716Z" fill="#F4C28C"/>
<path d="M62.5185 18.789H61.7195V17.8508V15.608C61.7195 12.4414 60.4195 9.37283 58.0199 7.30662C56.1386 5.68669 53.4939 4.27263 50.0006 4.23376C46.5072 4.27283 43.8627 5.68669 41.9812 7.30662C39.5816 9.37283 38.2816 12.4414 38.2816 15.608V17.8508V18.789H37.4826C36.3113 18.789 35.3617 19.7386 35.3617 20.9099V23.2603C35.3617 24.4316 36.3113 25.3812 37.4826 25.3812H38.2847C38.3508 28.4593 39.6443 31.4222 41.9812 33.4344C43.8627 35.0543 46.5072 36.4683 50.0006 36.5072C53.4939 36.4681 56.1385 35.0543 58.0199 33.4344C60.3568 31.4222 61.6504 28.4593 61.7164 25.3812H62.5185C63.6898 25.3812 64.6394 24.4316 64.6394 23.2603V20.9099C64.6394 19.7386 63.6898 18.789 62.5185 18.789Z" fill="#FED9A8"/>
<path d="M62.5186 18.7891H61.7195V17.8508V15.608C61.7195 12.4414 60.4195 9.37288 58.0199 7.30667C57.3328 6.71487 56.5432 6.15159 55.6477 5.67249L55.6453 25.3813C55.5793 28.4594 54.2858 31.4223 51.9488 33.4346C50.6578 34.5463 49.007 35.5608 46.9695 36.1006C47.8988 36.3467 48.9074 36.4953 50.0008 36.5074C53.4942 36.4686 56.1389 35.0545 58.0201 33.4346C60.357 31.4225 61.6506 28.4596 61.7166 25.3813H62.5188C63.6902 25.3813 64.6397 24.4317 64.6397 23.2604V20.91C64.6395 19.7387 63.6899 18.7891 62.5186 18.7891Z" fill="#F4C28C"/>
<path d="M56.9867 3.53564H50.0004H43.014C39.4187 3.53564 36.5043 6.4501 36.5043 10.0454V19.0278C36.5043 19.0278 38.2969 18.9872 39.4488 20.1272C39.6886 20.3647 40.0965 20.1911 40.0965 19.8536V12.8138C40.0965 11.2247 41.3847 9.93643 42.9738 9.93643H45.5883C46.274 9.93643 46.9386 10.1735 47.4695 10.6075L47.7259 10.8171C48.3677 11.3419 49.1713 11.6284 50.0004 11.6284C50.8295 11.6284 51.633 11.3417 52.2748 10.8171L52.5312 10.6075C53.0621 10.1735 53.7267 9.93643 54.4125 9.93643H57.0269C58.616 9.93643 59.9043 11.2247 59.9043 12.8138V19.8538C59.9043 20.1913 60.3119 20.3647 60.5519 20.1274C61.7039 18.9874 63.4964 19.028 63.4964 19.028V10.0456C63.4964 6.4501 60.582 3.53564 56.9867 3.53564Z" fill="#FFB125"/>
<path d="M56.9867 3.53564H54.3896V9.9374C54.3973 9.9374 54.4049 9.93643 54.4125 9.93643H57.027C58.616 9.93643 59.9043 11.2247 59.9043 12.8138V19.8538C59.9043 20.1913 60.3119 20.3647 60.552 20.1274C61.7039 18.9874 63.4965 19.028 63.4965 19.028V10.0456C63.4965 6.4501 60.582 3.53564 56.9867 3.53564Z" fill="#FF901D"/>
<path d="M79.3543 27.7723C77.4711 33.6926 71.9366 37.7743 65.6776 37.7743H57.4377L56.7535 38.5374C53.1664 42.5383 46.9059 42.5579 43.294 38.5791L42.5633 37.7743H34.4264C28.1543 37.7743 22.6092 33.6756 20.7375 27.7356L8.88538 32.527L11.8502 43.5102C12.8795 47.3227 15.084 50.6022 18.2256 52.9934C24.1778 57.5243 28.2746 64.2073 29.7617 71.812L32.3307 84.9475C32.7104 86.8899 34.4225 88.2995 36.4014 88.2995H63.7026C65.6864 88.2995 67.3926 86.8946 67.7733 84.9477L70.342 71.812C71.8291 64.2073 75.926 57.5243 81.8782 52.9934C85.0199 50.602 87.2244 47.3229 88.2535 43.5102L91.2082 32.5645L79.3543 27.7723Z" fill="#2D5872"/>
<path d="M79.3543 27.7723C77.4711 33.6926 71.9366 37.7743 65.6776 37.7743H57.4377L56.7535 38.5374C53.1664 42.5383 46.9059 42.5579 43.294 38.5791L42.5633 37.7743H34.4264C28.1543 37.7743 22.6092 33.6756 20.7375 27.7356L8.88538 32.527L11.8502 43.5102C12.8795 47.3227 15.084 50.6022 18.2256 52.9934C24.1778 57.5243 28.2746 64.2073 29.7617 71.812L32.3307 84.9475C32.7104 86.8899 34.4225 88.2995 36.4014 88.2995H63.7026C65.6864 88.2995 67.3926 86.8946 67.7733 84.9477L70.342 71.812C71.8291 64.2073 75.926 57.5243 81.8782 52.9934C85.0199 50.602 87.2244 47.3229 88.2535 43.5102L91.2082 32.5645L79.3543 27.7723Z" fill="#2D5872"/>
<path d="M67.7734 84.9474L70.3422 71.8119C71.8293 64.2072 75.9262 57.5242 81.8783 52.9933C85.0201 50.6019 87.2246 47.3228 88.2537 43.5101L91.2084 32.5644L82.6254 29.0945L80.7144 36.1732C79.6853 39.9859 77.4809 43.2652 74.3391 45.6564C68.3871 50.1873 64.2902 56.8703 62.8029 64.4749L58.0586 88.2994H63.7025C65.6814 88.2994 67.3936 86.8898 67.7734 84.9474Z" fill="#1D4859"/>
<path d="M98.8125 92.8365C65.9819 79.3833 33.2668 109.393 0.433612 95.2703C0.0732602 95.1152 -0.0939273 94.698 0.0533383 94.3343C0.958612 92.0998 1.85138 89.8599 2.73283 87.6158C2.79201 87.465 2.79904 87.2988 2.75275 87.1435C1.90197 84.2865 1.05803 81.4275 0.220331 78.5667C0.0502133 77.9859 0.627166 77.4595 1.18732 77.689C34.0184 91.1419 66.7336 61.132 99.5662 75.2552C99.9266 75.4103 100.094 75.8275 99.9465 76.1912C99.0412 78.4257 98.1485 80.6654 97.267 82.9093C97.2078 83.0601 97.2008 83.2263 97.2471 83.3816C98.0979 86.2386 98.9418 89.0976 99.7795 91.9587C99.9496 92.5396 99.3727 93.066 98.8125 92.8365Z" fill="#FF4C4C"/>
<path d="M97.8107 85.2908C65.9195 73.0718 34.1352 101.026 2.24356 88.8527C1.52071 90.6829 0.792389 92.5109 0.0535214 94.3347C-0.0937442 94.6984 0.0734433 95.1156 0.433795 95.2706C33.2668 109.394 65.9818 79.3837 98.8127 92.8369C99.3727 93.0664 99.9496 92.54 99.7797 91.9591C99.1285 89.7347 98.4699 87.5126 97.8107 85.2908Z" fill="#EA2828"/>
<path d="M65.6776 37.7743H61.417L49.9961 55.3256L38.5754 37.7743H34.4264C34.1098 37.7743 33.7957 37.761 33.483 37.7405L48.2151 60.3805C48.6073 60.9831 49.2774 61.3465 49.9961 61.3465C50.7149 61.3465 51.385 60.9831 51.7772 60.3805L66.5047 37.7475C66.2303 37.7633 65.9549 37.7743 65.6776 37.7743Z" fill="#E1EFFB"/>
<path d="M50 67.0251C53.3253 67.0251 56.0211 64.3294 56.0211 61.004C56.0211 57.6786 53.3253 54.9829 50 54.9829C46.6746 54.9829 43.9789 57.6786 43.9789 61.004C43.9789 64.3294 46.6746 67.0251 50 67.0251Z" fill="#FD9727"/>
<path d="M55.6391 35.1159V35.0737C54.0854 35.905 52.2139 36.4825 50.0004 36.5073C49.3733 36.5003 48.7746 36.4476 48.2018 36.3587V40.4788C48.2018 40.7813 48.2553 41.0938 48.3524 41.397C51.3393 41.9472 54.5504 40.9944 56.7535 38.5372L57.4377 37.7741H57.1293C56.2369 37.2745 55.6391 36.1382 55.6391 35.1159Z" fill="#F4C28C"/>
</g>
<defs>
<clipPath id="clip0">
<rect width="100" height="100" fill="white"/>
</clipPath>
</defs>
</svg>