<svg width="100" height="100" viewBox="0 0 100 100" fill="none" xmlns="http://www.w3.org/2000/svg">
<g clip-path="url(#clip0)">
<path d="M60.8528 61.2708C58.7455 60.8474 57.2295 58.4028 57.2295 56.2534V46.6753H47.2483H47.2481H37.2668V56.2534C37.2668 58.4028 35.7508 60.8472 33.6436 61.2708L31.2115 61.9573V78.0935H47.2479H47.2481H63.2844V61.9573L60.8528 61.2708Z" fill="#FED9A8"/>
<path d="M48.1227 46.6755V62.0455C48.1227 64.1949 49.6387 66.6392 51.7459 67.0628L63.285 70.9898V61.9576L60.853 61.271C58.7457 60.8476 57.2297 58.4031 57.2297 56.2537V46.6755H48.1227Z" fill="#F4C28C"/>
<path d="M78.7939 64.9321L63.48 60.6355C63.2575 60.573 63.0193 60.606 62.822 60.7265L47.2482 70.2368L31.6745 60.7265C31.4773 60.6062 31.239 60.5731 31.0165 60.6355L15.7027 64.9321C7.55989 67.3296 1.96887 74.804 1.96887 83.2925V96.2126C1.96887 98.3044 3.66457 100 5.75637 100H88.7402C90.832 100 92.5277 98.3044 92.5277 96.2126V83.2925C92.5277 74.804 86.9368 67.3296 78.7939 64.9321Z" fill="#E9EAEB"/>
<path d="M78.794 64.9321L63.4802 60.6355C63.2577 60.573 63.0194 60.606 62.8222 60.7265L60.3013 62.2659L69.8046 64.9323C77.9474 67.3298 83.5384 74.8042 83.5384 83.2927V100H88.7403C90.8321 100 92.5278 98.3044 92.5278 96.2126V83.2925C92.5278 74.804 86.937 67.3296 78.794 64.9321Z" fill="#D5D8DB"/>
<path d="M67.2649 24.3902H65.9874V22.8898V19.3037C65.9874 14.2402 63.9087 9.33354 60.0716 6.02964C57.0634 3.43921 52.8346 1.17827 47.2485 1.11597C41.6626 1.17827 37.4339 3.43921 34.4255 6.02964C30.5884 9.33354 28.5096 14.2402 28.5096 19.3037V22.8898V24.3902H27.2321C25.3591 24.3902 23.8407 25.9085 23.8407 27.7816V31.54C23.8407 33.413 25.3591 34.9314 27.2321 34.9314H28.5147C28.6204 39.8535 30.6887 44.5912 34.4255 47.8085C37.4339 50.3988 41.6626 52.6599 47.2485 52.7222C52.8344 52.6599 57.0632 50.399 60.0716 47.8085C63.8083 44.591 65.8766 39.8535 65.9823 34.9314H67.2649C69.138 34.9314 70.6563 33.413 70.6563 31.54V27.7816C70.6563 25.9085 69.138 24.3902 67.2649 24.3902Z" fill="#FED9A8"/>
<path d="M67.2649 24.3902H65.9873V19.3037C65.9873 14.2402 63.9086 9.33354 60.0715 6.02964C57.0633 3.43921 52.8346 1.17827 47.2485 1.11597C45.6137 1.13413 44.0963 1.34175 42.6907 1.68979C46.0883 2.53081 48.8278 4.19722 50.9557 6.02964C54.7928 9.33354 56.8715 14.2402 56.8715 19.3037L56.8664 34.9314C56.7608 39.8535 54.6924 44.5912 50.9557 47.8085C48.8278 49.6408 46.0883 51.3072 42.6907 52.1484C44.0963 52.4964 45.6139 52.7041 47.2485 52.7222C52.8344 52.6599 57.0631 50.399 60.0715 47.8085C63.8082 44.591 65.8766 39.8535 65.9823 34.9314H67.2649C69.1379 34.9314 70.6563 33.413 70.6563 31.54V27.7818C70.6563 25.9085 69.1379 24.3902 67.2649 24.3902Z" fill="#F4C28C"/>
<path d="M55.7335 0H47.2485H38.7635C31.5311 0 25.6682 5.86289 25.6682 13.0953V24.7721C25.6682 24.7721 28.5346 24.7072 30.3764 26.5301C30.76 26.9098 31.412 26.6324 31.412 26.0926V22.643C31.412 21.7061 32.1704 20.9463 33.1073 20.9408C50.0286 20.8398 53.7428 12.4805 54.4356 10.2348C59.2126 10.2348 63.085 14.1072 63.085 18.8842V26.0928C63.085 26.6324 63.737 26.9098 64.1206 26.5303C65.9626 24.7074 68.8288 24.7723 68.8288 24.7723V13.0953C68.8288 5.86289 62.9659 0 55.7335 0Z" fill="#FF901D"/>
<path d="M55.7334 0H47.2484H46.6097C53.4687 0 59.0924 5.27441 59.6551 11.9881C61.7385 13.5674 63.0849 16.0682 63.0849 18.8842V26.0928C63.0849 26.6324 63.7369 26.9098 64.1205 26.5303C65.9623 24.7074 68.8287 24.7723 68.8287 24.7723V13.0953C68.8287 5.86289 62.9658 0 55.7334 0Z" fill="#FF6D3A"/>
<path d="M36.5366 75.5039C37.3893 76.373 38.7514 76.483 39.7325 75.7619L47.2485 70.2367L31.6749 60.7263C31.4776 60.606 31.2393 60.573 31.0168 60.6353L23.9075 62.63L36.5366 75.5039Z" fill="#B9BBC1"/>
<path d="M57.9603 75.5039C57.1076 76.373 55.7455 76.483 54.7644 75.7619L47.2484 70.2367L62.8221 60.7263C63.0193 60.606 63.2576 60.573 63.4801 60.6353L70.5894 62.63L57.9603 75.5039Z" fill="#B9BBC1"/>
<path d="M16.1258 81.4839C15.292 81.4839 14.6165 82.1597 14.6165 82.9933V99.9999H17.6354V82.9933C17.6352 82.1597 16.9594 81.4839 16.1258 81.4839Z" fill="#B9BBC1"/>
<g clip-path="url(#clip1)">
<path d="M90.2404 70.1799H71.2986C66.4795 70.1799 62.6433 66.1432 62.8887 61.3302L63.8576 42.3303C64.2187 35.2462 70.0681 29.6875 77.1616 29.6875H84.3774C91.4709 29.6875 97.3202 35.2462 97.6815 42.3304L98.6503 61.3303C98.8957 66.1432 95.0596 70.1799 90.2404 70.1799Z" fill="#FF901D"/>
<path d="M98.6502 61.3302L97.6814 42.3303C97.32 35.2462 91.4708 29.6875 84.3773 29.6875H79.4005C86.494 29.6875 92.3432 35.2462 92.7046 42.3304L93.6734 61.3303C93.9188 66.1433 90.0827 70.1801 85.2635 70.1801H90.2403C95.0595 70.1799 98.8956 66.1432 98.6502 61.3302Z" fill="#FF6D3A"/>
<path d="M110.444 84.6912C109.422 80.3167 106.125 76.7195 101.676 75.4097L90.3357 72.2003C88.8539 71.9024 87.7879 70.1836 87.7879 68.6722V61.937H80.7693H80.7692H73.7507V68.6722C73.7507 70.1836 72.6846 71.9024 71.203 72.2003L59.8625 75.4097C55.4137 76.7195 52.1167 80.3167 51.0948 84.6912H110.444Z" fill="#FED9A8"/>
<path d="M82.8301 61.9372V72.3564C82.8301 73.8679 83.8962 75.5867 85.3778 75.8846L96.7183 79.0939C99.8329 80.011 102.382 82.0501 103.982 84.6912H110.444C109.422 80.3167 106.125 76.7195 101.676 75.4097L90.3358 72.2003C88.854 71.9024 87.7881 70.1836 87.7881 68.6722V61.937L82.8301 61.9372Z" fill="#F4C28C"/>
<path d="M102.952 75.3409L99.174 74.0716C98.6943 73.9104 98.163 74.0584 97.8403 74.4482C95.3458 77.4606 89.6814 82.82 80.7694 83.1238C71.8575 82.82 66.193 77.4606 63.6986 74.4482C63.3759 74.0584 62.8445 73.9105 62.3649 74.0716L58.5871 75.3409C52.8613 77.0268 48.9298 82.2827 48.9298 88.2517V97.3368C48.9298 98.8078 50.1222 100 51.593 100H109.946C111.417 100 112.609 98.8076 112.609 97.3367V88.2515C112.609 82.2827 108.678 77.0268 102.952 75.3409Z" fill="#A567DB"/>
<path d="M102.952 75.3409L99.174 74.0716C98.6943 73.9104 98.163 74.0584 97.8402 74.4482C97.0646 75.3848 95.9822 76.5483 94.5914 77.7162L97.9513 78.845C103.677 80.5309 107.609 83.9741 107.609 89.943V100H109.946C111.417 100 112.609 98.8076 112.609 97.3367V88.2515C112.609 82.2827 108.678 77.0268 102.952 75.3409Z" fill="#9054D1"/>
<path d="M95.0606 46.6948H94.1485C94.1485 46.1882 93.7604 45.7663 93.2557 45.721C81.0996 44.6272 77.1036 41.2207 73.7875 37.7809C73.1974 37.1689 67.4817 39.5821 67.3901 45.1926V46.695H66.4779C65.1406 46.695 64.0564 47.779 64.0564 49.1165V51.7999C64.0564 53.1372 65.1405 54.2213 66.4778 54.2213H67.3936C67.469 57.7355 69.9517 61.1181 72.6197 63.4153C74.7677 65.2647 76.7809 66.879 80.7692 66.9235C84.7575 66.879 86.7709 65.2647 88.9187 63.4153C91.5866 61.1181 94.0694 57.7355 94.1448 54.2213H95.0606C96.3979 54.2213 97.4822 53.1372 97.4822 51.7998V49.1163C97.4822 47.7789 96.3981 46.6948 95.0606 46.6948Z" fill="#FED9A8"/>
<path d="M95.0607 46.6947H94.1485C94.1485 46.1881 93.7604 45.7663 93.2557 45.7209C91.7948 45.5895 90.453 45.4243 89.2148 45.23C89.2174 45.6696 89.2152 54.2211 89.2152 54.2211C89.1398 57.7353 86.6572 61.1179 83.9892 63.4151C82.3357 64.8388 80.761 66.1224 78.3044 66.6585C79.0389 66.8188 79.8513 66.9131 80.7692 66.9233C84.7575 66.8788 86.7709 65.2645 88.9187 63.4151C91.5866 61.1179 94.0694 57.7353 94.1448 54.2211H95.0607C96.398 54.2211 97.4822 53.137 97.4822 51.7995V49.1161C97.4822 47.7788 96.398 46.6947 95.0607 46.6947Z" fill="#F4C28C"/>
<path d="M58.8843 86.98C58.298 86.98 57.8229 87.4551 57.8229 88.0414V100H59.9457V88.0414C59.9457 87.4553 59.4706 86.98 58.8843 86.98Z" fill="#9054D1"/>
</g>
</g>
<defs>
<clipPath id="clip0">
<rect width="100" height="100" fill="white"/>
</clipPath>
<clipPath id="clip1">
<rect width="70.3125" height="70.3125" fill="white" transform="translate(47.2656 29.6875)"/>
</clipPath>
</defs>
</svg>