<svg width="100" height="100" viewBox="0 0 100 100" fill="none" xmlns="http://www.w3.org/2000/svg">
<g clip-path="url(#clip0)">
<path d="M67.3417 24.1061C67.146 23.7969 66.8055 23.6094 66.4397 23.6094H49.9999H33.5601C33.1941 23.6094 32.8538 23.7969 32.6581 24.1061L24.8831 36.3896C24.6415 36.7715 24.6664 37.264 24.9453 37.6195L49.1601 68.4864C49.5874 69.0314 50.4126 69.0314 50.8399 68.4864L75.0547 37.6195C75.3336 37.264 75.3584 36.7715 75.1168 36.3896L67.3417 24.1061Z" fill="#10C4C4"/>
<path d="M32.6581 24.1061L32.5253 24.316L24.8832 36.3896C24.7601 36.5841 24.707 36.8072 24.7205 37.0265H75.2793C75.293 36.8074 75.2399 36.5841 75.1166 36.3896L67.4745 24.316L67.3417 24.1061C67.146 23.7969 66.8055 23.6094 66.4397 23.6094H49.9999H33.5601C33.1943 23.6094 32.8538 23.7969 32.6581 24.1061Z" fill="#21D8DE"/>
<path d="M49.9341 23.6094L41.3876 37.0257H49.9999H58.4807L49.9341 23.6094Z" fill="#25F2F2"/>
<path d="M58.4807 37.0258L75.2793 37.0266C75.286 36.9188 75.2762 36.8102 75.2502 36.7044C75.2497 36.7024 75.2497 36.7005 75.2493 36.6987C75.2373 36.6512 75.2207 36.6049 75.2022 36.5591C75.1997 36.5528 75.1983 36.5462 75.1956 36.5399C75.1735 36.4885 75.1473 36.4383 75.1166 36.3899L73.5416 33.9014L68.4778 25.9013L67.3417 24.1062C67.3169 24.0669 67.2897 24.0298 67.2604 23.9946C67.2571 23.9907 67.2532 23.9874 67.2499 23.9835C67.2233 23.9524 67.1956 23.9226 67.1659 23.8952C67.1653 23.8946 67.1645 23.894 67.1639 23.8935C67.0977 23.8325 67.0245 23.7802 66.9458 23.7378L58.4807 37.0258Z" fill="#25F2F2"/>
<path d="M75.2794 37.0266C75.2794 37.0266 75.2794 37.0264 75.2794 37.0266C75.286 36.9188 75.2762 36.81 75.2503 36.7043C75.2503 36.7041 75.2503 36.7041 75.2503 36.7039C75.2499 36.7022 75.2497 36.7002 75.2493 36.6985C75.2374 36.651 75.2208 36.6047 75.2022 36.5588C75.1997 36.5526 75.1983 36.5459 75.1958 36.5397C75.1737 36.4883 75.1475 36.4381 75.1169 36.3897L73.6946 34.1426L71.9563 31.3963L68.478 25.901L67.3419 24.1059C67.3171 24.0666 67.2899 24.0295 67.2606 23.9944C67.2579 23.9911 67.255 23.9883 67.252 23.9852C67.2514 23.9844 67.2507 23.9838 67.2499 23.9829C67.2233 23.952 67.1958 23.9221 67.1661 23.8948C67.1659 23.8946 67.1655 23.8944 67.1653 23.8942C67.1647 23.8936 67.1641 23.8932 67.1636 23.8928C67.0975 23.8321 67.0243 23.7797 66.9458 23.7375L62.8806 30.1192L66.636 36.0524C66.8237 36.349 66.8485 36.7119 66.7204 37.026L75.2794 37.0266Z" fill="#21D8DE"/>
<path d="M33.054 23.7378C32.895 23.8233 32.7577 23.9487 32.6581 24.1062L29.9273 28.4206L24.8832 36.3897C24.7601 36.5842 24.707 36.8073 24.7205 37.0266L41.5191 37.0258L33.054 23.7378Z" fill="#25F2F2"/>
<path d="M41.5191 37.0266H24.7205C24.7334 37.2379 24.8084 37.4458 24.9453 37.6204L49.1601 68.4873C49.3333 68.7082 49.5722 68.8379 49.8232 68.8797L41.5191 37.0266Z" fill="#21D8DE"/>
<path d="M75.0546 37.6196C75.0889 37.5758 75.1192 37.5297 75.146 37.4823C75.1688 37.4413 75.1878 37.3985 75.2048 37.3553C75.2073 37.3489 75.211 37.3428 75.2135 37.3364C75.2508 37.2368 75.2727 37.1327 75.2794 37.0276C75.2794 37.0272 75.2796 37.0268 75.2796 37.0264L58.4151 37.0256L50.1755 68.8791C50.2929 68.8597 50.4072 68.8203 50.5138 68.7621C50.5236 68.7568 50.5335 68.7517 50.5431 68.7461C50.5605 68.7359 50.5773 68.7246 50.5941 68.7133C50.6093 68.7031 50.6243 68.6926 50.6392 68.6816C50.653 68.6713 50.6665 68.6607 50.68 68.6496C50.698 68.6346 50.7155 68.6187 50.7327 68.6023C50.7427 68.5928 50.753 68.5838 50.7626 68.5738C50.7894 68.5463 50.8155 68.5176 50.84 68.4863L66.1893 48.9201L75.0546 37.6196Z" fill="#21D8DE"/>
<path d="M75.0545 37.6194C75.0889 37.5757 75.1192 37.5296 75.1459 37.4821C75.1686 37.4415 75.1872 37.3993 75.2041 37.3565C75.2049 37.3546 75.2059 37.3528 75.2067 37.3509C75.209 37.346 75.2116 37.3413 75.2135 37.3362C75.2506 37.2368 75.2725 37.1329 75.2791 37.028C75.2791 37.0274 75.2793 37.0269 75.2793 37.0263L66.7202 37.0259C66.6835 37.1161 66.6358 37.2028 66.5737 37.2821L54.3022 52.9249L50.1753 68.879C50.2927 68.8596 50.4069 68.8202 50.5136 68.762C50.5204 68.7582 50.5272 68.7545 50.5341 68.7508C50.537 68.7491 50.5399 68.7477 50.5429 68.7461C50.5601 68.736 50.5769 68.7247 50.5937 68.7135C50.6089 68.7032 50.6241 68.6928 50.639 68.6817C50.6526 68.6713 50.6663 68.6608 50.6796 68.6497C50.6864 68.644 50.6927 68.6377 50.6993 68.6319C50.7104 68.6221 50.7216 68.6125 50.7325 68.6022C50.7425 68.5928 50.7528 68.5836 50.7624 68.5737C50.7892 68.5461 50.8153 68.5174 50.8395 68.4862L66.1889 48.92L75.0545 37.6194Z" fill="#10C4C4"/>
<path d="M62.8803 30.1193L66.944 23.7404C66.8688 23.7 66.7907 23.6652 66.7075 23.6436C66.621 23.6211 66.5311 23.6094 66.4397 23.6094H58.7346C58.7809 23.6584 58.8241 23.7107 58.861 23.7688L62.8803 30.1193Z" fill="#10C4C4"/>
<path d="M49.2864 68.6197C49.2419 68.5795 49.1989 68.5365 49.1604 68.4873C49.1991 68.5365 49.2419 68.5797 49.2864 68.6197Z" fill="#0BB2AD"/>
<path d="M49.4302 68.7269C49.3954 68.705 49.3618 68.6812 49.3292 68.655C49.3618 68.6812 49.3954 68.7052 49.4302 68.7269Z" fill="#0BB2AD"/>
<path d="M49.5964 68.8118C49.5577 68.7961 49.5194 68.7795 49.4825 68.759C49.5194 68.7793 49.5575 68.7965 49.5964 68.8118Z" fill="#0BB2AD"/>
<path d="M49.7687 68.865C49.756 68.8622 49.7437 68.8585 49.731 68.8552C49.7435 68.8583 49.756 68.8622 49.7687 68.865Z" fill="#0BB2AD"/>
<path d="M45.6273 63.9834L45.781 64.1795L45.6273 63.9834Z" fill="#0BB2AD"/>
<path d="M47.8186 61.1899L49.8216 68.8729C49.9392 68.8915 50.0593 68.8928 50.177 68.8727L54.3022 52.9253L47.8186 61.1899Z" fill="#0BB2AD"/>
<path d="M49.8231 68.8788L49.8216 68.8728C49.804 68.87 49.7862 68.8685 49.7687 68.8647C49.787 68.8688 49.8046 68.8757 49.8231 68.8788Z" fill="#21D8DE"/>
<path d="M49.731 68.8549C49.6853 68.8436 49.6406 68.8291 49.5964 68.8115C49.6404 68.8295 49.6853 68.8432 49.731 68.8549Z" fill="#21D8DE"/>
<path d="M45.781 64.1792L49.1601 68.4864L49.1605 68.487L49.1601 68.4864L45.781 64.1792Z" fill="#21D8DE"/>
<path d="M49.3292 68.6549C49.3148 68.6434 49.3003 68.6319 49.2864 68.6194C49.3003 68.6319 49.3148 68.6432 49.3292 68.6549Z" fill="#21D8DE"/>
<path d="M49.4823 68.759C49.4646 68.7493 49.4476 68.7377 49.4302 68.7268C49.4476 68.7377 49.4646 68.7491 49.4823 68.759Z" fill="#21D8DE"/>
<path d="M45.6273 63.9833L45.781 64.1794L49.1599 68.4867C49.1601 68.4869 49.1603 68.4871 49.1603 68.4872C49.1989 68.5365 49.2417 68.5796 49.2862 68.6197C49.3001 68.6322 49.3146 68.6435 49.329 68.6552C49.3614 68.6816 49.3952 68.7052 49.43 68.7271C49.4474 68.738 49.4644 68.7496 49.4821 68.7593C49.519 68.7796 49.5573 68.7962 49.596 68.8121C49.6401 68.8294 49.6849 68.8441 49.7306 68.8554C49.7431 68.8587 49.7556 68.8624 49.7683 68.8652C49.7858 68.8689 49.8036 68.8705 49.8212 68.8732L47.8183 61.1902L45.6273 63.9833Z" fill="#10C4C4"/>
<path d="M7.63612 21.584C10.1588 18.8316 12.8025 16.3549 15.7133 14.0555C16.0556 13.7851 16.5484 14.1088 16.4338 14.5297C14.8023 20.5263 11.9517 26.4525 7.55721 30.858C7.35995 27.7738 7.35702 24.6638 7.63612 21.584Z" fill="#FFB125"/>
<path d="M7.5576 30.8603C5.0205 27.7986 2.84042 24.6331 0.875779 21.2156C0.65117 20.8247 0.0537098 20.9642 0.0308583 21.4144C-0.323438 28.415 2.35136 36.6062 8.86795 39.9099C8.21854 36.9327 7.75057 33.9032 7.5576 30.8603Z" fill="#FFB125"/>
<path d="M8.86757 39.9076C10.4642 36.6225 12.2515 33.5658 14.3463 30.603C14.5949 30.2514 15.1521 30.4125 15.1703 30.8426C15.4256 36.8899 14.3879 43.2824 11.4902 48.5908C10.4164 45.7654 9.51015 42.8633 8.86757 39.9076Z" fill="#FFB125"/>
<path d="M11.491 48.5931C8.19666 46.4759 5.1871 44.1607 2.30039 41.5605C1.96738 41.2605 1.44492 41.5738 1.55781 42.0074C3.29687 48.6941 8.2701 55.556 15.3507 56.7679C13.8789 54.1394 12.5603 51.4115 11.491 48.5931Z" fill="#FFB125"/>
<path d="M15.3496 56.7659C15.9267 53.1817 16.7521 49.7628 17.9011 46.3446C18.0379 45.938 18.615 45.9302 18.7582 46.3345C20.7677 52.0079 21.5818 58.4085 20.3693 64.2907C18.5265 61.9055 16.8214 59.3987 15.3496 56.7659Z" fill="#FFB125"/>
<path d="M20.3709 64.2927C16.6154 63.2289 13.0678 61.8982 9.55389 60.2674C9.14803 60.0789 8.7412 60.5305 8.97518 60.9121C12.5879 66.8035 19.3515 71.9045 26.4755 71.0254C24.2886 68.9302 22.222 66.6922 20.3709 64.2927Z" fill="#FFB125"/>
<path d="M26.4738 71.0237C25.9613 67.4126 25.7437 63.8907 25.8443 60.2704C25.8562 59.8413 26.4068 59.6653 26.6615 60.0108C30.2597 64.8891 32.9439 70.8149 33.5863 76.8227C31.0843 75.0645 28.682 73.1424 26.4738 71.0237Z" fill="#FFB125"/>
<path d="M92.3637 21.584C89.841 18.8316 87.1973 16.3549 84.2866 14.0555C83.9442 13.7851 83.4514 14.1088 83.5661 14.5297C85.1975 20.5263 88.0481 26.4525 92.4426 30.858C92.6399 27.7738 92.6428 24.6638 92.3637 21.584Z" fill="#FFB125"/>
<path d="M92.4422 30.8603C94.9793 27.7986 97.1594 24.6331 99.124 21.2156C99.3486 20.8247 99.9461 20.9642 99.9689 21.4144C100.323 28.415 97.6484 36.6062 91.1318 39.9099C91.7812 36.9327 92.2492 33.9032 92.4422 30.8603Z" fill="#FFB125"/>
<path d="M91.1322 39.9076C89.5356 36.6225 87.7483 33.5658 85.6535 30.603C85.4049 30.2514 84.8477 30.4125 84.8295 30.8426C84.5742 36.8899 85.6119 43.2824 88.5096 48.5908C89.5834 45.7654 90.4897 42.8633 91.1322 39.9076Z" fill="#FFB125"/>
<path d="M88.5088 48.5931C91.8031 46.4759 94.8127 44.1607 97.6994 41.5605C98.0324 41.2605 98.5549 41.5738 98.442 42.0074C96.7029 48.6941 91.7297 55.556 84.649 56.7679C86.1209 54.1394 87.4395 51.4115 88.5088 48.5931Z" fill="#FFB125"/>
<path d="M84.6502 56.7659C84.0731 53.1817 83.2477 49.7628 82.0987 46.3446C81.962 45.938 81.3848 45.9302 81.2417 46.3345C79.2321 52.0079 78.418 58.4085 79.6305 64.2907C81.4733 61.9055 83.1784 59.3987 84.6502 56.7659Z" fill="#FFB125"/>
<path d="M79.629 64.2927C83.3844 63.2289 86.9321 61.8982 90.4459 60.2674C90.852 60.0789 91.2586 60.5305 91.0248 60.9121C87.4122 66.8035 80.6485 71.9045 73.5245 71.0254C75.7112 68.9302 77.7778 66.6922 79.629 64.2927Z" fill="#FFB125"/>
<path d="M73.526 71.0237C74.0385 67.4126 74.2561 63.8907 74.1555 60.2704C74.1436 59.8413 73.593 59.6653 73.3383 60.0108C69.7401 64.8891 67.0559 70.8149 66.4135 76.8227C68.9155 75.0645 71.3178 73.1424 73.526 71.0237Z" fill="#FFB125"/>
<path d="M93.8162 21.7073C93.8157 21.6776 93.8162 21.6481 93.8141 21.6182C93.4692 17.027 92.6229 12.4245 91.2987 7.93878C91.0627 7.13937 90.2229 6.68254 89.4241 6.91867C88.6246 7.1546 88.1678 7.99386 88.4037 8.79327C89.6549 13.0314 90.4575 17.377 90.7926 21.7118C90.7934 21.7442 90.7936 21.7766 90.7965 21.8095C91.0508 24.612 91.0762 27.6489 90.8723 30.8362C90.8721 30.8374 90.8719 30.8387 90.8719 30.8399C90.6965 33.6073 90.267 36.5706 89.5957 39.6475C89.5957 39.6477 89.5955 39.6481 89.5955 39.6483C89.0112 42.3364 88.1514 45.1809 87.0409 48.103C87.0405 48.1039 87.0403 48.1047 87.0399 48.1057V48.1059C86.0662 50.6719 84.8014 53.3498 83.2807 56.0654C81.9399 58.4637 80.2952 60.9289 78.3917 63.3928C78.3913 63.3932 78.3911 63.3938 78.3907 63.3941C78.3903 63.3945 78.3899 63.3949 78.3897 63.3953C76.7026 65.5818 74.703 67.7867 72.4462 69.9492L72.446 69.9494C70.4348 71.8791 68.1051 73.7779 65.5212 75.5937C65.5118 75.6004 65.5036 75.608 65.4944 75.6146C65.4856 75.6211 65.4762 75.6265 65.4677 75.6332C61.1208 78.973 58.9181 79.806 56.586 80.6875C54.739 81.3859 52.8534 82.1005 50.0003 84.0025C47.1472 82.1005 45.2616 81.3859 43.4146 80.6875C41.0825 79.8058 38.8798 78.973 34.5329 75.6332C34.5244 75.6265 34.515 75.6213 34.5062 75.6148C34.497 75.608 34.4886 75.6004 34.4792 75.5937C31.8953 73.7781 29.5656 71.8791 27.5544 69.9494L27.5542 69.9492C25.2974 67.7869 23.2978 65.5818 21.6107 63.3953C21.6103 63.3949 21.6099 63.3945 21.6097 63.3941C21.6093 63.3938 21.6091 63.3932 21.6087 63.3928C19.7052 60.9289 18.0603 58.4637 16.7197 56.0654C15.1988 53.3498 13.9342 50.6719 12.9605 48.1059C12.9605 48.1057 12.9605 48.1057 12.9603 48.1057C12.9599 48.1047 12.9597 48.1039 12.9594 48.103C11.8484 45.1809 10.9888 42.3364 10.4043 39.6483C10.4043 39.6479 10.4041 39.6477 10.4041 39.6475C9.7326 36.5706 9.3033 33.6071 9.12791 30.8399C9.12772 30.8385 9.12752 30.8374 9.12752 30.8362C8.92362 27.6491 8.94901 24.612 9.2033 21.8095C9.20623 21.7766 9.20643 21.7442 9.20721 21.7118C9.54236 17.377 10.3449 13.0315 11.5961 8.79327C11.832 7.99386 11.3752 7.1546 10.5758 6.91867C9.77713 6.68214 8.93709 7.13937 8.70116 7.93878C7.37694 12.4245 6.53065 17.027 6.18573 21.6182C6.18339 21.6481 6.18397 21.6776 6.18358 21.7073C5.92968 24.6165 5.90565 27.7509 6.11561 31.029C6.11561 31.0298 6.11561 31.0303 6.11561 31.0311C6.30077 33.9477 6.75116 37.0606 7.45389 40.2834C7.45428 40.2856 7.45448 40.2877 7.45487 40.2899C8.07127 43.1237 8.97362 46.1129 10.1373 49.1744C10.1377 49.1752 10.1379 49.176 10.1381 49.1768C11.164 51.8801 12.4914 54.6928 14.0838 57.5365C14.0842 57.5371 14.0843 57.5377 14.0847 57.5383C15.498 60.0662 17.2257 62.6568 19.2203 65.2381C19.2205 65.2383 19.2207 65.2385 19.2209 65.2387C19.2211 65.2389 19.2211 65.2389 19.2211 65.2391C21 67.5447 23.1013 69.8629 25.4669 72.1295C25.4675 72.1301 25.4683 72.1306 25.4689 72.1312C27.5828 74.159 30.022 76.1486 32.7191 78.0455C37.4031 81.6414 39.9165 82.5918 42.3468 83.5107C43.8595 84.0826 45.3319 84.6404 47.3704 85.8941C45.8099 87.0902 44.0025 88.591 41.8579 90.5097C41.2368 91.0654 41.1837 92.0195 41.7396 92.6406C42.0376 92.9738 42.4503 93.1435 42.8648 93.1435C43.223 93.1435 43.5825 93.0167 43.8704 92.7589C46.3571 90.5337 48.3446 88.9076 49.9999 87.6845C51.655 88.9076 53.6425 90.5337 56.1294 92.7589C56.4173 93.0165 56.7769 93.1435 57.1351 93.1435C57.5495 93.1435 57.9622 92.9738 58.2602 92.6406C58.8161 92.0195 58.7632 91.0654 58.1419 90.5097C55.9976 88.5908 54.1899 87.09 52.6294 85.8941C54.6677 84.6404 56.1403 84.0826 57.653 83.5107C60.0835 82.5919 62.5968 81.6414 67.2807 78.0455C69.9778 76.1486 72.4171 74.159 74.5309 72.1312C74.5315 72.1306 74.5323 72.1301 74.5329 72.1295C76.8985 69.8629 78.9999 67.5447 80.7788 65.2391C80.7788 65.2389 80.779 65.2389 80.779 65.2387C80.7792 65.2385 80.7794 65.2383 80.7795 65.2381C82.7741 62.6568 84.5018 60.0662 85.9151 57.5383C85.9155 57.5377 85.9157 57.5371 85.9161 57.5365C87.5082 54.6928 88.8358 51.8801 89.8617 49.1768C89.8619 49.176 89.8623 49.1752 89.8625 49.1744C91.0262 46.1129 91.9285 43.1237 92.5449 40.2899C92.5453 40.2877 92.5455 40.2856 92.5459 40.2834C93.2489 37.0606 93.699 33.9477 93.8842 31.0311C93.8842 31.0303 93.8842 31.0298 93.8842 31.029C94.0942 27.7509 94.0703 24.6165 93.8162 21.7073Z" fill="#FD9727"/>
</g>
<defs>
<clipPath id="clip0">
<rect width="100" height="100" fill="white"/>
</clipPath>
</defs>
</svg>