<svg width="374" height="275" viewBox="0 0 374 275" fill="none" xmlns="http://www.w3.org/2000/svg">
<g clip-path="url(#clip0)">
<path d="M374 266.817C372.801 277.717 309.878 276.802 309.973 266.816C311.172 255.917 374.095 256.832 374 266.817Z" fill="#E6E6E6"/>
<path d="M330.775 238.846L328.224 244.373L323.548 243.948L320.572 234.17L325.248 231.619L330.775 238.846Z" fill="#FFB8B8"/>
<path d="M346.829 251.575L346.93 255.426L339.703 255.851V251.175L346.829 251.575Z" fill="#FFB8B8"/>
<path d="M344.379 181.454L342.678 215.464L346.93 252.45L334.176 254.15L326.099 207.387L323.548 175.502L344.379 181.454Z" fill="#2F2E41"/>
<path d="M364.36 169.125C364.36 169.125 369.461 202.71 358.833 213.763C348.205 224.817 333.751 244.372 333.751 244.372L323.548 231.619L349.48 203.986L344.379 185.28L323.548 175.502L326.949 152.12L357.558 151.695L364.36 169.125Z" fill="#2F2E41"/>
<path d="M339.277 91.3275C344.443 91.3275 348.63 87.1402 348.63 81.9748C348.63 76.8094 344.443 72.6221 339.277 72.6221C334.112 72.6221 329.925 76.8094 329.925 81.9748C329.925 87.1402 334.112 91.3275 339.277 91.3275Z" fill="#FFB8B8"/>
<path d="M347.355 84.1006C347.355 84.1006 347.78 97.2794 349.906 98.9799C352.031 100.68 342.253 107.908 342.253 107.908L335.876 97.7045V88.3518L347.355 84.1006Z" fill="#FFB8B8"/>
<path d="M343.104 101.956L348.265 94.1621L351.181 98.1297L355.432 110.033L352.031 156.371L332.05 156.797L329.5 103.656L335.876 96.0041L343.104 101.956Z" fill="#D0CDE1"/>
<path d="M321.422 104.932L318.021 104.507C318.021 104.507 317.171 104.932 316.746 107.908C316.321 110.884 311.219 137.241 311.219 137.241L318.021 169.551L325.673 159.348L320.997 141.493L325.673 123.637L321.422 104.932Z" fill="#2F2E41"/>
<path d="M364.785 104.507H367.335L373.712 138.942L367.761 165.725L361.809 155.947L363.509 145.319L362.659 135.966L359.683 130.439L364.785 104.507Z" fill="#2F2E41"/>
<path d="M326.949 242.672C326.949 242.672 329.499 241.821 329.499 243.522C329.499 245.222 327.799 250.324 327.799 250.324C327.799 250.324 330.35 266.054 326.524 265.203C322.697 264.353 319.722 257.126 319.296 255C318.871 252.875 316.746 241.821 316.746 241.821C316.746 241.821 313.345 233.744 315.47 233.319C317.596 232.894 323.548 231.193 323.548 231.193C323.548 231.193 320.147 241.821 326.949 242.672Z" fill="#2F2E41"/>
<path d="M339.277 255.851C339.277 255.851 346.079 251.599 347.355 255C348.2 257.481 348.771 260.047 349.055 262.653C349.055 262.653 350.756 268.179 343.954 267.329C337.152 266.479 338.002 266.479 337.577 263.928C337.152 261.377 339.277 255.851 339.277 255.851Z" fill="#2F2E41"/>
<path d="M344.804 81.9753L343.103 81.5502C343.103 81.5502 341.828 74.3231 338.852 75.1733C335.876 76.0236 328.224 76.8738 328.224 73.4728C328.224 70.0718 335.451 67.096 339.702 67.5211C343.954 67.9462 351.181 69.2216 350.756 75.5984C350.331 81.9753 347.587 88.1786 347.587 88.1786L347.366 84.3978L344.804 81.9753Z" fill="#2F2E41"/>
<path d="M335.876 107.057L343.104 101.955L335.876 96.0039L333.367 99.0149L335.876 107.057Z" fill="#D0CDE1"/>
<path d="M349.48 106.632L343.104 101.956L348.205 94.3037L351.181 98.1297L349.48 106.632Z" fill="#D0CDE1"/>
<path d="M318.446 104.506L332.05 98.9798L335.239 96.6416L344.804 138.941L351.181 119.811L349.268 95.3662L366.91 104.506L360.959 133.415L360.108 144.468L362.659 153.396C362.659 153.396 371.587 159.772 368.611 166.574C365.635 173.376 362.234 173.802 362.234 173.802C362.234 173.802 347.78 160.198 346.93 156.797C346.079 153.396 344.804 147.444 344.804 147.444C344.804 147.444 337.577 174.652 329.074 174.227C320.572 173.802 320.572 164.874 320.572 164.874L322.698 155.521L326.099 145.743L324.398 129.589L318.446 104.506Z" fill="#2F2E41"/>
<path d="M296.494 0.167969H0.126465V189.975H296.494V0.167969Z" fill="#E6E6E6"/>
<path d="M288.019 23.9746H8.60107V96.3305H288.019V23.9746Z" fill="white"/>
<path d="M137.194 34.4258H78.1038V37.8178H137.194V34.4258Z" fill="#E6E6E6"/>
<path d="M169.353 46.7988H78.1038V50.1909H169.353V46.7988Z" fill="#0B5F73"/>
<path d="M152.47 58.4561H78.1038V61.8481H152.47V58.4561Z" fill="#E6E6E6"/>
<path d="M121.517 70.0693H78.1038V73.4614H121.517V70.0693Z" fill="#E6E6E6"/>
<path d="M143.626 81.6826H78.1038V85.0746H143.626V81.6826Z" fill="#E6E6E6"/>
<path d="M58.4067 33.2197H51.1711V40.4553H58.4067V33.2197Z" fill="#E6E6E6"/>
<path d="M58.4067 44.877H51.1711V52.1125H58.4067V44.877Z" fill="#0B5F73"/>
<path d="M58.4067 56.5352H51.1711V63.7708H58.4067V56.5352Z" fill="#E6E6E6"/>
<path d="M58.4067 68.1924H51.1711V75.428H58.4067V68.1924Z" fill="#E6E6E6"/>
<path d="M58.4067 79.8496H51.1711V87.0852H58.4067V79.8496Z" fill="#E6E6E6"/>
<path d="M248.944 49.7012H224.825V73.8198H248.944V49.7012Z" fill="#E6E6E6"/>
<path d="M288.019 106.38H8.60107V178.736H288.019V106.38Z" fill="white"/>
<path d="M70.8682 112.811H63.6326V120.046H70.8682V112.811Z" fill="#E6E6E6"/>
<path d="M58.4067 112.811H51.1711V120.046H58.4067V112.811Z" fill="#0B5F73"/>
<path d="M173.852 128.633C171.646 124.899 168.586 121.742 164.923 119.422C161.26 117.101 157.099 115.683 152.781 115.284C148.463 114.885 144.112 115.517 140.086 117.127C136.06 118.738 132.473 121.28 129.621 124.547L127.858 123.006C130.953 119.46 134.846 116.699 139.216 114.951C143.586 113.202 148.309 112.516 152.996 112.949C157.683 113.382 162.2 114.921 166.176 117.441C170.152 119.96 173.473 123.387 175.867 127.44L173.852 128.633Z" fill="#E6E6E6"/>
<path d="M174.955 159.138L173.012 157.831C175.89 153.539 177.496 148.52 177.645 143.353C177.793 138.187 176.478 133.084 173.852 128.633L175.867 127.44C178.719 132.272 180.147 137.812 179.985 143.421C179.824 149.029 178.08 154.478 174.955 159.138V159.138Z" fill="#0B5F73"/>
<path d="M128.102 162.401C123.262 156.995 120.565 150.006 120.52 142.75C120.475 135.494 123.085 128.472 127.858 123.007L129.621 124.548C125.224 129.583 122.82 136.051 122.862 142.736C122.903 149.42 125.387 155.858 129.846 160.838L128.102 162.401Z" fill="#0B5F73"/>
<path d="M150.259 172.305C146.077 172.302 141.943 171.418 138.126 169.712C134.308 168.005 130.893 165.514 128.102 162.4L129.846 160.838C132.63 163.948 136.088 166.381 139.957 167.952C143.825 169.522 148 170.187 152.165 169.897C156.329 169.607 160.372 168.369 163.985 166.278C167.599 164.187 170.686 161.298 173.012 157.831L174.955 159.138C172.237 163.192 168.561 166.514 164.254 168.81C159.947 171.107 155.14 172.307 150.259 172.305Z" fill="#0B5F73"/>
<path d="M248.944 128.488H224.825V152.607H248.944V128.488Z" fill="#E6E6E6"/>
<path d="M74.2849 144.166H50.1663V168.285H74.2849V144.166Z" fill="#E6E6E6"/>
<path d="M296.367 0H0V12.5908H296.367V0Z" fill="#0B5F73"/>
<path d="M9.35655 8.77072C10.6454 8.77072 11.6902 7.72593 11.6902 6.43712C11.6902 5.1483 10.6454 4.10352 9.35655 4.10352C8.06774 4.10352 7.02295 5.1483 7.02295 6.43712C7.02295 7.72593 8.06774 8.77072 9.35655 8.77072Z" fill="white"/>
<path d="M18.2142 8.77072C19.503 8.77072 20.5478 7.72593 20.5478 6.43712C20.5478 5.1483 19.503 4.10352 18.2142 4.10352C16.9254 4.10352 15.8806 5.1483 15.8806 6.43712C15.8806 7.72593 16.9254 8.77072 18.2142 8.77072Z" fill="white"/>
<path d="M27.0719 8.77072C28.3607 8.77072 29.4055 7.72593 29.4055 6.43712C29.4055 5.1483 28.3607 4.10352 27.0719 4.10352C25.7831 4.10352 24.7383 5.1483 24.7383 6.43712C24.7383 7.72593 25.7831 8.77072 27.0719 8.77072Z" fill="white"/>
</g>
<defs>
<clipPath id="clip0">
<rect width="374" height="274.652" fill="white"/>
</clipPath>
</defs>
</svg>
