<svg width="374" height="206" viewBox="0 0 374 206" fill="none" xmlns="http://www.w3.org/2000/svg">
<g clip-path="url(#clip0)">
<path d="M69.6866 106.798C69.6866 145.056 38.6698 176.072 0.412109 176.072V37.5234C38.6698 37.5234 69.6866 68.5403 69.6866 106.798Z" fill="#3F3D56"/>
<path d="M304.313 106.798C304.313 145.056 335.33 176.072 373.587 176.072V37.5234C335.33 37.5234 304.313 68.5403 304.313 106.798Z" fill="#3F3D56"/>
<path d="M67.5932 29.1991C66.6146 29.1991 65.6579 28.9089 64.8441 28.3652C64.0304 27.8215 63.3962 27.0487 63.0217 26.1445C62.6472 25.2403 62.5492 24.2454 62.7401 23.2856C62.931 22.3257 63.4023 21.444 64.0943 20.752C64.7863 20.06 65.668 19.5887 66.6279 19.3978C67.5877 19.2069 68.5826 19.3049 69.4868 19.6794C70.391 20.0539 71.1638 20.6881 71.7075 21.5019C72.2512 22.3156 72.5414 23.2723 72.5414 24.2509C72.5399 25.5628 72.0181 26.8205 71.0904 27.7481C70.1628 28.6758 68.9051 29.1976 67.5932 29.1991ZM67.5932 20.1274C66.7777 20.1274 65.9804 20.3693 65.3023 20.8224C64.6242 21.2755 64.0957 21.9195 63.7836 22.6729C63.4715 23.4264 63.3899 24.2555 63.549 25.0554C63.7081 25.8552 64.1008 26.59 64.6775 27.1667C65.2542 27.7433 65.9889 28.1361 66.7888 28.2952C67.5886 28.4543 68.4177 28.3726 69.1712 28.0605C69.9247 27.7484 70.5687 27.2199 71.0218 26.5418C71.4748 25.8637 71.7167 25.0665 71.7167 24.2509C71.7155 23.1577 71.2806 22.1096 70.5076 21.3365C69.7346 20.5635 68.6865 20.1287 67.5932 20.1274Z" fill="#3F3D56"/>
<path d="M287.716 157.559H279.576V149.419H287.716V157.559ZM280.202 156.933H287.09V150.045H280.202L280.202 156.933Z" fill="#3F3D56"/>
<path d="M93.7657 150.169L88.2134 144.216L94.1661 138.664L99.7184 144.617L93.7657 150.169ZM89.0984 144.247L93.7965 149.284L98.8334 144.586L94.1353 139.549L89.0984 144.247Z" fill="#3F3D56"/>
<!-- <path d="M0 0V205.762H374V0H0ZM373.175 204.937H0.824694V0.824702H373.175V204.937Z" fill="#3F3D56"/> -->
<path d="M279.741 205.556C270.825 204.16 262.252 202.973 254.022 201.994L257.191 195.656C256.091 195.289 251.324 198.956 251.324 198.956L255.358 180.623C249.858 181.356 247.291 200.056 247.291 200.056L241.058 193.823L244.126 200.88C218.943 198.234 197.212 197.408 178.946 197.597L181.658 192.173C180.558 191.806 175.791 195.473 175.791 195.473L179.825 177.139C174.325 177.873 171.758 196.573 171.758 196.573L165.525 190.339L168.775 197.814C156.262 198.178 143.776 199.183 131.366 200.827C134.073 192.395 143.525 184.289 143.525 184.289C136.257 186.55 132.476 190.234 130.519 193.648C130.124 176.326 132.788 159.069 138.391 142.673C138.391 142.673 123.725 175.673 125.925 197.673L126.204 201.581C113.444 203.571 107.042 205.556 107.042 205.556H279.741Z" fill="#3F3D56"/>
<path opacity="0.3" d="M189.319 161.234C220.974 161.234 246.636 135.573 246.636 103.918C246.636 72.263 220.974 46.6016 189.319 46.6016C157.664 46.6016 132.003 72.263 132.003 103.918C132.003 135.573 157.664 161.234 189.319 161.234Z" fill="#0B5F73"/>
<path d="M165.781 31L127.619 77.3038L184.1 143.961L221.753 99.6929L165.781 31Z" fill="#0B5F73"/>
<path opacity="0.1" d="M165.781 31L127.619 77.3038L184.1 143.961L221.753 99.6929L165.781 31Z" fill="black"/>
<path d="M129.145 77.8137C129.989 76.2942 131.036 74.8966 132.257 73.6591L167.308 38.1245C167.308 38.1245 179.52 36.0891 182.064 42.1952L137.286 78.8314L129.145 77.8137Z" fill="#F2F2F2"/>
<path d="M127.364 77.0501L179.266 156.429C179.266 156.429 184.354 159.99 189.442 157.955L242.616 122.082L186.135 36.5977L135.251 76.2869L127.364 77.0501Z" fill="#0B5F73"/>
<path d="M179.789 48.9858L147.221 72.3887L147.702 73.0583L180.271 49.6555L179.789 48.9858Z" fill="#3F3D56"/>
<path d="M146.789 81.1476L146.102 81.6025L188.844 146.225L189.532 145.77L146.789 81.1476Z" fill="#3F3D56"/>
<path d="M228.628 122.254L194.036 147.706L194.524 148.37L229.117 122.918L228.628 122.254Z" fill="#3F3D56"/>
<path d="M185.964 50.1003L185.288 50.5713L229.556 114.176L230.233 113.705L185.964 50.1003Z" fill="#3F3D56"/>
<path d="M172.29 37.62L132.026 74.5732L132.37 74.9479L172.634 37.9946L172.29 37.62Z" fill="#3F3D56"/>
<path d="M175.644 37.9361L133.563 75.0859L133.9 75.4676L175.981 38.3178L175.644 37.9361Z" fill="#3F3D56"/>
<path d="M178.276 38.6771L134.592 75.0898L134.918 75.4809L178.602 39.0682L178.276 38.6771Z" fill="#3F3D56"/>
<path d="M360.392 106.798C358.05 105.93 355.145 104.447 353.343 102.877L354.613 106.386H331.94V107.211H354.613L353.343 110.72C355.145 109.15 358.05 107.667 360.392 106.798Z" fill="white"/>
<path d="M42.4721 106.386H19.7995L21.069 102.876C19.2678 104.446 16.362 105.929 14.02 106.798C16.362 107.666 19.2678 109.149 21.069 110.719L19.7995 107.21H42.4721V106.386Z" fill="white"/>
</g>
<defs>
<clipPath id="clip0">
<rect width="374" height="205.762" fill="white"/>
</clipPath>
</defs>
</svg>
