<svg width="374" height="298" viewBox="0 0 374 298" fill="none" xmlns="http://www.w3.org/2000/svg">
<g clip-path="url(#clip0)">
<path d="M278.99 293.61C273.813 289.236 270.668 282.326 271.493 275.599C272.318 268.872 277.425 262.687 284.05 261.259C290.676 259.83 298.228 263.785 300.24 270.257C301.348 257.779 302.624 244.779 309.258 234.153C315.264 224.532 325.668 217.648 336.943 216.416C348.219 215.184 360.09 219.836 367.122 228.736C374.154 237.635 375.876 250.573 370.951 260.79C367.323 268.317 360.639 273.919 353.635 278.476C331.005 293.077 303.862 299.015 277.202 295.197" fill="#F2F2F2"/>
<path d="M355.973 220.094C346.669 227.672 338.134 236.147 330.491 245.397C318.53 259.824 308.851 275.999 301.791 293.359C301.274 294.625 303.33 295.177 303.841 293.924C315.393 265.711 333.833 240.844 357.477 221.598C358.538 220.734 357.026 219.237 355.973 220.094Z" fill="white"/>
<path d="M91.4381 296.605H62.0788C61.0867 296.603 60.1356 296.209 59.4341 295.507C58.7326 294.806 58.338 293.855 58.3369 292.863V231.841C58.338 230.849 58.7326 229.898 59.4341 229.197C60.1356 228.495 61.0867 228.101 62.0788 228.1H91.4381C92.4301 228.101 93.3812 228.495 94.0827 229.197C94.7842 229.898 95.1788 230.849 95.1799 231.841V292.863C95.1788 293.855 94.7842 294.806 94.0827 295.507C93.3812 296.209 92.4301 296.603 91.4381 296.605Z" fill="#0B5F73"/>
<path d="M161.095 297.181H131.736C130.591 297.179 129.493 296.724 128.684 295.915C127.875 295.105 127.419 294.008 127.418 292.863V174.275C127.419 173.13 127.875 172.032 128.684 171.223C129.493 170.414 130.591 169.958 131.736 169.957H161.095C162.239 169.958 163.337 170.414 164.146 171.223C164.956 172.032 165.411 173.13 165.412 174.275V292.863C165.411 294.008 164.956 295.105 164.146 295.915C163.337 296.724 162.239 297.179 161.095 297.181ZM131.736 171.108C130.896 171.109 130.091 171.443 129.498 172.037C128.904 172.63 128.57 173.435 128.569 174.275V292.863C128.57 293.702 128.904 294.507 129.498 295.101C130.091 295.694 130.896 296.028 131.736 296.029H161.095C161.934 296.028 162.739 295.694 163.333 295.101C163.926 294.507 164.26 293.702 164.261 292.863V174.275C164.26 173.435 163.926 172.63 163.333 172.037C162.739 171.443 161.934 171.109 161.095 171.108H131.736Z" fill="#3F3D56"/>
<path d="M230.751 297.181H201.392C200.247 297.179 199.15 296.724 198.34 295.915C197.531 295.105 197.075 294.008 197.074 292.863V98.8615C197.075 97.7168 197.531 96.6193 198.34 95.8099C199.15 95.0005 200.247 94.5452 201.392 94.5439H230.751C231.896 94.5452 232.993 95.0005 233.803 95.8099C234.612 96.6193 235.067 97.7168 235.069 98.8615V292.863C235.067 294.008 234.612 295.105 233.803 295.915C232.993 296.724 231.896 297.179 230.751 297.181ZM201.392 95.6953C200.552 95.6962 199.748 96.0301 199.154 96.6237C198.56 97.2173 198.227 98.0221 198.226 98.8615V292.863C198.227 293.702 198.56 294.507 199.154 295.101C199.748 295.694 200.552 296.028 201.392 296.029H230.751C231.591 296.028 232.395 295.694 232.989 295.101C233.582 294.507 233.916 293.702 233.917 292.863V98.8615C233.916 98.0221 233.582 97.2173 232.989 96.6237C232.395 96.0301 231.591 95.6962 230.751 95.6953H201.392Z" fill="#3F3D56"/>
<path d="M301.057 296.892H271.698C270.706 296.891 269.755 296.496 269.053 295.795C268.352 295.093 267.957 294.142 267.956 293.15V19.7057C267.957 18.7137 268.352 17.7626 269.053 17.0611C269.755 16.3596 270.706 15.965 271.698 15.9639H301.057C302.049 15.965 303 16.3596 303.702 17.0611C304.403 17.7626 304.798 18.7137 304.799 19.7057V293.15C304.798 294.142 304.403 295.093 303.702 295.795C303 296.496 302.049 296.891 301.057 296.892Z" fill="#0B5F73"/>
<path d="M118.461 128.006C118.567 127.166 118.489 126.314 118.23 125.508C117.971 124.702 117.539 123.963 116.964 123.342C116.388 122.721 115.684 122.234 114.9 121.915C114.116 121.596 113.272 121.453 112.427 121.496L102.193 102.724L99.8906 110.783L106.902 127.987C107.067 129.403 107.746 130.708 108.81 131.656C109.874 132.604 111.248 133.129 112.673 133.131C114.098 133.133 115.474 132.613 116.541 131.668C117.608 130.724 118.291 129.421 118.461 128.006V128.006Z" fill="#A0616A"/>
<path d="M39.6152 202.126L45.315 206.288L64.079 186.281L55.6661 180.14L39.6152 202.126Z" fill="#A0616A"/>
<path d="M52.4443 219.606L34.5294 206.528L39.5826 199.606L50.5759 207.632C52.4116 208.972 53.6398 210.986 53.9902 213.232C54.3406 215.478 53.7845 217.771 52.4443 219.606L52.4443 219.606Z" fill="#2F2E41"/>
<path d="M69.7717 224.154L76.8294 224.153L80.1867 196.931L69.7705 196.931L69.7717 224.154Z" fill="#A0616A"/>
<path d="M90.4414 230.706L68.2603 230.707L68.2599 222.137L81.8711 222.137C84.144 222.136 86.3238 223.039 87.931 224.646C89.5383 226.253 90.4413 228.433 90.4414 230.706Z" fill="#2F2E41"/>
<path d="M90.9682 117.979C90.9682 117.979 94.4223 151.368 85.7872 174.395L79.4548 218.146H68.517L69.6684 166.335L65.6387 120.282C65.6387 120.282 73.6981 99.5573 90.9682 117.979Z" fill="#2F2E41"/>
<path d="M53.5501 120.281L65.0635 160.002L42.6123 195.694L53.8379 205.192L79.4553 165.183L71.9716 116.251L53.5501 120.281Z" fill="#2F2E41"/>
<path d="M82.9106 31.2098C90.7194 31.2098 97.0497 24.8796 97.0497 17.0707C97.0497 9.26193 90.7194 2.93164 82.9106 2.93164C75.1018 2.93164 68.7715 9.26193 68.7715 17.0707C68.7715 24.8796 75.1018 31.2098 82.9106 31.2098Z" fill="#A0616A"/>
<path d="M71.1077 36.5212C71.1077 36.5212 79.7428 30.7645 89.5292 43.4293L92.1198 123.16C92.1198 123.16 84.636 112.798 69.0929 122.584C53.5497 132.371 50.0957 121.433 50.0957 121.433C50.0957 121.433 39.1579 39.1117 71.1077 36.5212Z" fill="#CCCCCC"/>
<path d="M88.8325 43.2276C91.316 43.3618 93.6622 44.4097 95.4196 46.1696C97.177 47.9295 98.2216 50.2772 98.3523 52.7609L100.179 87.4675L112.268 120.281L105.36 126.038L82.9088 86.8918L78.3122 54.7157C78.1015 53.241 78.2205 51.7378 78.6604 50.3145C79.1003 48.8912 79.8503 47.5832 80.8564 46.4845C81.8625 45.3859 83.0997 44.5239 84.4789 43.9607C85.8581 43.3976 87.345 43.1472 88.8325 43.2276Z" fill="#CCCCCC"/>
<path d="M72.5214 27.6763C74.8329 30.1385 79.1256 28.8167 79.4268 25.453C79.4504 25.1918 79.4487 24.929 79.4217 24.6681C79.2662 23.1782 78.4054 21.8254 78.6116 20.2522C78.6582 19.8607 78.8041 19.4875 79.0354 19.1681C80.8773 16.7016 85.2012 20.2714 86.9395 18.0385C88.0055 16.6693 86.7525 14.5137 87.5705 12.9834C88.6501 10.9637 91.8478 11.96 93.8531 10.854C96.0842 9.62331 95.9508 6.20009 94.4821 4.11791C92.691 1.57862 89.5505 0.223632 86.4492 0.0283351C83.3479 -0.166962 80.268 0.671412 77.3726 1.79976C74.0829 3.08179 70.8207 4.8536 68.7962 7.74624C66.3343 11.264 66.0974 15.9933 67.3286 20.1067C68.0776 22.6089 70.6338 25.6656 72.5214 27.6763Z" fill="#2F2E41"/>
<path d="M373.314 296.936H0.685406C0.503959 296.936 0.330118 296.863 0.202001 296.735C0.0738844 296.606 0.00195312 296.432 0.00195312 296.251C0.00195312 296.069 0.0738844 295.895 0.202001 295.767C0.330118 295.638 0.503959 295.566 0.685406 295.565H373.314C373.496 295.566 373.67 295.638 373.798 295.767C373.926 295.895 373.998 296.069 373.998 296.251C373.998 296.432 373.926 296.606 373.798 296.735C373.67 296.863 373.496 296.936 373.314 296.936Z" fill="#3F3D56"/>
</g>
<defs>
<clipPath id="clip0">
<rect width="374" height="297.18" fill="white"/>
</clipPath>
</defs>
</svg>
