<svg width="374" height="276" viewBox="0 0 374 276" fill="none" xmlns="http://www.w3.org/2000/svg">
<g clip-path="url(#clip0)">
<path opacity="0.1" d="M217.297 41.2694C193.321 40.4386 170.484 32.6938 148.68 24.2275C126.875 15.7612 105.272 6.37815 81.8727 1.89015C66.82 -0.995942 49.6061 -1.39642 37.4792 6.66609C25.8058 14.4307 22.036 27.8484 20.0104 40.2764C18.4846 49.6364 17.5877 59.4729 21.7646 68.247C24.6672 74.327 29.8205 79.4405 33.385 85.2657C45.78 105.541 37.0258 130.54 23.5816 150.332C17.2931 159.619 9.96867 168.476 5.10667 178.362C0.244671 188.248 -2.00595 199.571 2.24706 209.652C6.46697 219.647 16.5153 227.154 27.401 232.433C49.5134 243.157 75.5709 246.228 100.98 247.966C157.229 251.798 213.776 250.143 270.17 248.489C291.041 247.87 312.002 247.244 332.535 244.017C343.934 242.227 355.704 239.383 363.978 232.516C374.486 223.798 377.091 209.036 370.048 198.095C358.239 179.762 325.582 175.208 317.327 155.531C312.783 144.702 317.45 132.638 324.053 122.593C338.218 101.043 361.962 82.1413 363.213 57.5102C364.074 40.5942 352.659 23.6517 335.011 15.6487C316.51 7.25854 290.859 8.31434 277.21 22.202C263.163 36.5033 238.466 42.0041 217.297 41.2694Z" fill="#0B5F73"/>
<path d="M219.826 250.179L155.286 249.352L155.475 247.697L158.596 220.392H215.275L219.445 247.697L219.763 249.766L219.826 250.179Z" fill="#D0D2D5"/>
<path opacity="0.1" d="M219.763 249.766H187.556L155.286 249.352L155.475 247.697H219.445L219.763 249.766Z" fill="black"/>
<path d="M230.169 248.111H144.529V250.18H230.169V248.111Z" fill="#D0D2D5"/>
<path d="M311.876 56.388C311.88 55.6808 311.744 54.9799 311.476 54.3252C311.209 53.6706 310.815 53.075 310.318 52.5725C309.82 52.07 309.229 51.6704 308.577 51.3966C307.924 51.1228 307.225 50.98 306.518 50.9766H67.353C66.6456 50.9796 65.9457 51.122 65.2933 51.3956C64.6409 51.6693 64.0488 52.0688 63.5509 52.5713C63.053 53.0739 62.659 53.6696 62.3913 54.3245C62.1237 54.9793 61.9878 55.6805 61.9913 56.388V201.354H311.876V56.388Z" fill="#444053"/>
<path d="M61.9912 199.915V216.894C61.9912 218.316 62.5561 219.68 63.5616 220.685C64.5672 221.691 65.9309 222.256 67.353 222.256H306.518C307.939 222.255 309.302 221.69 310.307 220.684C311.312 219.679 311.876 218.315 311.876 216.894V199.915H61.9912Z" fill="#D0D2D5"/>
<path opacity="0.1" d="M302.774 60.0781H72.334V190.399H302.774V60.0781Z" fill="#0B5F73"/>
<path d="M188.175 215.812C189.021 215.812 189.857 215.621 190.618 215.251C191.379 214.882 192.047 214.345 192.571 213.68C192.729 213.477 192.874 213.264 193.004 213.041L189.939 212.538L193.249 212.565C193.568 211.873 193.742 211.123 193.761 210.362C193.779 209.6 193.641 208.843 193.355 208.136L188.91 210.453L193.011 207.441C192.625 206.78 192.108 206.206 191.492 205.753C190.875 205.3 190.172 204.979 189.426 204.809C188.68 204.639 187.907 204.625 187.156 204.766C186.404 204.907 185.689 205.202 185.055 205.631C184.422 206.06 183.884 206.614 183.474 207.26C183.063 207.906 182.79 208.629 182.671 209.385C182.552 210.141 182.59 210.913 182.782 211.653C182.974 212.394 183.316 213.087 183.786 213.69C184.31 214.353 184.977 214.888 185.737 215.255C186.497 215.623 187.331 215.813 188.175 215.812Z" fill="#0B5F73"/>
<path opacity="0.1" d="M193.762 222.255L219.508 248.111L215.56 222.255H193.762Z" fill="black"/>
<path d="M229.497 83.5908H79.9631C79.4878 83.5908 79.1025 83.9761 79.1025 84.4514V173.417C79.1025 173.892 79.4878 174.278 79.9631 174.278H229.497C229.972 174.278 230.357 173.892 230.357 173.417V84.4514C230.357 83.9761 229.972 83.5908 229.497 83.5908Z" fill="white"/>
<path d="M302.841 60.0918H72.4834V67.7042H302.841V60.0918Z" fill="white"/>
<path d="M79.8379 61.415H73.7347C73.5921 61.415 73.4766 61.5306 73.4766 61.6732V65.7905C73.4766 65.9331 73.5921 66.0487 73.7347 66.0487H79.8379C79.9805 66.0487 80.096 65.9331 80.096 65.7905V61.6732C80.096 61.5306 79.9805 61.415 79.8379 61.415Z" fill="#0B5F73"/>
<path opacity="0.3" d="M221.561 61.415H152.44C152.334 61.415 152.248 61.501 152.248 61.607V65.8567C152.248 65.9627 152.334 66.0487 152.44 66.0487H221.561C221.667 66.0487 221.752 65.9627 221.752 65.8567V61.607C221.752 61.501 221.667 61.415 221.561 61.415Z" fill="#0B5F73"/>
<path d="M219.69 64.209H219.521L219.458 64.1561C219.671 63.904 219.788 63.5854 219.789 63.2558C219.787 62.9851 219.705 62.721 219.553 62.4969C219.401 62.2728 219.187 62.0988 218.936 61.9967C218.685 61.8946 218.41 61.8691 218.144 61.9233C217.879 61.9776 217.636 62.1092 217.446 62.3015C217.255 62.4939 217.126 62.7383 217.074 63.0041C217.022 63.2698 217.051 63.5449 217.155 63.7947C217.26 64.0444 217.436 64.2576 217.661 64.4073C217.887 64.557 218.152 64.6366 218.422 64.636C218.752 64.634 219.07 64.5169 219.323 64.305L219.385 64.3579V64.5301L220.445 65.5892L220.776 65.2582L219.69 64.209ZM218.419 64.209C218.23 64.2097 218.044 64.154 217.886 64.0492C217.729 63.9443 217.605 63.795 217.533 63.6201C217.46 63.4452 217.441 63.2526 217.477 63.0667C217.514 62.8809 217.605 62.7101 217.739 62.5761C217.873 62.4422 218.044 62.351 218.23 62.3142C218.416 62.2774 218.608 62.2966 218.783 62.3694C218.958 62.4422 219.108 62.5653 219.212 62.7232C219.317 62.881 219.373 63.0663 219.372 63.2558C219.373 63.3812 219.349 63.5056 219.301 63.6216C219.254 63.7377 219.184 63.8431 219.095 63.9318C219.006 64.0205 218.901 64.0907 218.785 64.1382C218.669 64.1858 218.544 64.2099 218.419 64.209Z" fill="#444053"/>
<path d="M299.531 66.0487C300.81 66.0487 301.848 65.0114 301.848 63.7319C301.848 62.4523 300.81 61.415 299.531 61.415C298.251 61.415 297.214 62.4523 297.214 63.7319C297.214 65.0114 298.251 66.0487 299.531 66.0487Z" fill="#0B5F73"/>
<path d="M261.988 75.9785H242.084C241.639 75.9785 241.279 76.3386 241.279 76.7828V89.7371C241.279 90.1813 241.639 90.5414 242.084 90.5414H261.988C262.433 90.5414 262.793 90.1813 262.793 89.7371V76.7828C262.793 76.3386 262.433 75.9785 261.988 75.9785Z" fill="white"/>
<path d="M296.02 75.9785H268.622C268.51 75.9785 268.42 76.0689 268.42 76.1804V78.0934C268.42 78.2049 268.51 78.2953 268.622 78.2953H296.02C296.131 78.2953 296.222 78.2049 296.222 78.0934V76.1804C296.222 76.0689 296.131 75.9785 296.02 75.9785Z" fill="white"/>
<path d="M296.02 80.9424H268.622C268.51 80.9424 268.42 81.0328 268.42 81.1443V83.0573C268.42 83.1688 268.51 83.2592 268.622 83.2592H296.02C296.131 83.2592 296.222 83.1688 296.222 83.0573V81.1443C296.222 81.0328 296.131 80.9424 296.02 80.9424Z" fill="white"/>
<path d="M296.02 85.9072H268.622C268.51 85.9072 268.42 85.9976 268.42 86.1091V88.0221C268.42 88.1337 268.51 88.224 268.622 88.224H296.02C296.131 88.224 296.222 88.1337 296.222 88.0221V86.1091C296.222 85.9976 296.131 85.9072 296.02 85.9072Z" fill="white"/>
<path d="M261.988 98.8154H242.084C241.639 98.8154 241.279 99.1755 241.279 99.6197V112.574C241.279 113.018 241.639 113.378 242.084 113.378H261.988C262.433 113.378 262.793 113.018 262.793 112.574V99.6197C262.793 99.1755 262.433 98.8154 261.988 98.8154Z" fill="white"/>
<path d="M296.02 98.8154H268.622C268.51 98.8154 268.42 98.9058 268.42 99.0173V100.93C268.42 101.042 268.51 101.132 268.622 101.132H296.02C296.131 101.132 296.222 101.042 296.222 100.93V99.0173C296.222 98.9058 296.131 98.8154 296.02 98.8154Z" fill="white"/>
<path d="M296.02 103.78H268.622C268.51 103.78 268.42 103.871 268.42 103.982V105.895C268.42 106.007 268.51 106.097 268.622 106.097H296.02C296.131 106.097 296.222 106.007 296.222 105.895V103.982C296.222 103.871 296.131 103.78 296.02 103.78Z" fill="white"/>
<path d="M296.003 108.744H268.638C268.518 108.744 268.42 108.842 268.42 108.963V110.843C268.42 110.963 268.518 111.061 268.638 111.061H296.003C296.124 111.061 296.222 110.963 296.222 110.843V108.963C296.222 108.842 296.124 108.744 296.003 108.744Z" fill="white"/>
<path d="M261.988 121.652H242.084C241.639 121.652 241.279 122.012 241.279 122.457V135.411C241.279 135.855 241.639 136.215 242.084 136.215H261.988C262.433 136.215 262.793 135.855 262.793 135.411V122.457C262.793 122.012 262.433 121.652 261.988 121.652Z" fill="white"/>
<path d="M296.003 121.652H268.638C268.518 121.652 268.42 121.75 268.42 121.871V123.751C268.42 123.871 268.518 123.969 268.638 123.969H296.003C296.124 123.969 296.222 123.871 296.222 123.751V121.871C296.222 121.75 296.124 121.652 296.003 121.652Z" fill="white"/>
<path d="M296.003 126.617H268.638C268.518 126.617 268.42 126.715 268.42 126.836V128.716C268.42 128.836 268.518 128.934 268.638 128.934H296.003C296.124 128.934 296.222 128.836 296.222 128.716V126.836C296.222 126.715 296.124 126.617 296.003 126.617Z" fill="white"/>
<path d="M296.003 131.582H268.638C268.518 131.582 268.42 131.68 268.42 131.8V133.68C268.42 133.801 268.518 133.899 268.638 133.899H296.003C296.124 133.899 296.222 133.801 296.222 133.68V131.8C296.222 131.68 296.124 131.582 296.003 131.582Z" fill="white"/>
<path d="M261.988 144.489H242.084C241.639 144.489 241.279 144.849 241.279 145.294V158.248C241.279 158.692 241.639 159.052 242.084 159.052H261.988C262.433 159.052 262.793 158.692 262.793 158.248V145.294C262.793 144.849 262.433 144.489 261.988 144.489Z" fill="white"/>
<path d="M296.003 144.489H268.638C268.518 144.489 268.42 144.587 268.42 144.708V146.588C268.42 146.708 268.518 146.806 268.638 146.806H296.003C296.124 146.806 296.222 146.708 296.222 146.588V144.708C296.222 144.587 296.124 144.489 296.003 144.489Z" fill="white"/>
<path d="M296.003 149.454H268.638C268.518 149.454 268.42 149.552 268.42 149.673V151.552C268.42 151.673 268.518 151.771 268.638 151.771H296.003C296.124 151.771 296.222 151.673 296.222 151.552V149.673C296.222 149.552 296.124 149.454 296.003 149.454Z" fill="white"/>
<path d="M296.003 154.419H268.638C268.518 154.419 268.42 154.517 268.42 154.637V156.517C268.42 156.638 268.518 156.736 268.638 156.736H296.003C296.124 156.736 296.222 156.638 296.222 156.517V154.637C296.222 154.517 296.124 154.419 296.003 154.419Z" fill="white"/>
<path d="M261.988 167.327H242.084C241.639 167.327 241.279 167.687 241.279 168.131V181.086C241.279 181.53 241.639 181.89 242.084 181.89H261.988C262.433 181.89 262.793 181.53 262.793 181.086V168.131C262.793 167.687 262.433 167.327 261.988 167.327Z" fill="white"/>
<path d="M296.003 167.327H268.638C268.518 167.327 268.42 167.425 268.42 167.546V169.426C268.42 169.546 268.518 169.644 268.638 169.644H296.003C296.124 169.644 296.222 169.546 296.222 169.426V167.546C296.222 167.425 296.124 167.327 296.003 167.327Z" fill="white"/>
<path d="M296.003 172.291H268.638C268.518 172.291 268.42 172.389 268.42 172.509V174.389C268.42 174.51 268.518 174.608 268.638 174.608H296.003C296.124 174.608 296.222 174.51 296.222 174.389V172.509C296.222 172.389 296.124 172.291 296.003 172.291Z" fill="white"/>
<path d="M296.003 177.256H268.638C268.518 177.256 268.42 177.354 268.42 177.474V179.354C268.42 179.475 268.518 179.573 268.638 179.573H296.003C296.124 179.573 296.222 179.475 296.222 179.354V177.474C296.222 177.354 296.124 177.256 296.003 177.256Z" fill="white"/>
<path opacity="0.1" d="M134.955 107.623H100.921V109.387H134.955V107.623Z" fill="#0B5F73"/>
<path opacity="0.1" d="M107.222 98.2959H103.945V107.623H107.222V98.2959Z" fill="#0B5F73"/>
<path opacity="0.1" d="M112.011 98.2959H108.734V107.623H112.011V98.2959Z" fill="#0B5F73"/>
<path opacity="0.1" d="M116.8 98.2959H113.523V107.623H116.8V98.2959Z" fill="#0B5F73"/>
<path opacity="0.1" d="M121.589 98.2959H118.312V107.623H121.589V98.2959Z" fill="#0B5F73"/>
<path opacity="0.1" d="M126.379 98.2959H123.103V107.623H126.379V98.2959Z" fill="#0B5F73"/>
<path opacity="0.1" d="M131.171 98.2959H127.895V107.623H131.171V98.2959Z" fill="#0B5F73"/>
<path opacity="0.1" d="M107.222 100.06H103.945V101.069H107.222V100.06Z" fill="#0B5F73"/>
<path opacity="0.1" d="M112.011 100.06H108.734V101.069H112.011V100.06Z" fill="#0B5F73"/>
<path opacity="0.1" d="M116.8 100.06H113.523V101.069H116.8V100.06Z" fill="#0B5F73"/>
<path opacity="0.1" d="M121.589 100.06H118.312V101.069H121.589V100.06Z" fill="#0B5F73"/>
<path opacity="0.1" d="M126.379 100.06H123.103V101.069H126.379V100.06Z" fill="#0B5F73"/>
<path opacity="0.1" d="M131.171 100.06H127.895V101.069H131.171V100.06Z" fill="#0B5F73"/>
<path opacity="0.1" d="M107.222 104.598H103.945V105.607H107.222V104.598Z" fill="#0B5F73"/>
<path opacity="0.1" d="M112.011 104.598H108.734V105.607H112.011V104.598Z" fill="#0B5F73"/>
<path opacity="0.1" d="M116.8 104.598H113.523V105.607H116.8V104.598Z" fill="#0B5F73"/>
<path opacity="0.1" d="M121.589 104.598H118.312V105.607H121.589V104.598Z" fill="#0B5F73"/>
<path opacity="0.1" d="M126.379 104.598H123.103V105.607H126.379V104.598Z" fill="#0B5F73"/>
<path opacity="0.1" d="M131.171 104.598H127.895V105.607H131.171V104.598Z" fill="#0B5F73"/>
<path opacity="0.1" d="M209.572 112.16H175.538V113.924H209.572V112.16Z" fill="#0B5F73"/>
<path opacity="0.1" d="M181.84 102.833H178.563V112.16H181.84V102.833Z" fill="#0B5F73"/>
<path opacity="0.1" d="M186.629 102.833H183.353V112.16H186.629V102.833Z" fill="#0B5F73"/>
<path opacity="0.1" d="M191.418 102.833H188.142V112.16H191.418V102.833Z" fill="#0B5F73"/>
<path opacity="0.1" d="M196.211 102.833H192.935V112.16H196.211V102.833Z" fill="#0B5F73"/>
<path opacity="0.1" d="M201 102.833H197.724V112.16H201V102.833Z" fill="#0B5F73"/>
<path opacity="0.1" d="M205.789 102.833H202.513V112.16H205.789V102.833Z" fill="#0B5F73"/>
<path opacity="0.1" d="M181.84 104.598H178.563V105.607H181.84V104.598Z" fill="#0B5F73"/>
<path opacity="0.1" d="M186.629 104.598H183.353V105.607H186.629V104.598Z" fill="#0B5F73"/>
<path opacity="0.1" d="M191.418 104.598H188.142V105.607H191.418V104.598Z" fill="#0B5F73"/>
<path opacity="0.1" d="M196.211 104.598H192.935V105.607H196.211V104.598Z" fill="#0B5F73"/>
<path opacity="0.1" d="M201 104.598H197.724V105.607H201V104.598Z" fill="#0B5F73"/>
<path opacity="0.1" d="M205.789 104.598H202.513V105.607H205.789V104.598Z" fill="#0B5F73"/>
<path opacity="0.1" d="M181.84 109.135H178.563V110.144H181.84V109.135Z" fill="#0B5F73"/>
<path opacity="0.1" d="M186.629 109.135H183.353V110.144H186.629V109.135Z" fill="#0B5F73"/>
<path opacity="0.1" d="M191.418 109.135H188.142V110.144H191.418V109.135Z" fill="#0B5F73"/>
<path opacity="0.1" d="M196.211 109.135H192.935V110.144H196.211V109.135Z" fill="#0B5F73"/>
<path opacity="0.1" d="M201 109.135H197.724V110.144H201V109.135Z" fill="#0B5F73"/>
<path opacity="0.1" d="M205.789 109.135H202.513V110.144H205.789V109.135Z" fill="#0B5F73"/>
<path opacity="0.1" d="M209.572 125.016H175.538V126.78H209.572V125.016Z" fill="#0B5F73"/>
<path opacity="0.1" d="M181.84 115.688H178.563V125.015H181.84V115.688Z" fill="#0B5F73"/>
<path opacity="0.1" d="M186.629 115.688H183.353V125.015H186.629V115.688Z" fill="#0B5F73"/>
<path opacity="0.1" d="M191.418 115.688H188.142V125.015H191.418V115.688Z" fill="#0B5F73"/>
<path opacity="0.1" d="M196.211 115.688H192.935V125.015H196.211V115.688Z" fill="#0B5F73"/>
<path opacity="0.1" d="M201 115.688H197.724V125.015H201V115.688Z" fill="#0B5F73"/>
<path opacity="0.1" d="M205.789 115.688H202.513V125.015H205.789V115.688Z" fill="#0B5F73"/>
<path opacity="0.1" d="M181.84 117.452H178.563V118.462H181.84V117.452Z" fill="#0B5F73"/>
<path opacity="0.1" d="M186.629 117.452H183.353V118.462H186.629V117.452Z" fill="#0B5F73"/>
<path opacity="0.1" d="M191.418 117.452H188.142V118.462H191.418V117.452Z" fill="#0B5F73"/>
<path opacity="0.1" d="M196.211 117.452H192.935V118.462H196.211V117.452Z" fill="#0B5F73"/>
<path opacity="0.1" d="M201 117.452H197.724V118.462H201V117.452Z" fill="#0B5F73"/>
<path opacity="0.1" d="M205.789 117.452H202.513V118.462H205.789V117.452Z" fill="#0B5F73"/>
<path opacity="0.1" d="M181.84 121.99H178.563V123H181.84V121.99Z" fill="#0B5F73"/>
<path opacity="0.1" d="M186.629 121.99H183.353V123H186.629V121.99Z" fill="#0B5F73"/>
<path opacity="0.1" d="M191.418 121.99H188.142V123H191.418V121.99Z" fill="#0B5F73"/>
<path opacity="0.1" d="M196.211 121.99H192.935V123H196.211V121.99Z" fill="#0B5F73"/>
<path opacity="0.1" d="M201 121.99H197.724V123H201V121.99Z" fill="#0B5F73"/>
<path opacity="0.1" d="M205.789 121.99H202.513V123H205.789V121.99Z" fill="#0B5F73"/>
<path opacity="0.1" d="M121.799 127.571C121.545 127.246 121.313 126.904 121.104 126.548L126.005 125.744L120.71 125.784C120.202 124.678 119.924 123.48 119.895 122.263C119.865 121.047 120.084 119.837 120.538 118.707L127.637 122.388L121.08 117.569C121.69 116.499 122.515 115.566 123.502 114.83C124.49 114.094 125.619 113.569 126.819 113.29C128.019 113.011 129.263 112.983 130.474 113.208C131.685 113.432 132.837 113.905 133.857 114.596C134.877 115.287 135.743 116.181 136.4 117.223C137.058 118.264 137.493 119.431 137.679 120.649C137.864 121.866 137.796 123.109 137.478 124.299C137.16 125.49 136.6 126.601 135.832 127.564C136.231 128.068 136.573 128.614 136.851 129.193L130.49 132.502L137.272 130.229C137.746 131.635 137.863 133.137 137.611 134.599C137.36 136.062 136.748 137.439 135.832 138.606C136.871 139.923 137.518 141.507 137.699 143.175C137.88 144.843 137.588 146.529 136.856 148.038C136.124 149.548 134.981 150.822 133.559 151.712C132.137 152.603 130.493 153.076 128.815 153.076C127.137 153.076 125.493 152.603 124.071 151.712C122.649 150.822 121.507 149.548 120.774 148.038C120.042 146.529 119.75 144.843 119.931 143.175C120.112 141.507 120.759 139.923 121.799 138.606C120.561 137.031 119.888 135.086 119.888 133.083C119.888 131.08 120.561 129.136 121.799 127.561V127.571Z" fill="#0B5F73"/>
<path opacity="0.1" d="M137.745 133.091C137.745 135.091 137.071 137.034 135.832 138.605C136.871 139.922 137.518 141.506 137.699 143.174C137.88 144.842 137.588 146.528 136.856 148.038C136.124 149.548 134.981 150.821 133.559 151.712C132.137 152.602 130.493 153.075 128.815 153.075C127.137 153.075 125.493 152.602 124.071 151.712C122.649 150.821 121.507 149.548 120.774 148.038C120.042 146.528 119.75 144.842 119.931 143.174C120.112 141.506 120.759 139.922 121.799 138.605C120.597 137.092 137.745 132.088 137.745 133.091Z" fill="#0B5F73"/>
<path opacity="0.2" d="M130.245 155.445C130.26 155.468 130.274 155.492 130.288 155.517H127.256C127.272 155.494 127.282 155.468 127.299 155.445C127.038 154.991 126.903 154.475 126.908 153.952C126.907 153.593 126.969 153.237 127.09 152.899C127.259 152.926 127.468 152.956 127.709 152.982C128.413 153.052 129.121 153.052 129.824 152.982C130.027 152.962 130.236 152.936 130.45 152.903C130.448 152.908 130.448 152.914 130.45 152.919C130.57 153.251 130.631 153.602 130.628 153.955C130.635 154.477 130.503 154.991 130.245 155.445Z" fill="#3F3D56"/>
<path opacity="0.1" d="M119.349 155.518H102.469C102.433 155.422 102.4 155.319 102.37 155.22C101.775 153.307 101.844 151.25 102.565 149.382C100.917 148.242 99.7 146.582 99.1088 144.668C98.5176 142.754 98.5867 140.697 99.305 138.827C98.9658 138.593 98.6439 138.336 98.3419 138.056L102.784 135.841L97.7329 137.443C96.9207 136.537 96.3022 135.475 95.9152 134.321C95.5282 133.168 95.3809 131.947 95.4822 130.735L103.363 132.158L95.6775 129.487C95.9426 128.282 96.4541 127.146 97.1798 126.149C97.9056 125.152 98.8298 124.316 99.8943 123.694C100.959 123.071 102.141 122.676 103.366 122.532C104.59 122.389 105.832 122.501 107.011 122.86C108.191 123.22 109.283 123.82 110.219 124.622C111.156 125.425 111.916 126.412 112.452 127.523C112.988 128.633 113.289 129.843 113.335 131.075C113.381 132.307 113.171 133.536 112.719 134.683C113.252 135.054 113.744 135.481 114.186 135.957L109.082 140.991L114.891 136.815C115.761 138.019 116.317 139.422 116.509 140.895C116.701 142.369 116.522 143.867 115.989 145.254C117.592 146.364 118.788 147.968 119.395 149.821C120.001 151.674 119.985 153.675 119.349 155.518Z" fill="#0B5F73"/>
<path opacity="0.1" d="M119.349 155.518H102.47C102.433 155.422 102.4 155.319 102.37 155.22C101.776 153.307 101.845 151.25 102.566 149.381C100.977 148.282 115.881 138.436 116.175 139.396C116.77 141.309 116.701 143.368 115.98 145.238C117.588 146.347 118.789 147.953 119.397 149.81C120.006 151.666 119.989 153.671 119.349 155.518Z" fill="#0B5F73"/>
<path opacity="0.1" d="M195.722 143.424C194.696 145.144 193.121 146.469 191.25 147.184C191.33 147.821 191.342 148.464 191.287 149.103L184.134 148.673L191.121 150.189C190.915 151.141 190.555 152.054 190.055 152.89C189.446 153.914 188.636 154.803 187.672 155.504H177.935V155.759H168.006C168.026 155.673 168.046 155.591 168.069 155.504C168.431 154.135 169.114 152.872 170.06 151.818C171.007 150.764 172.19 149.951 173.513 149.444C173.259 147.458 173.68 145.443 174.708 143.724C175.736 142.005 177.312 140.681 179.183 139.965C179.13 139.556 179.106 139.143 179.11 138.731L183.727 140.554L179.16 137.87C179.294 136.661 179.675 135.491 180.277 134.434C180.88 133.376 181.692 132.453 182.665 131.721L186.871 138.532L183.717 131.032C185.435 130.082 187.419 129.723 189.361 130.013C191.303 130.302 193.096 131.223 194.462 132.634C195.829 134.044 196.692 135.865 196.92 137.815C197.147 139.766 196.726 141.737 195.722 143.424Z" fill="#0B5F73"/>
<path opacity="0.1" d="M190.055 152.903C189.446 153.927 188.636 154.816 187.672 155.517H177.935V155.772H168.006C168.026 155.686 168.046 155.603 168.069 155.517C168.431 154.148 169.114 152.885 170.06 151.831C171.007 150.777 172.19 149.964 173.513 149.457C173.431 148.795 175.353 148.895 177.919 149.325C182.946 150.169 190.396 152.333 190.055 152.903Z" fill="#0B5F73"/>
<path d="M147.85 129.069C147.85 129.069 149.074 135.689 146.34 137.85C143.606 140.011 148.657 152.966 156.991 151.453C165.325 149.941 168.721 139.075 168.721 139.075C168.721 139.075 160.374 137.347 163.468 128.566L147.85 129.069Z" fill="#EE8E9E"/>
<path opacity="0.1" d="M147.85 129.069C147.85 129.069 149.074 135.689 146.34 137.85C143.606 140.011 148.657 152.966 156.991 151.453C165.325 149.941 168.721 139.075 168.721 139.075C168.721 139.075 160.374 137.347 163.468 128.566L147.85 129.069Z" fill="black"/>
<path d="M155.226 133.928C162.858 133.928 169.044 127.742 169.044 120.11C169.044 112.479 162.858 106.292 155.226 106.292C147.595 106.292 141.408 112.479 141.408 120.11C141.408 127.742 147.595 133.928 155.226 133.928Z" fill="#EE8E9E"/>
<path d="M177.935 146.38V155.773H132.307V146.807C132.307 145.67 132.641 144.558 133.27 143.61C133.898 142.663 134.791 141.921 135.838 141.478L137.145 140.922C140.455 139.512 144.477 137.761 145.79 137.033C145.934 136.961 146.07 136.874 146.194 136.772C146.912 136.053 146.77 136.987 146.77 136.987C146.77 136.987 146.75 137.165 146.737 137.473C146.658 139.588 146.962 147.899 156.703 147.207C166.205 146.545 166.632 140.118 166.536 138.228C166.531 138.053 166.516 137.878 166.493 137.705C167.15 137.861 167.793 138.072 168.416 138.334C170.402 139.069 173.334 140.247 174.119 140.803C174.363 140.975 174.661 141.154 174.986 141.336C175.354 141.541 175.698 141.786 176.012 142.067C176.617 142.611 177.101 143.276 177.432 144.019C177.764 144.762 177.935 145.566 177.935 146.38Z" fill="#0B5F73"/>
<path opacity="0.1" d="M168.416 138.334C167.612 142.061 165.086 149.041 155.984 149.223C146.287 149.415 145.724 139.77 145.787 137.033C145.933 136.963 146.07 136.875 146.194 136.772C146.916 136.053 146.77 136.987 146.77 136.987C146.77 136.987 145.549 147.998 156.699 147.207C167.85 146.416 166.48 137.708 166.48 137.708C166.48 137.655 167.31 137.943 168.416 138.334Z" fill="black"/>
<path d="M138.869 120.802C139.328 120.688 139.811 120.713 140.255 120.875C140.699 121.038 141.085 121.329 141.362 121.713C141.865 122.418 141.941 123.268 142.004 124.082C142.603 124.208 142.94 123.53 142.997 123.017C143.218 120.928 143.235 118.8 143.937 116.781C144.638 114.762 146.171 112.809 148.524 112.038C149.328 111.76 150.187 111.678 151.029 111.8C151.529 111.883 151.999 112.058 152.496 112.131C154.217 112.416 156.087 111.601 157.699 112.167C158.711 112.525 159.353 113.349 159.827 114.173C160.033 114.617 160.312 115.024 160.654 115.374C161.339 115.99 162.412 116.149 163.395 116.341C164.378 116.533 165.45 116.867 165.87 117.625C166.248 118.31 165.97 119.101 165.844 119.843C165.649 121.017 165.846 122.223 166.403 123.275C166.585 123.606 166.956 124.006 167.396 123.897C167.593 123.83 167.76 123.695 167.866 123.516C168.995 121.934 168.965 119.876 170.381 118.449C170.855 117.973 171.467 117.602 171.927 117.125C172.275 116.772 172.531 116.338 172.67 115.862C172.81 115.386 172.83 114.883 172.728 114.398C172.473 113.306 171.599 112.412 170.895 111.452C169.979 110.236 169.312 108.852 168.932 107.378C168.865 107.207 168.865 107.017 168.932 106.845C169.066 106.671 169.238 106.531 169.435 106.435C169.819 106.178 170.095 105.789 170.214 105.343C170.332 104.896 170.283 104.422 170.077 104.009C169.677 103.191 168.796 102.569 167.803 102.198C166.796 101.868 165.756 101.646 164.702 101.536C164.007 101.636 163.193 101.242 162.978 100.686C162.882 100.438 162.882 100.17 162.786 99.9213C162.655 99.672 162.467 99.4577 162.237 99.2964C162.006 99.1351 161.741 99.0316 161.462 98.9946C160.87 98.8988 160.264 98.9419 159.691 99.1203C159.029 99.3057 158.278 99.5837 157.705 99.2593C157.404 99.0906 157.239 98.7828 156.914 98.6437C156.252 98.3657 155.57 98.9284 155.097 99.3917C154.641 99.8779 154.081 100.255 153.459 100.494C153.13 100.619 152.779 100.672 152.428 100.648C152.077 100.625 151.736 100.526 151.427 100.358C150.973 100.07 150.745 99.6069 150.384 99.2395C149.703 98.6318 148.831 98.2807 147.918 98.2466C146.98 98.1968 146.04 98.2996 145.135 98.5511C143.407 98.9721 141.757 99.6648 140.246 100.603C139.486 101.021 138.842 101.62 138.37 102.347C138.09 102.905 137.946 103.521 137.949 104.145C137.877 106.101 138.525 108.159 140.217 109.529C139.184 109.96 138.836 111.016 138.595 111.952C138.208 113.448 137.82 114.967 137.966 116.49C138.039 117.278 138.254 118.065 138.138 118.85C138.045 119.219 137.994 119.598 137.986 119.978C138.034 120.188 138.145 120.378 138.302 120.525C138.459 120.672 138.657 120.768 138.869 120.802Z" fill="#454B69"/>
<g opacity="0.1">
<path opacity="0.1" d="M172.513 113.782C172.364 114.107 172.163 114.404 171.917 114.663C171.457 115.146 170.845 115.52 170.371 115.987C168.955 117.403 168.985 119.475 167.856 121.057C167.751 121.236 167.584 121.37 167.386 121.434C166.956 121.547 166.585 121.156 166.393 120.812C166.174 120.393 166.009 119.948 165.9 119.488C165.877 119.604 165.854 119.72 165.834 119.819C165.639 120.994 165.836 122.199 166.393 123.251C166.575 123.582 166.946 123.983 167.386 123.874C167.583 123.807 167.75 123.672 167.856 123.493C168.985 121.911 168.955 119.852 170.371 118.426C170.845 117.949 171.457 117.578 171.917 117.102C172.265 116.749 172.521 116.315 172.66 115.839C172.8 115.363 172.82 114.86 172.718 114.375C172.667 114.172 172.599 113.973 172.513 113.782Z" fill="black"/>
<path opacity="0.1" d="M169.429 103.986C169.231 104.081 169.058 104.222 168.926 104.397C168.859 104.567 168.859 104.756 168.926 104.926C169.056 105.44 169.223 105.945 169.425 106.435C169.809 106.178 170.086 105.79 170.204 105.343C170.322 104.897 170.274 104.423 170.067 104.009C170.003 103.873 169.925 103.743 169.836 103.622C169.718 103.762 169.581 103.885 169.429 103.986Z" fill="black"/>
<path opacity="0.1" d="M140.237 107.054C139.064 106.088 138.292 104.721 138.069 103.218C138.009 103.514 137.976 103.816 137.969 104.118C137.894 105.563 138.274 106.996 139.058 108.212C139.295 107.694 139.715 107.282 140.237 107.054Z" fill="black"/>
<path opacity="0.1" d="M165.844 117.403C165.97 116.658 166.248 115.867 165.871 115.185C165.451 114.424 164.378 114.093 163.395 113.901C162.412 113.709 161.34 113.547 160.655 112.935C160.313 112.584 160.033 112.178 159.827 111.733C159.361 110.909 158.712 110.079 157.699 109.728C156.087 109.162 154.217 109.973 152.496 109.691C152 109.609 151.53 109.436 151.03 109.36C150.188 109.237 149.328 109.319 148.525 109.599C146.171 110.373 144.639 112.326 143.937 114.341C143.236 116.357 143.219 118.485 142.997 120.577C142.941 121.087 142.604 121.769 142.004 121.643C141.942 120.825 141.865 119.988 141.362 119.27C141.085 118.887 140.699 118.596 140.255 118.434C139.811 118.273 139.329 118.248 138.87 118.363C138.592 118.301 138.345 118.142 138.172 117.916C138.208 118.219 138.208 118.526 138.172 118.829C138.079 119.199 138.028 119.577 138.02 119.958C138.062 120.17 138.167 120.364 138.321 120.516C138.475 120.667 138.671 120.769 138.883 120.809C139.342 120.694 139.825 120.719 140.269 120.882C140.713 121.044 141.099 121.336 141.376 121.719C141.879 122.424 141.955 123.274 142.018 124.089C142.617 124.214 142.954 123.536 143.011 123.023C143.232 120.934 143.249 118.806 143.951 116.787C144.652 114.768 146.185 112.816 148.538 112.045C149.342 111.766 150.201 111.684 151.043 111.806C151.543 111.889 152.013 112.064 152.51 112.137C154.231 112.422 156.101 111.608 157.712 112.174C158.725 112.531 159.367 113.355 159.841 114.179C160.046 114.624 160.326 115.03 160.668 115.381C161.353 115.996 162.425 116.155 163.408 116.347C164.391 116.539 165.394 116.85 165.835 117.552C165.818 117.502 165.835 117.453 165.844 117.403Z" fill="black"/>
<path opacity="0.1" d="M138.158 116.374C138.213 115.757 138.176 115.136 138.049 114.53C137.952 115.17 137.931 115.819 137.986 116.463C137.986 116.629 138.022 116.794 138.046 116.956C138.082 116.761 138.132 116.569 138.158 116.374Z" fill="black"/>
</g>
<path d="M121.96 169.127V163.153C121.96 163.108 121.978 163.065 122.009 163.034C122.041 163.002 122.084 162.984 122.129 162.984H122.807C122.852 162.984 122.895 163.002 122.927 163.034C122.958 163.065 122.976 163.108 122.976 163.153V165.639L125.73 163.087C125.795 163.033 125.873 162.998 125.957 162.987C126.04 162.975 126.125 162.987 126.202 163.022C126.279 163.056 126.345 163.112 126.392 163.182C126.439 163.252 126.465 163.333 126.468 163.418V168.829C126.465 168.913 126.439 168.995 126.392 169.065C126.345 169.135 126.279 169.191 126.202 169.225C126.125 169.26 126.04 169.272 125.957 169.26C125.873 169.249 125.795 169.214 125.73 169.16L122.976 166.625V169.097C122.976 169.142 122.958 169.185 122.927 169.217C122.895 169.248 122.852 169.266 122.807 169.266H122.129C122.089 169.267 122.05 169.253 122.019 169.228C121.988 169.202 121.967 169.166 121.96 169.127Z" fill="#444053"/>
<path d="M188.496 163.154V169.128C188.496 169.15 188.492 169.173 188.483 169.193C188.474 169.214 188.461 169.233 188.445 169.248C188.429 169.264 188.41 169.277 188.389 169.285C188.369 169.293 188.346 169.297 188.324 169.297H187.662C187.617 169.297 187.574 169.279 187.543 169.247C187.511 169.216 187.493 169.173 187.493 169.128V166.642L184.739 169.191C184.674 169.244 184.596 169.279 184.512 169.29C184.428 169.302 184.343 169.289 184.266 169.255C184.189 169.221 184.123 169.165 184.076 169.096C184.029 169.026 184.002 168.944 183.998 168.86V163.429C184.002 163.344 184.029 163.263 184.076 163.193C184.123 163.123 184.189 163.068 184.266 163.034C184.343 162.999 184.428 162.987 184.512 162.998C184.596 163.01 184.674 163.044 184.739 163.098L187.493 165.633V163.164C187.493 163.119 187.511 163.076 187.543 163.044C187.574 163.013 187.617 162.995 187.662 162.995H188.324C188.368 162.994 188.41 163.01 188.442 163.04C188.474 163.069 188.493 163.11 188.496 163.154Z" fill="#444053"/>
<path d="M154.105 169.386H152.758C152.582 169.386 152.414 169.316 152.29 169.192C152.165 169.068 152.096 168.899 152.096 168.724V163.779C152.096 163.604 152.165 163.435 152.29 163.311C152.414 163.187 152.582 163.117 152.758 163.117H154.105C154.28 163.117 154.449 163.187 154.573 163.311C154.697 163.435 154.767 163.604 154.767 163.779V168.724C154.767 168.899 154.697 169.068 154.573 169.192C154.449 169.316 154.28 169.386 154.105 169.386ZM158.374 168.724V163.779C158.374 163.604 158.305 163.435 158.18 163.311C158.056 163.187 157.888 163.117 157.712 163.117H156.352C156.176 163.117 156.008 163.187 155.884 163.311C155.76 163.435 155.69 163.604 155.69 163.779V168.724C155.69 168.899 155.76 169.068 155.884 169.192C156.008 169.316 156.176 169.386 156.352 169.386H157.699C157.787 169.388 157.875 169.372 157.956 169.339C158.038 169.307 158.113 169.258 158.176 169.197C158.239 169.135 158.289 169.061 158.323 168.98C158.357 168.899 158.374 168.812 158.374 168.724Z" fill="#444053"/>
<path opacity="0.6" d="M194.943 155.101H115.51V155.984H194.943V155.101Z" fill="#444053"/>
<path d="M140.038 157.636C141.195 157.636 142.133 156.698 142.133 155.541C142.133 154.384 141.195 153.446 140.038 153.446C138.881 153.446 137.943 154.384 137.943 155.541C137.943 156.698 138.881 157.636 140.038 157.636Z" fill="#444053"/>
<path d="M140.038 155.101H115.51V155.984H140.038V155.101Z" fill="#444053"/>
<path d="M316.768 254.843C327.639 254.843 336.451 253.148 336.451 251.057C336.451 248.966 327.639 247.271 316.768 247.271C305.897 247.271 297.085 248.966 297.085 251.057C297.085 253.148 305.897 254.843 316.768 254.843Z" fill="#0B5F73"/>
<path d="M316.441 252.446C317.706 252.446 318.731 251.104 318.731 249.448C318.731 247.792 317.706 246.449 316.441 246.449C315.176 246.449 314.15 247.792 314.15 249.448C314.15 251.104 315.176 252.446 316.441 252.446Z" fill="#3F3D56"/>
<path d="M316.441 248.779C317.706 248.779 318.731 247.437 318.731 245.781C318.731 244.125 317.706 242.782 316.441 242.782C315.176 242.782 314.15 244.125 314.15 245.781C314.15 247.437 315.176 248.779 316.441 248.779Z" fill="#3F3D56"/>
<path d="M316.441 245.115C317.706 245.115 318.731 243.773 318.731 242.117C318.731 240.461 317.706 239.118 316.441 239.118C315.176 239.118 314.15 240.461 314.15 242.117C314.15 243.773 315.176 245.115 316.441 245.115Z" fill="#3F3D56"/>
<path d="M316.441 241.448C317.706 241.448 318.731 240.106 318.731 238.45C318.731 236.794 317.706 235.451 316.441 235.451C315.176 235.451 314.15 236.794 314.15 238.45C314.15 240.106 315.176 241.448 316.441 241.448Z" fill="#3F3D56"/>
<path d="M316.441 237.781C317.706 237.781 318.731 236.439 318.731 234.783C318.731 233.127 317.706 231.784 316.441 231.784C315.176 231.784 314.15 233.127 314.15 234.783C314.15 236.439 315.176 237.781 316.441 237.781Z" fill="#3F3D56"/>
<path d="M316.441 234.114C317.706 234.114 318.731 232.772 318.731 231.116C318.731 229.46 317.706 228.117 316.441 228.117C315.176 228.117 314.15 229.46 314.15 231.116C314.15 232.772 315.176 234.114 316.441 234.114Z" fill="#3F3D56"/>
<path d="M316.441 230.447C317.706 230.447 318.731 229.105 318.731 227.449C318.731 225.793 317.706 224.45 316.441 224.45C315.176 224.45 314.15 225.793 314.15 227.449C314.15 229.105 315.176 230.447 316.441 230.447Z" fill="#3F3D56"/>
<path d="M325.016 202.36C325.328 201.961 325.613 201.54 325.87 201.103L319.846 200.11L326.36 200.159C326.983 198.8 327.323 197.327 327.359 195.832C327.395 194.336 327.126 192.849 326.568 191.461L317.837 195.996L325.893 190.075C325.138 188.77 324.123 187.634 322.91 186.739C321.697 185.843 320.313 185.208 318.844 184.871C317.374 184.534 315.851 184.503 314.37 184.78C312.888 185.058 311.479 185.637 310.231 186.483C308.983 187.328 307.923 188.422 307.116 189.695C306.309 190.969 305.773 192.395 305.542 193.884C305.31 195.374 305.387 196.895 305.77 198.353C306.152 199.812 306.83 201.176 307.762 202.36C307.277 202.977 306.857 203.642 306.511 204.346L314.329 208.407L305.995 205.61C305.41 207.34 305.265 209.188 305.573 210.987C305.882 212.787 306.634 214.481 307.762 215.917C306.489 217.536 305.698 219.48 305.478 221.528C305.258 223.576 305.619 225.644 306.519 227.496C307.419 229.348 308.822 230.91 310.568 232.002C312.313 233.095 314.331 233.674 316.391 233.674C318.45 233.674 320.468 233.095 322.213 232.002C323.959 230.91 325.362 229.348 326.262 227.496C327.162 225.644 327.523 223.576 327.303 221.528C327.083 219.48 326.292 217.536 325.019 215.917C326.539 213.982 327.366 211.593 327.366 209.132C327.366 206.671 326.539 204.282 325.019 202.347L325.016 202.36Z" fill="#0B5F73"/>
<path opacity="0.1" d="M305.416 209.146C305.411 211.607 306.238 213.998 307.763 215.931C306.49 217.55 305.699 219.494 305.479 221.542C305.259 223.589 305.62 225.658 306.52 227.51C307.42 229.362 308.823 230.924 310.568 232.016C312.314 233.109 314.332 233.688 316.391 233.688C318.45 233.688 320.468 233.109 322.214 232.016C323.959 230.924 325.362 229.362 326.262 227.51C327.163 225.658 327.523 223.589 327.303 221.542C327.084 219.494 326.292 217.55 325.02 215.931C326.489 214.067 305.416 207.915 305.416 209.146Z" fill="black"/>
<path opacity="0.1" d="M95.9822 275.224C114.079 275.224 128.749 272.112 128.749 268.274C128.749 264.435 114.079 261.323 95.9822 261.323C77.8858 261.323 63.2158 264.435 63.2158 268.274C63.2158 272.112 77.8858 275.224 95.9822 275.224Z" fill="#0B5F73"/>
<path d="M106.954 267.467C106.292 267.225 105.584 267.265 104.892 267.189C103.456 267.023 102.118 266.374 101.099 265.349C100.444 264.686 99.928 263.898 99.5832 263.032C99.8016 263.111 100.02 263.194 100.245 263.283C99.5832 261.738 100.278 260.003 100.887 258.441C101.92 255.793 102.896 253.131 103.816 250.455C106.133 243.673 108.119 236.62 108.076 229.405C108.076 226.797 107.596 224.331 107.503 221.726C107.434 219.793 107.732 217.864 107.719 215.928C107.719 215.656 107.719 215.388 107.699 215.117C108.291 214.598 108.756 213.951 109.058 213.225C109.361 212.498 109.492 211.712 109.443 210.927C109.409 210.517 109.351 210.111 109.267 209.709C109.15 209.01 108.996 208.319 108.804 207.637C108.586 206.918 108.288 206.23 108.033 205.528C107.54 204.168 107.206 202.752 106.785 201.368C106.941 201.384 107.093 201.425 107.235 201.491C107.129 201.366 107.056 201.217 107.023 201.057C106.776 200.176 106.643 199.267 106.626 198.353L106.908 198.227C107.034 197.334 106.988 196.425 106.772 195.55C106.931 194.13 107.179 192.7 107.331 191.287C107.388 190.757 107.364 190.092 106.878 189.963C106.779 189.205 106.739 188.437 106.699 187.672C106.56 185.005 106.422 182.338 106.285 179.673C106.146 176.995 106.007 174.321 105.954 171.64C105.918 169.939 105.898 168.178 105.494 166.55C105.564 165.769 105.484 164.983 105.259 164.233C104.644 162.283 102.731 160.738 100.791 160.847C100.213 160.019 99.4976 159.296 98.6763 158.709C99.0636 157.842 99.5269 156.948 99.9075 156.246C103.012 155.237 105.283 152.175 105.283 148.535C105.287 147.202 104.975 145.887 104.372 144.699C104.429 144.553 104.478 144.404 104.518 144.252C104.684 143.537 104.632 142.789 104.369 142.104C104.276 141.841 104.165 141.584 104.038 141.336C103.952 141.171 103.859 141.005 103.763 140.846L103.595 140.591C103.492 140.436 103.386 140.287 103.264 140.141C103.029 139.826 102.777 139.523 102.509 139.234C102.179 138.878 101.816 138.554 101.423 138.268C100.891 137.872 100.283 137.592 99.6361 137.444C99.2624 137.37 98.8819 137.336 98.5009 137.341C98.2725 137.341 98.0409 137.341 97.8125 137.361C97.3491 137.388 96.8891 137.421 96.429 137.417C96.2768 137.417 96.1212 137.417 95.969 137.394C95.1591 137.286 94.3582 137.119 93.5727 136.894L93.1755 136.812C93.0398 136.785 92.9075 136.762 92.7718 136.745C92.4087 136.697 92.0425 136.675 91.6762 136.679H91.3089C90.9419 136.697 90.5762 136.734 90.2133 136.792L89.8493 136.848C88.9299 136.992 88.0339 137.258 87.1849 137.639C87.0757 137.689 86.9632 137.745 86.854 137.805L86.7878 137.841C86.6984 137.887 86.609 137.937 86.523 137.99L86.4733 138.02L86.192 138.198L86.1688 138.215C83.5409 139.982 81.9886 143.332 81.5948 146.655C81.1546 150.385 81.9258 154.145 82.6969 157.815L83.392 161.125C83.4218 161.274 83.4549 161.42 83.4846 161.568C82.5073 162.37 81.7556 163.413 81.3035 164.594C80.6416 166.248 80.625 168.039 80.678 169.833C80.678 170.197 80.6978 170.561 80.7343 170.925C80.6515 171.614 80.5787 172.305 80.5324 173C80.3239 176.211 80.7144 179.438 80.6118 182.655C80.5324 185.134 80.1584 187.619 80.3404 190.082C80.4993 192.266 81.0851 194.385 81.6643 196.493L82.4983 199.498C82.5254 199.654 82.598 199.798 82.7069 199.912C82.8438 200.004 83.0114 200.038 83.1735 200.008C82.631 201.24 82.1775 202.51 81.8165 203.807C81.5672 204.602 81.403 205.421 81.3267 206.25C81.2175 207.766 81.5683 209.272 81.9191 210.745C82.4487 212.951 82.9761 215.166 83.5012 217.39C83.8719 218.946 84.2415 220.501 84.61 222.054C85.3381 225.119 86.0695 228.203 86.2052 231.358C86.2809 232.942 86.1698 234.529 85.8743 236.087C84.9194 240.753 84.7806 245.549 85.4639 250.263C86.0162 254.239 86.9121 258.161 88.1414 261.983C88.4095 261.84 88.6809 261.708 88.9589 261.585L88.8431 261.8C88.4614 262.462 88.1083 263.141 87.784 263.836C87.5654 264.288 87.3763 264.753 87.218 265.229C86.7944 266.553 86.7282 267.963 86.6686 269.357C86.6383 269.624 86.6619 269.896 86.7381 270.154C86.9202 270.654 87.4431 270.909 87.9296 271.048C89.3594 271.455 90.8455 271.309 92.3316 271.117C92.3384 271.15 92.3484 271.182 92.3613 271.213C92.5434 271.713 93.063 271.968 93.5529 272.107C95.5983 272.69 97.7562 272.14 99.8645 271.942C101.973 271.743 104.045 271.889 106.074 271.402C106.376 271.337 106.666 271.226 106.934 271.071C107.456 270.706 107.838 270.175 108.02 269.565C108.083 269.407 108.126 269.241 108.145 269.072C108.228 268.347 107.609 267.708 106.954 267.467ZM99.9539 236.815C99.8398 237.591 99.6169 238.346 99.2919 239.059C97.6998 242.445 96.5582 246.025 95.8961 249.707C95.4618 252.139 95.2106 254.601 95.1448 257.071C95.1117 258.891 95.1812 260.798 94.4233 262.433L94.698 262.39C94.612 262.549 94.5292 262.721 94.4498 262.846L94.4101 262.919C93.9517 262.139 93.6451 261.278 93.5065 260.384C93.5065 260.354 93.3576 260.331 93.1292 260.318C92.1936 255.09 91.8692 249.77 92.1628 244.467C92.1672 243.824 92.2563 243.184 92.4275 242.564C92.5963 242.031 92.881 241.545 93.0895 241.029C93.4201 240.161 93.6425 239.256 93.7514 238.334C94.1119 235.978 94.2515 233.594 94.1685 231.212C94.089 228.965 94.6087 226.731 95.0522 224.493C95.264 223.431 95.4593 222.365 95.5652 221.299L95.585 221.084C97.5542 224.333 98.9304 227.905 99.6494 231.636C100.049 233.332 100.152 235.084 99.9539 236.815ZM85.7882 188.983L85.8941 189.076C86.214 189.357 86.5086 189.666 86.7745 189.999C86.9068 190.144 87.0022 190.319 87.0525 190.509C87.1518 190.992 86.7513 191.402 86.4237 191.757C86.2813 191.91 86.1476 192.071 86.0232 192.24C85.9526 191.154 85.8776 190.069 85.7982 188.983H85.7882Z" fill="url(#paint0_linear)"/>
<path d="M81.2076 168.237L80.8436 171.047C80.7211 172 80.5986 172.95 80.5324 173.907C80.3107 177.091 80.7211 180.288 80.6152 183.479C80.5291 185.934 80.1386 188.387 80.3272 190.839C80.496 193.004 81.1116 195.109 81.7272 197.194L82.601 200.173C82.6309 200.329 82.707 200.472 82.8195 200.583C82.9878 200.683 83.1878 200.715 83.3788 200.673L87.2578 200.322C87.0096 199.183 86.7349 198.005 86.5959 196.837C86.49 195.923 86.4271 195.003 86.3609 194.083C86.1557 191.217 85.9207 188.351 85.6989 185.478L85.2852 180.447C85.1098 178.262 84.9278 176.068 84.3784 173.947C83.8271 171.804 82.7354 169.838 81.2076 168.237Z" fill="#0B5F73"/>
<path opacity="0.1" d="M81.2076 168.237L80.8436 171.047C80.7211 172 80.5986 172.95 80.5324 173.907C80.3107 177.091 80.7211 180.288 80.6152 183.479C80.5291 185.934 80.1386 188.387 80.3272 190.839C80.496 193.004 81.1116 195.109 81.7272 197.194L82.601 200.173C82.6309 200.329 82.707 200.472 82.8195 200.583C82.9878 200.683 83.1878 200.715 83.3788 200.673L87.2578 200.322C87.0096 199.183 86.7349 198.005 86.5959 196.837C86.49 195.923 86.4271 195.003 86.3609 194.083C86.1557 191.217 85.9207 188.351 85.6989 185.478L85.2852 180.447C85.1098 178.262 84.9278 176.068 84.3784 173.947C83.8271 171.804 82.7354 169.838 81.2076 168.237Z" fill="black"/>
<path d="M88.1181 263.895C87.8904 264.343 87.6914 264.805 87.5224 265.279C87.0789 266.586 87.0127 267.989 86.9465 269.37C86.9172 269.635 86.942 269.905 87.0193 270.161C87.2113 270.657 87.7607 270.909 88.2737 271.044C90.4217 271.624 92.6855 271.081 94.8931 270.882C97.1007 270.684 99.2818 270.829 101.413 270.349C101.728 270.288 102.032 270.183 102.317 270.035C102.857 269.684 103.26 269.158 103.459 268.545C103.523 268.388 103.566 268.224 103.588 268.056C103.657 267.327 103.025 266.699 102.337 266.46C101.648 266.222 100.897 266.258 100.172 266.186C98.6793 266.033 97.2786 265.392 96.1871 264.362C95.0956 263.332 94.3744 261.971 94.1352 260.49C94.1087 260.331 90.5475 260.427 90.1635 260.632C89.7267 260.873 89.4619 261.473 89.2136 261.88C88.8231 262.535 88.4579 263.207 88.1181 263.895Z" fill="#A26565"/>
<path opacity="0.1" d="M88.1181 263.895C87.8904 264.343 87.6914 264.805 87.5224 265.279C87.0789 266.586 87.0127 267.989 86.9465 269.37C86.9172 269.635 86.942 269.905 87.0193 270.161C87.2113 270.657 87.7607 270.909 88.2737 271.044C90.4217 271.624 92.6855 271.081 94.8931 270.882C97.1007 270.684 99.2818 270.829 101.413 270.349C101.728 270.288 102.032 270.183 102.317 270.035C102.857 269.684 103.26 269.158 103.459 268.545C103.523 268.388 103.566 268.224 103.588 268.056C103.657 267.327 103.025 266.699 102.337 266.46C101.648 266.222 100.897 266.258 100.172 266.186C98.6793 266.033 97.2786 265.392 96.1871 264.362C95.0956 263.332 94.3744 261.971 94.1352 260.49C94.1087 260.331 90.5475 260.427 90.1635 260.632C89.7267 260.873 89.4619 261.473 89.2136 261.88C88.8231 262.535 88.4579 263.207 88.1181 263.895Z" fill="black"/>
<path d="M94.0263 264.948C93.7972 265.394 93.5982 265.855 93.4306 266.328C92.9837 267.652 92.9175 269.039 92.8547 270.419C92.8238 270.685 92.8486 270.954 92.9275 271.21C93.1161 271.706 93.6655 271.958 94.1786 272.097C96.3266 272.673 98.5937 272.13 100.798 271.931C103.002 271.733 105.19 271.878 107.318 271.399C107.634 271.335 107.939 271.223 108.222 271.068C108.762 270.717 109.165 270.191 109.364 269.578C109.428 269.421 109.471 269.257 109.493 269.088C109.562 268.364 108.93 267.731 108.242 267.493C107.553 267.255 106.802 267.294 106.077 267.218C104.585 267.065 103.185 266.425 102.093 265.395C101.002 264.366 100.28 263.006 100.04 261.526C100.014 261.367 96.4523 261.459 96.0684 261.665C95.6282 261.906 95.3634 262.505 95.1152 262.912C94.7379 263.584 94.3672 264.259 94.0263 264.948Z" fill="#A26565"/>
<path d="M109.427 229.788C109.473 236.94 107.395 243.931 104.955 250.639C103.989 253.3 102.964 255.938 101.881 258.553C101.238 260.102 100.514 261.823 101.202 263.352C99.2162 262.597 97.1973 262.154 95.1088 262.501C95.9032 260.88 95.8271 258.993 95.8635 257.206C95.9309 254.756 96.192 252.316 96.6446 249.908C97.3456 246.243 98.5472 242.691 100.216 239.353C100.553 238.649 100.786 237.9 100.907 237.129C101.179 235.428 100.967 233.68 100.613 231.996C99.851 228.275 98.4032 224.728 96.3434 221.537L96.3235 221.749C96.1999 222.813 96.0209 223.87 95.7873 224.916C95.3207 227.13 94.7746 229.348 94.8573 231.575C94.9436 233.937 94.7973 236.302 94.4204 238.635C94.299 239.551 94.0599 240.448 93.7088 241.303C93.4804 241.816 93.1826 242.296 93.0038 242.828C92.8249 243.441 92.7314 244.076 92.7258 244.715C92.4611 250.1 92.7258 255.568 93.8247 260.847C91.9811 260.701 90.1376 261.234 88.4894 262.061C87.2006 258.282 86.259 254.394 85.6761 250.444C84.9579 245.773 85.1038 241.009 86.1064 236.391C86.4188 234.851 86.5356 233.277 86.4539 231.708C86.3116 228.58 85.5437 225.522 84.7791 222.483L83.6141 217.85C83.0625 215.643 82.5109 213.447 81.9593 211.26C81.5919 209.801 81.2212 208.308 81.337 206.805C81.4178 205.981 81.591 205.168 81.8533 204.382C82.6797 201.71 83.9157 199.182 85.5172 196.889C91.8951 197.247 98.3491 196.651 104.714 196.161C105.022 196.1 105.343 196.154 105.614 196.313C105.831 196.534 105.96 196.825 105.978 197.134L108.371 210.704C108.758 212.59 108.985 214.506 109.049 216.43C109.049 218.35 108.752 220.263 108.824 222.179C108.924 224.761 109.414 227.203 109.427 229.788Z" fill="#454B69"/>
<path opacity="0.1" d="M96.3303 221.749C96.2066 222.813 96.0277 223.871 95.7941 224.916C94.4073 222.517 92.9113 220.177 91.6338 217.718C91.3028 217.086 90.9917 216.444 90.6773 215.801L89.734 213.882C89.5586 213.521 89.3831 213.16 89.2243 212.793C88.9656 212.265 88.7669 211.71 88.6318 211.138C89.0952 211.052 90.2404 212.303 90.5846 212.631C91.2867 213.326 91.9497 214.06 92.5704 214.828C93.3244 215.683 94.0167 216.59 94.6423 217.542C95.4433 218.837 96.0144 220.26 96.3303 221.749Z" fill="black"/>
<path d="M101.641 155.915C101.641 155.915 98.1 161.558 98.7554 162.74C99.4107 163.922 87.6016 161.691 87.6016 161.691C87.6016 161.691 94.0324 156.048 93.3737 153.685C92.7151 151.321 101.641 155.915 101.641 155.915Z" fill="#EFB7B9"/>
<path d="M98.4945 157.623C102.916 157.623 106.501 154.038 106.501 149.617C106.501 145.195 102.916 141.61 98.4945 141.61C94.0728 141.61 90.4883 145.195 90.4883 149.617C90.4883 154.038 94.0728 157.623 98.4945 157.623Z" fill="#EFB7B9"/>
<path d="M101.761 161.833C100.904 160.643 99.7409 159.708 98.3952 159.125C97.6198 158.847 96.818 158.65 96.0023 158.536L92.8084 157.973C92.0273 157.834 91.1899 157.705 90.4618 158.026C90.0936 158.215 89.7583 158.462 89.4689 158.758C88.3601 159.787 87.2844 160.916 85.891 161.511C85.5104 161.674 85.1133 161.793 84.7326 161.955C83.1738 162.617 82.0087 164.027 81.3501 165.596C80.655 167.231 80.6352 169.008 80.6881 170.785C80.6872 171.399 80.7482 172.011 80.8702 172.612C81.0295 173.185 81.232 173.745 81.4759 174.287C81.9159 175.447 82.2851 176.633 82.5813 177.838C83.4087 181.005 84.0972 184.204 84.6466 187.437C84.6932 187.9 84.8292 188.349 85.0471 188.761C85.3556 189.172 85.729 189.531 86.1525 189.823C86.4885 190.099 86.7977 190.406 87.0759 190.74C87.2146 190.876 87.318 191.044 87.3771 191.23C87.4797 191.706 87.0461 192.117 86.7152 192.464C86.0029 193.191 85.488 194.087 85.2192 195.069C85.0532 195.27 84.9682 195.526 84.9809 195.787C85.0498 195.968 85.0759 196.163 85.057 196.356C84.9918 196.532 84.889 196.691 84.7558 196.823C84.6031 197.022 84.4946 197.251 84.4375 197.496C84.3804 197.74 84.3761 197.994 84.4248 198.24C86.9057 199.318 89.5607 199.939 92.2623 200.073C92.9242 200.106 93.5862 200.106 94.2481 200.186C94.7181 200.245 95.1815 200.341 95.6515 200.398C96.3335 200.462 97.0191 200.479 97.7035 200.45C101.268 200.378 104.935 200.288 108.209 198.875C108.516 197.197 107.851 195.486 107.434 193.831C106.772 191.183 106.607 188.473 106.11 185.802C105.779 183.978 105.283 182.181 105.001 180.344C104.72 178.507 104.671 176.604 105.16 174.817C105.607 173.235 105.743 171.619 106.206 170.041C106.67 168.462 106.994 166.751 106.471 165.189C105.809 163.256 103.8 161.723 101.761 161.833Z" fill="#0B5F73"/>
<path d="M105.693 145.37C106.084 143.95 105.316 142.471 104.402 141.316C103.41 140.075 102.145 138.956 100.593 138.645C99.3319 138.39 98.0246 138.698 96.7404 138.595C95.6052 138.506 94.513 138.095 93.3844 137.933C92.3603 137.823 91.3257 137.862 90.3129 138.049C89.3518 138.192 88.4123 138.454 87.5162 138.83C84.1072 140.343 82.1114 144.07 81.648 147.767C81.1847 151.463 81.9956 155.19 82.8031 158.828L83.5346 162.118C84.2958 165.543 85.0571 168.982 85.259 172.484C85.4609 175.985 85.0835 179.58 83.6438 182.777C88.2998 180.276 91.9075 176.192 93.8146 171.262C94.3309 169.909 94.7149 168.502 95.2908 167.172C95.7839 166.026 96.4161 164.941 96.853 163.772C97.3468 162.454 97.5838 161.053 97.5513 159.645C97.5248 158.586 97.3494 157.534 97.3792 156.474C97.409 155.415 97.6804 154.313 98.4118 153.545C99.0738 152.867 99.984 152.552 100.821 152.112C102.14 151.435 103.291 150.474 104.194 149.299C104.72 148.61 104.75 148.306 104.882 147.525C105.015 146.744 105.488 146.122 105.693 145.37Z" fill="#A26565"/>
<path d="M105.704 205.511C105.786 206.336 105.637 207.166 105.816 207.984C105.952 208.593 106.266 209.142 106.452 209.738C106.635 210.426 106.729 211.134 106.733 211.846C106.759 212.442 106.713 213.17 106.183 213.448C105.952 213.571 105.674 213.571 105.432 213.677C105.191 213.782 104.985 214.07 105.124 214.295C105.263 214.52 105.502 214.484 105.72 214.527C105.939 214.57 106.174 214.795 106.051 214.977C106.001 215.037 105.934 215.08 105.859 215.1C105.638 215.168 105.428 215.268 105.237 215.398C105.143 215.466 105.07 215.558 105.025 215.665C104.98 215.772 104.965 215.889 104.982 216.003C104.995 216.058 105.021 216.109 105.057 216.153C105.093 216.196 105.138 216.231 105.189 216.255C105.24 216.278 105.296 216.29 105.353 216.289C105.409 216.288 105.465 216.274 105.515 216.248C105.418 216.456 105.365 216.681 105.359 216.91C106.207 217.274 107.157 216.798 107.951 216.338C108.294 216.146 108.626 215.934 108.944 215.702C109.586 215.209 110.098 214.566 110.435 213.829C110.772 213.092 110.924 212.284 110.877 211.476C110.839 211.069 110.776 210.666 110.688 210.267C110.566 209.574 110.403 208.887 110.201 208.212C109.973 207.501 109.662 206.822 109.394 206.124C108.825 204.638 108.457 203.082 107.941 201.576C107.906 201.42 107.819 201.281 107.693 201.182C107.579 201.126 107.452 201.102 107.325 201.113C106.746 201.082 106.165 201.136 105.601 201.272C105.27 201.371 104.704 201.603 104.548 201.934C104.393 202.265 104.641 202.543 104.79 202.817C105.266 203.648 105.576 204.563 105.704 205.511Z" fill="#EFB7B9"/>
<path opacity="0.1" d="M105.164 165.295C105.334 165.469 105.476 165.668 105.587 165.884C106.726 167.953 106.739 170.425 106.792 172.785C106.852 175.433 106.997 178.08 107.143 180.745L107.576 188.688C107.62 189.446 107.659 190.204 107.768 190.955C108.278 191.084 108.298 191.746 108.242 192.279C107.874 195.516 106.964 198.849 107.911 201.963C107.947 202.123 108.024 202.271 108.133 202.394C107.652 202.243 107.138 202.236 106.653 202.374C106.18 202.473 105.723 202.649 105.246 202.758C104.644 202.894 103.962 202.953 103.552 203.42C103.087 202.021 102.716 200.592 102.443 199.144C102.218 197.82 102.155 196.456 101.619 195.231C101.404 194.738 101.113 194.282 100.848 193.808C99.461 191.333 98.7792 188.536 98.1139 185.776C97.8154 184.467 97.7438 183.117 97.9021 181.784C97.9984 181.176 98.0537 180.562 98.0676 179.947C98.0273 179.298 97.9422 178.652 97.8128 178.014C97.5316 176.143 97.6638 174.232 98.2 172.417C98.6965 170.733 99.1333 168.959 100.186 167.542C101.238 166.126 103.406 165.318 105.164 165.295Z" fill="black"/>
<path d="M105.557 165.03C105.727 165.206 105.87 165.405 105.981 165.623C107.12 167.688 107.133 170.164 107.186 172.523C107.245 175.171 107.391 177.819 107.537 180.467L107.97 188.41C108.013 189.168 108.053 189.926 108.162 190.677C108.672 190.806 108.692 191.468 108.632 192.001C108.268 195.238 107.358 198.568 108.301 201.686C108.338 201.845 108.414 201.993 108.523 202.116C108.042 201.965 107.528 201.958 107.044 202.096C106.57 202.195 106.114 202.371 105.637 202.477C105.035 202.616 104.353 202.672 103.942 203.139C103.479 201.733 103.112 200.298 102.844 198.843C102.618 197.519 102.556 196.158 102.019 194.934C101.787 194.447 101.529 193.972 101.248 193.511C99.8581 191.035 99.1796 188.235 98.5144 185.474C98.2158 184.166 98.1441 182.816 98.3026 181.483C98.5518 180.235 98.5213 178.948 98.2132 177.713C97.932 175.843 98.0641 173.934 98.6004 172.12C99.0969 170.435 99.5338 168.661 100.586 167.244C101.639 165.828 103.8 165.057 105.557 165.03Z" fill="#0B5F73"/>
<g opacity="0.1">
<path opacity="0.1" d="M104.402 141.316C103.409 140.075 102.145 138.956 100.593 138.645C99.3317 138.39 98.0243 138.698 96.7401 138.595C95.6049 138.506 94.5127 138.095 93.3841 137.933C92.36 137.823 91.3254 137.862 90.3126 138.049C89.3515 138.192 88.412 138.454 87.5159 138.83C87.0319 139.047 86.5697 139.31 86.1357 139.615C86.9334 139.305 87.7624 139.083 88.6081 138.953C89.6198 138.765 90.6533 138.726 91.6762 138.837C92.8082 138.982 93.8971 139.39 95.0356 139.479C96.3165 139.582 97.6238 139.277 98.8882 139.529C100.44 139.84 101.711 140.962 102.694 142.203C103.611 143.355 104.376 144.834 103.988 146.257C103.783 147.005 103.307 147.661 103.178 148.432C103.048 149.203 103.015 149.517 102.486 150.206C101.807 151.089 100.986 151.853 100.056 152.466C100.311 152.347 100.573 152.228 100.821 152.099C102.139 151.422 103.291 150.461 104.194 149.286C104.72 148.597 104.75 148.293 104.882 147.512C105.014 146.731 105.488 146.088 105.693 145.337C106.084 143.95 105.316 142.471 104.402 141.316Z" fill="black"/>
<path opacity="0.1" d="M98.4116 153.565C98.5487 153.423 98.6982 153.293 98.8584 153.178C98.0939 153.548 97.2896 153.873 96.7038 154.502C95.9723 155.266 95.7108 156.372 95.6711 157.431C95.6314 158.49 95.8201 159.542 95.8432 160.598C95.8758 162.007 95.6387 163.409 95.1449 164.729C94.708 165.897 94.0758 166.979 93.5827 168.128C93.0101 169.452 92.6262 170.862 92.1098 172.215C90.4553 176.489 87.5172 180.145 83.6998 182.681C83.68 182.724 83.6634 182.77 83.6436 182.813C88.2996 180.312 91.9072 176.228 93.8144 171.299C94.3307 169.945 94.7146 168.538 95.2905 167.208C95.7837 166.063 96.4158 164.977 96.8527 163.809C97.3465 162.49 97.5836 161.089 97.5511 159.681C97.5246 158.622 97.3492 157.57 97.3789 156.511C97.4087 155.452 97.6801 154.333 98.4116 153.565Z" fill="black"/>
</g>
</g>
<defs>
<linearGradient id="paint0_linear" x1="94.8834" y1="272.355" x2="94.8834" y2="136.689" gradientUnits="userSpaceOnUse">
<stop stop-color="#808080" stop-opacity="0.25"/>
<stop offset="0.54" stop-color="#808080" stop-opacity="0.12"/>
<stop offset="1" stop-color="#808080" stop-opacity="0.1"/>
</linearGradient>
<clipPath id="clip0">
<rect width="374" height="275.224" fill="white"/>
</clipPath>
</defs>
</svg>
