<svg width="100" height="100" viewBox="0 0 100 100" fill="none" xmlns="http://www.w3.org/2000/svg">
<path d="M30.666 5.85938C29.857 5.85938 29.2012 6.51523 29.2012 7.32422C29.2012 8.1332 29.857 8.78906 30.666 8.78906C31.475 8.78906 32.1309 8.1332 32.1309 7.32422C32.1309 6.51523 31.475 5.85938 30.666 5.85938ZM36.5254 5.85938C35.7164 5.85938 35.0605 6.51523 35.0605 7.32422C35.0605 8.1332 35.7164 8.78906 36.5254 8.78906C37.3344 8.78906 37.9902 8.1332 37.9902 7.32422C37.9902 6.51523 37.3344 5.85938 36.5254 5.85938ZM24.8066 5.85938C23.9977 5.85938 23.3418 6.51523 23.3418 7.32422C23.3418 8.1332 23.9977 8.78906 24.8066 8.78906C25.6156 8.78906 26.2715 8.1332 26.2715 7.32422C26.2715 6.51523 25.6156 5.85938 24.8066 5.85938ZM93.9828 5.85938H82.5176V3.80859C82.5176 1.70859 80.809 0 78.709 0H21.291C19.191 0 17.4824 1.70859 17.4824 3.80859V8.40625H7.32422C3.28555 8.40625 0 11.6918 0 15.7305V70.8906C0 74.9293 3.28555 78.2148 7.32422 78.2148H41.5789L40.4633 86.5068H38.8311C37.4754 86.5068 36.2758 87.4191 35.9137 88.725L33.8508 96.1635C33.5955 97.0828 33.7807 98.0457 34.358 98.8051C34.9354 99.5645 35.8139 100 36.768 100H63.232C64.1861 100 65.0647 99.5645 65.642 98.8051C66.2193 98.0457 66.4043 97.0828 66.1494 96.1637L64.0863 88.7254C63.7242 87.4191 62.5248 86.5068 61.1689 86.5068H59.5367L58.4211 78.2148H92.6758C96.7145 78.2148 100 74.9293 100 70.8906V11.8764C100 8.55859 97.3008 5.85938 93.9828 5.85938ZM20.4121 14.6484H44.1406C44.9498 14.6484 45.6055 13.9926 45.6055 13.1836C45.6055 12.3746 44.9498 11.7188 44.1406 11.7188H20.4121V3.80859C20.4121 3.32402 20.8064 2.92969 21.291 2.92969H78.709C79.1936 2.92969 79.5879 3.32402 79.5879 3.80859V5.85938H69.932C66.667 5.85938 64.0033 8.47363 63.9191 11.7188H50.9766C50.1674 11.7188 49.5117 12.3746 49.5117 13.1836C49.5117 13.9926 50.1674 14.6484 50.9766 14.6484H63.915V22.2533C63.915 25.5711 66.6141 28.2703 69.932 28.2703H72.8346V31.0811C72.8346 31.9219 73.3365 32.6732 74.1135 32.9951C74.8824 33.3137 75.7734 33.1441 76.3717 32.5461L79.5881 29.3297V52.1934C79.5881 53.0023 80.2438 53.6582 81.0529 53.6582C81.8621 53.6582 82.5178 53.0023 82.5178 52.1934V28.2703H91.2109V66.4961H82.5176V59.0293C82.5176 58.2203 81.8619 57.5645 81.0527 57.5645C80.2436 57.5645 79.5879 58.2203 79.5879 59.0293V66.4959H68.0859V57.832C68.0859 53.8647 65.7004 50.3633 62.0092 48.9123L58.0518 47.3555C57.0404 46.9578 56.3869 45.9986 56.3869 44.9121V43.2564C58.8463 41.3461 60.4334 38.3635 60.4334 35.0152V24.0773C60.4334 20.6824 57.6713 17.9205 54.2766 17.9205H45.724C42.3291 17.9205 39.5672 20.6826 39.5672 24.0773V35.0152C39.5672 38.3633 41.1543 41.3461 43.6137 43.2564V44.9121C43.6137 45.9986 42.96 46.9578 41.9484 47.3555L37.9918 48.9121C34.3002 50.3633 31.9146 53.8647 31.9146 57.832V66.4961H20.4121V14.6484ZM57.832 60.9805C57.0229 60.9805 56.3672 61.6363 56.3672 62.4453V66.4961H43.6328V62.4453C43.6328 61.6363 42.9771 60.9805 42.168 60.9805C41.3588 60.9805 40.7031 61.6363 40.7031 62.4453V66.4961H34.8438V57.832C34.8438 55.0773 36.4998 52.6463 39.0635 51.6387L42.6668 50.2211C44.6182 52.135 47.2334 53.2143 49.9998 53.2143C52.7662 53.2143 55.3814 52.135 57.3328 50.2211L60.9365 51.6387C63.4998 52.6463 65.1561 55.0773 65.1561 57.832V66.4961H59.2967V62.4453C59.2969 61.6363 58.641 60.9805 57.832 60.9805ZM43.5939 32.7834C45.6535 32.7834 47.69 32.4377 49.5951 31.7564C50.698 31.3619 51.7629 30.8555 52.7715 30.2457C53.298 30.8391 54.0281 31.4668 55.0096 31.9408C55.9004 32.3711 56.7633 32.5574 57.5037 32.6213V35.0154C57.5037 39.1529 54.1377 42.5189 50.0002 42.5189C45.8627 42.5189 42.4967 39.1529 42.4967 35.0154V32.7477C42.8627 32.7693 43.2287 32.7834 43.5939 32.7834ZM42.4965 29.8133V24.0773C42.4965 22.2979 43.9441 20.8502 45.7236 20.8502H54.2762C56.0557 20.8502 57.5033 22.298 57.5033 24.0773V29.6748C57.1273 29.6199 56.7107 29.5092 56.2834 29.3027C55.4086 28.8803 54.8699 28.2471 54.5721 27.7904C54.3021 27.3762 53.8689 27.0832 53.3838 26.9867C52.8965 26.8902 52.3824 26.9957 51.9721 27.2766C50.9238 27.9953 49.792 28.5744 48.6082 28.9979C46.6832 29.6861 44.5924 29.9619 42.4965 29.8133ZM54.8113 48.5508C53.4684 49.6637 51.7779 50.2846 50 50.2846C48.2221 50.2846 46.5316 49.6637 45.1887 48.5508C46.0449 47.5648 46.543 46.2881 46.543 44.9123V44.8574C47.6256 45.2389 48.7885 45.4486 50 45.4486C51.2115 45.4486 52.3744 45.2389 53.457 44.8574V44.9123C53.457 46.2881 53.9551 47.5648 54.8113 48.5508ZM61.1691 89.4365C61.2129 89.4365 61.2516 89.4658 61.2631 89.5078V89.508L63.3262 96.9467C63.3447 96.9939 63.2828 97.0758 63.232 97.0703H36.768C36.717 97.0756 36.6547 96.9945 36.674 96.9465L38.7371 89.5076C38.7488 89.4656 38.7875 89.4363 38.8311 89.4363H61.1691V89.4365ZM43.4191 86.5068L44.5348 78.2148H55.465L56.5807 86.5068H43.4191ZM97.0703 70.8906C97.0703 73.3139 95.0988 75.2852 92.6758 75.2852H7.32422C4.90117 75.2852 2.92969 73.3139 2.92969 70.8906V15.7305C2.92969 13.3072 4.90117 11.3359 7.32422 11.3359H17.4824V14.2656H8.10547C6.86699 14.2656 5.85938 15.2732 5.85938 16.5117V67.1797C5.85938 68.4182 6.86699 69.4258 8.10547 69.4258H91.8945C93.133 69.4258 94.1406 68.4182 94.1406 67.1797V28.2664C95.2092 28.2387 96.2094 27.9324 97.0703 27.4156V70.8906ZM17.4824 17.1953V66.4961H8.78906V17.1953H17.4824ZM97.0703 22.2533C97.0703 23.9557 95.6853 25.3406 93.9828 25.3406C92.3482 25.3406 82.1283 25.3406 80.4801 25.3406C79.8051 25.3406 79.1703 25.6035 78.6934 26.0809L75.7643 29.0102V27.8678C75.7643 26.4744 74.6307 25.3408 73.2373 25.3408H69.932C68.2297 25.3408 66.8447 23.9559 66.8447 22.2535V11.8766C66.8447 10.1742 68.2297 8.78926 69.932 8.78926H93.983C95.6853 8.78906 97.0703 10.174 97.0703 11.8764V22.2533ZM91.9074 18.5297H72.0074C71.1982 18.5297 70.5426 19.1855 70.5426 19.9945C70.5426 20.8035 71.1982 21.4594 72.0074 21.4594H91.9076C92.7168 21.4594 93.3725 20.8035 93.3725 19.9945C93.3725 19.1855 92.7166 18.5297 91.9074 18.5297ZM91.9074 12.6703H72.0074C71.1982 12.6703 70.5426 13.3262 70.5426 14.1352C70.5426 14.9441 71.1982 15.6 72.0074 15.6H91.9076C92.7168 15.6 93.3725 14.9441 93.3725 14.1352C93.3725 13.3262 92.7166 12.6703 91.9074 12.6703Z" fill="#3A3A3A"/>
</svg>
