<svg width="100" height="100" viewBox="0 0 100 100" fill="none" xmlns="http://www.w3.org/2000/svg">
<path d="M38.0879 51.7242C37.2789 51.7242 36.623 52.3801 36.623 53.1891V56.7834H26.2715V46.4318H31.1523C31.9613 46.4318 32.6172 45.776 32.6172 44.967C32.6172 44.158 31.9613 43.5021 31.1523 43.5021H26.1738C24.6123 43.5021 23.3418 44.7727 23.3418 46.3342V56.8811C23.3418 58.4426 24.6123 59.7131 26.1738 59.7131H36.7207C38.2822 59.7131 39.5527 58.4426 39.5527 56.8811V53.1891C39.5527 52.3801 38.8969 51.7242 38.0879 51.7242ZM32.1309 7.32422C32.1309 6.51523 31.475 5.85938 30.666 5.85938C29.857 5.85938 29.2012 6.51523 29.2012 7.32422C29.2012 8.1332 29.857 8.78906 30.666 8.78906C31.475 8.78906 32.1309 8.1332 32.1309 7.32422ZM24.8066 5.85938C23.9977 5.85938 23.3418 6.51523 23.3418 7.32422C23.3418 8.1332 23.9977 8.78906 24.8066 8.78906C25.6156 8.78906 26.2715 8.1332 26.2715 7.32422C26.2715 6.51523 25.6156 5.85938 24.8066 5.85938ZM30.4809 48.8338C29.9088 48.2617 28.9812 48.2617 28.4094 48.8338C27.8373 49.4059 27.8373 50.3334 28.4094 50.9053L30.5539 53.0498C30.9537 53.4494 31.4787 53.6492 32.0039 53.6492C32.5291 53.6492 33.0543 53.4492 33.4539 53.0496L38.7824 47.7211C39.3545 47.149 39.3545 46.2215 38.7824 45.6496C38.2104 45.0775 37.2828 45.0775 36.7109 45.6496L32.0039 50.3566L30.4809 48.8338ZM98.5352 54.3047C99.3443 54.3047 100 53.6488 100 52.8398V15.7305C100 11.6918 96.7145 8.40625 92.6758 8.40625H82.5176V3.80859C82.5176 1.70859 80.809 0 78.709 0H21.291C19.191 0 17.4824 1.70859 17.4824 3.80859V8.40625H7.32422C3.28555 8.40625 0 11.6918 0 15.7305V70.8906C0 74.9293 3.28555 78.2148 7.32422 78.2148H41.5787L40.4631 86.5068H38.8309C37.4756 86.5068 36.276 87.4189 35.9137 88.725L33.8506 96.1635C33.5955 97.0828 33.7807 98.0457 34.358 98.8049C34.9355 99.5643 35.8139 99.9998 36.7678 99.9998H63.232C64.1861 99.9998 65.0647 99.5643 65.642 98.8049C66.2193 98.0455 66.4043 97.0826 66.1494 96.1635L64.0863 88.7252C63.7242 87.4189 62.5248 86.5066 61.1689 86.5066H59.5367L58.4211 78.2147H92.6758C96.7145 78.2147 100 74.9291 100 70.8904V59.6756C100 58.8666 99.3443 58.2107 98.5352 58.2107C97.726 58.2107 97.0703 58.8666 97.0703 59.6756V70.8904C97.0703 73.3137 95.0988 75.285 92.6758 75.285H7.32422C4.90098 75.285 2.92969 73.3137 2.92969 70.8904V15.7305C2.92969 13.3072 4.90098 11.3359 7.32422 11.3359H17.4824V14.2656H8.10547C6.86699 14.2656 5.85938 15.2732 5.85938 16.5117V67.1797C5.85938 68.4182 6.86699 69.4258 8.10547 69.4258H91.8945C93.133 69.4258 94.1406 68.4182 94.1406 67.1797V16.5117C94.1406 15.2732 93.133 14.2656 91.8945 14.2656H82.5176V11.3359H92.6758C95.0988 11.3359 97.0703 13.3072 97.0703 15.7305V52.8398C97.0703 53.6488 97.726 54.3047 98.5352 54.3047ZM61.1691 89.4365C61.2129 89.4365 61.2516 89.4658 61.2631 89.5078V89.508L63.3262 96.9467C63.3447 96.9939 63.2828 97.0758 63.232 97.0703H36.7678C36.7174 97.0758 36.6547 96.9943 36.6736 96.9465L38.7367 89.508C38.7484 89.4658 38.7871 89.4363 38.8309 89.4363H61.1691V89.4365ZM44.535 78.2148H55.4652L56.5809 86.5068H43.4191L44.535 78.2148ZM17.4824 66.4961H8.78906V17.1953H17.4824V66.4961ZM79.5879 11.7188H36.7123C35.9033 11.7188 35.2475 12.3746 35.2475 13.1836C35.2475 13.9926 35.9033 14.6484 36.7123 14.6484H79.5879V66.4961H20.4121V14.6484H29.8764C30.6854 14.6484 31.3412 13.9926 31.3412 13.1836C31.3412 12.3746 30.6854 11.7188 29.8764 11.7188H20.4121V3.80859C20.4121 3.32402 20.8064 2.92969 21.291 2.92969H78.709C79.1936 2.92969 79.5879 3.32402 79.5879 3.80859V11.7188ZM91.2109 17.1953V66.4961H82.5176V17.1953H91.2109ZM30.4809 26.7635C29.9088 26.1914 28.9812 26.1914 28.4094 26.7635C27.8373 27.3355 27.8373 28.2631 28.4094 28.835L30.5539 30.9795C30.9537 31.3791 31.4787 31.5789 32.0039 31.5789C32.5291 31.5789 33.0543 31.3789 33.4539 30.9793L38.7824 25.6508C39.3545 25.0787 39.3545 24.1512 38.7824 23.5793C38.2104 23.0072 37.2828 23.0072 36.7109 23.5793L32.0039 28.2863L30.4809 26.7635ZM36.5254 5.85938C35.7164 5.85938 35.0605 6.51523 35.0605 7.32422C35.0605 8.1332 35.7164 8.78906 36.5254 8.78906C37.3344 8.78906 37.9902 8.1332 37.9902 7.32422C37.9902 6.51523 37.3344 5.85938 36.5254 5.85938ZM38.0879 29.6539C37.2789 29.6539 36.623 30.3098 36.623 31.1188V34.7131H26.2715V24.3615H31.1523C31.9613 24.3615 32.6172 23.7057 32.6172 22.8967C32.6172 22.0877 31.9613 21.4318 31.1523 21.4318H26.1738C24.6123 21.4318 23.3418 22.7023 23.3418 24.2639V34.8107C23.3418 36.3723 24.6123 37.6428 26.1738 37.6428H36.7207C38.2822 37.6428 39.5527 36.3723 39.5527 34.8107V31.1188C39.5527 30.3098 38.8969 29.6539 38.0879 29.6539ZM43.9473 46.4318H75.1934C76.0025 46.4318 76.6582 45.776 76.6582 44.967C76.6582 44.158 76.0025 43.5021 75.1934 43.5021H43.9473C43.1383 43.5021 42.4824 44.158 42.4824 44.967C42.4824 45.776 43.1383 46.4318 43.9473 46.4318ZM43.9473 30.2209H75.1934C76.0025 30.2209 76.6582 29.565 76.6582 28.7561C76.6582 27.9471 76.0025 27.2912 75.1934 27.2912H43.9473C43.1383 27.2912 42.4824 27.9471 42.4824 28.7561C42.4824 29.565 43.1383 30.2209 43.9473 30.2209ZM43.9473 24.3615H75.1934C76.0025 24.3615 76.6582 23.7057 76.6582 22.8967C76.6582 22.0877 76.0025 21.4318 75.1934 21.4318H43.9473C43.1383 21.4318 42.4824 22.0877 42.4824 22.8967C42.4824 23.7057 43.1383 24.3615 43.9473 24.3615ZM43.9473 52.2912H75.1934C76.0025 52.2912 76.6582 51.6353 76.6582 50.8264C76.6582 50.0174 76.0025 49.3615 75.1934 49.3615H43.9473C43.1383 49.3615 42.4824 50.0174 42.4824 50.8264C42.4824 51.6353 43.1383 52.2912 43.9473 52.2912Z" fill="#3A3A3A"/>
</svg>
