<svg width="100" height="100" viewBox="0 0 100 100" fill="none" xmlns="http://www.w3.org/2000/svg">
<path d="M71.0059 52.9418L71.7137 52.2342C72.3078 51.6398 72.5197 50.7729 72.2664 49.9713C72.0131 49.1697 71.3416 48.582 70.5135 48.4373L61.2785 46.8211C60.5592 46.6951 59.8215 46.9283 59.3051 47.4445C58.7885 47.9609 58.5555 48.6988 58.6814 49.4182L60.2975 58.6531C60.4424 59.4809 61.0303 60.1525 61.8316 60.4059C62.6332 60.6596 63.5004 60.4471 64.0945 59.8531L64.8023 59.1453L69.1502 63.4932C70.0062 64.358 71.465 64.3615 72.324 63.4936L75.3539 60.4637C76.2287 59.5887 76.2287 58.165 75.3539 57.29L71.0059 52.9418ZM70.7373 60.9367L66.3889 56.5883C65.9514 56.1512 65.3768 55.9326 64.8023 55.9326C64.1012 55.9326 63.4256 56.2885 62.9561 56.8482L61.7357 49.875L68.7088 51.0955C67.6283 51.9352 67.4705 53.5551 68.4492 54.5285L72.7975 58.8766L70.7373 60.9367ZM56.9629 44.3576C57.7721 44.3576 58.4277 43.702 58.4277 42.8928V40.8871L61.0445 43.8605C61.5809 44.4697 62.5068 44.5248 63.1119 43.9924C63.7191 43.458 63.7781 42.5322 63.2438 41.925L61.0709 39.4563C62.5586 38.8627 63.609 37.4482 63.609 35.7998C63.609 33.6188 61.7713 31.8443 59.5125 31.8443H56.9658C56.9652 31.8443 56.9648 31.8443 56.9643 31.8443C56.9637 31.8443 56.9633 31.8443 56.9627 31.8443C56.1535 31.8443 55.4978 32.5 55.4978 33.3092V42.8926C55.498 43.702 56.1539 44.3576 56.9629 44.3576ZM59.5127 34.7742C60.1451 34.7742 60.6795 35.2439 60.6795 35.8C60.6795 36.3561 60.1453 36.8258 59.5127 36.8258C59.2557 36.8258 58.8514 36.8273 58.4406 36.8291C58.4387 36.433 58.4365 35.1908 58.4354 34.7742H59.5127ZM67.6652 44.3576C68.4744 44.3576 69.1301 43.702 69.1301 42.8928V38.0264L72.9281 43.5262C73.348 44.1328 74.0523 44.3891 74.723 44.1797C75.4047 43.9664 75.8453 43.3348 75.8453 42.5559L75.7557 33.2953C75.7478 32.491 75.0936 31.8445 74.2912 31.8445H74.2768C73.4676 31.8523 72.8182 32.5146 72.826 33.3234L72.8742 38.2926L68.8705 32.4947C68.5062 31.9672 67.8418 31.7383 67.2291 31.9287C66.6172 32.1195 66.2002 32.6861 66.2002 33.3271V42.8928C66.2004 43.702 66.8563 44.3576 67.6652 44.3576ZM48.1246 29.4092H51.8752C52.6844 29.4092 53.34 28.7535 53.34 27.9443C53.34 27.1352 52.6844 26.4795 51.8752 26.4795H49.5895V24.9586H51.5986C52.4078 24.9586 53.0635 24.3029 53.0635 23.4937C53.0635 22.6846 52.4078 22.0289 51.5986 22.0289H49.5895V20.5078H51.8752C52.6844 20.5078 53.34 19.8521 53.34 19.043C53.34 18.2338 52.6844 17.5781 51.8752 17.5781H48.1246C47.3154 17.5781 46.6598 18.2338 46.6598 19.043V27.9443C46.6598 28.7535 47.3156 29.4092 48.1246 29.4092ZM35.0605 7.32422C35.0605 8.1332 35.7164 8.78906 36.5254 8.78906C37.3344 8.78906 37.9902 8.1332 37.9902 7.32422C37.9902 6.51523 37.3344 5.85938 36.5254 5.85938C35.7164 5.85938 35.0605 6.51523 35.0605 7.32422ZM43.4006 44.2617C44.1387 44.543 45.0006 44.1799 45.291 43.4143L45.8279 42.0045H49.5875L50.118 43.41C50.4035 44.1668 51.2488 44.549 52.0057 44.2631C52.7625 43.9775 53.1445 43.1324 52.8588 42.3754L49.293 32.9266C49.0453 32.2713 48.4189 31.8443 47.7219 31.8445H47.7209C47.0215 31.8447 46.4045 32.2717 46.1518 32.9229L42.5531 42.3713C42.265 43.1275 42.6447 43.9738 43.4006 44.2617ZM47.7164 37.0463L48.482 39.075H46.9438L47.7164 37.0463ZM29.2012 7.32422C29.2012 8.1332 29.857 8.78906 30.666 8.78906C31.475 8.78906 32.1309 8.1332 32.1309 7.32422C32.1309 6.51523 31.475 5.85938 30.666 5.85938C29.857 5.85938 29.2012 6.51523 29.2012 7.32422ZM23.3418 7.32422C23.3418 8.1332 23.9977 8.78906 24.8066 8.78906C25.6156 8.78906 26.2715 8.1332 26.2715 7.32422C26.2715 6.51523 25.6156 5.85938 24.8066 5.85938C23.9977 5.85938 23.3418 6.51523 23.3418 7.32422ZM92.6758 8.40625H82.5176V3.80859C82.5176 1.70859 80.809 0 78.709 0H70.1791C69.3699 0 68.7143 0.655664 68.7143 1.46484C68.7143 2.27402 69.3699 2.92969 70.1791 2.92969H78.709C79.1936 2.92969 79.5879 3.32402 79.5879 3.80859V11.7188H20.4121V3.80859C20.4121 3.32402 20.8064 2.92969 21.291 2.92969H63.3434C64.1525 2.92969 64.8082 2.27402 64.8082 1.46484C64.8082 0.655664 64.1525 0 63.3434 0H21.291C19.191 0 17.4824 1.70859 17.4824 3.80859V8.40625H7.32422C3.28555 8.40625 0 11.6918 0 15.7305V70.8906C0 74.9293 3.28555 78.2148 7.32422 78.2148H41.5789L40.4633 86.5068H38.8311C37.4754 86.5068 36.2758 87.4191 35.9137 88.725L33.8508 96.1635C33.5955 97.0826 33.7807 98.0455 34.358 98.8049C34.9354 99.5643 35.8139 99.9998 36.768 99.9998H63.232C64.1861 99.9998 65.0647 99.5643 65.642 98.8049C66.2193 98.0453 66.4043 97.0826 66.1494 96.1637L64.0863 88.7252C63.7242 87.4189 62.5248 86.5068 61.1689 86.5068H59.5367L58.4211 78.2148H92.6758C96.7145 78.2148 100 74.9293 100 70.8906V15.7305C100 11.6918 96.7145 8.40625 92.6758 8.40625ZM82.5176 17.1953H91.2109V66.4961H82.5176V17.1953ZM18.9473 56.6856C19.7564 56.6856 20.4121 56.0299 20.4121 55.2207V14.6484H79.5879V66.4961H20.4121V62.0566C20.4121 61.2475 19.7564 60.5918 18.9473 60.5918C18.1381 60.5918 17.4824 61.2475 17.4824 62.0566V66.4959H8.78906V17.1953H17.4824V55.2207C17.4824 56.0299 18.1381 56.6856 18.9473 56.6856ZM61.1691 89.4365C61.2129 89.4365 61.2516 89.4656 61.2631 89.5076V89.5078L63.3262 96.9467C63.3303 96.9619 63.3389 96.9932 63.3098 97.0318C63.2805 97.0703 63.2478 97.0703 63.232 97.0703H36.768C36.7521 97.0703 36.7195 97.0703 36.6902 97.0318C36.6611 96.9934 36.6697 96.9621 36.674 96.9465L38.7371 89.5076C38.7488 89.4656 38.7875 89.4365 38.8311 89.4365H61.1691ZM43.4191 86.5068L44.5348 78.2148H55.465L56.5807 86.5068H43.4191ZM97.0703 70.8906C97.0703 73.3137 95.0988 75.2852 92.6758 75.2852H7.32422C4.90117 75.2852 2.92969 73.3137 2.92969 70.8906V15.7305C2.92969 13.3074 4.90117 11.3359 7.32422 11.3359H17.4824V14.2656H8.10547C6.86699 14.2656 5.85938 15.2732 5.85938 16.5117V67.1797C5.85938 68.4182 6.86699 69.4258 8.10547 69.4258H91.8945C93.133 69.4258 94.1406 68.4182 94.1406 67.1797V16.5117C94.1406 15.2732 93.133 14.2656 91.8945 14.2656H82.5176V11.3359H92.6758C95.0988 11.3359 97.0703 13.3074 97.0703 15.7305V70.8906ZM25.3721 44.3287C25.957 44.4287 27.6852 44.357 28.9832 44.3496C29.7922 44.3451 30.4443 43.6857 30.4398 42.8766C30.4354 42.0703 29.7805 41.4199 28.9752 41.4199H28.9668C28.327 41.4236 27.6531 41.4262 27.084 41.4273V33.3094C27.084 32.5002 26.4283 31.8445 25.6191 31.8445C24.81 31.8445 24.1543 32.5002 24.1543 33.3094V42.8848C24.1545 43.5986 24.6687 44.2084 25.3721 44.3287ZM34.6465 44.3576H38.6477C39.4568 44.3576 40.1125 43.702 40.1125 42.8928C40.1125 42.0836 39.4568 41.4279 38.6477 41.4279H36.1113V39.6096H38.3527C39.1619 39.6096 39.8176 38.9539 39.8176 38.1447C39.8176 37.3355 39.1619 36.6799 38.3527 36.6799H36.1113V34.8615H38.6477C39.4568 34.8615 40.1125 34.2059 40.1125 33.3967C40.1125 32.5875 39.4568 31.9318 38.6477 31.9318H34.6465C33.8373 31.9318 33.1816 32.5875 33.1816 33.3967V42.8926C33.1816 43.702 33.8373 44.3576 34.6465 44.3576Z" fill="#3A3A3A"/>
</svg>
