<svg width="362" height="280" viewBox="0 0 362 280" fill="none" xmlns="http://www.w3.org/2000/svg">
<g clip-path="url(#clip0)">
<g opacity="0.8">
<path opacity="0.8" d="M330.038 265.853H18.717V64.4947C18.717 62.8106 19.3861 61.1954 20.577 60.0045C21.7679 58.8136 23.3831 58.1445 25.0673 58.1445H323.688C325.372 58.1445 326.987 58.8136 328.178 60.0045C329.369 61.1954 330.038 62.8106 330.038 64.4947V265.853Z" fill="#484464"/>
</g>
<path d="M29.3396 61.802H319.395C321.08 61.802 322.695 62.471 323.886 63.6619C325.077 64.8528 325.746 66.468 325.746 68.1522V265.853H23.0054V68.1562C23.0044 66.4741 23.6707 64.8603 24.8583 63.669C26.0458 62.4777 27.6575 61.8063 29.3396 61.802Z" fill="white"/>
<path d="M315.999 73.6746H32.7518V259.458H315.999V73.6746Z" fill="#F5F5F5"/>
<path opacity="0.8" d="M315.883 82.6934H33.837V249.841H315.883V82.6934Z" fill="#3F3D56"/>
<path d="M315.883 73.8113H33.837V82.6935H315.883V73.8113Z" fill="#F5F5F5"/>
<path d="M39.8857 80.2738C41.0755 80.2738 42.04 79.3093 42.04 78.1196C42.04 76.9298 41.0755 75.9653 39.8857 75.9653C38.696 75.9653 37.7315 76.9298 37.7315 78.1196C37.7315 79.3093 38.696 80.2738 39.8857 80.2738Z" fill="#FF5252"/>
<path d="M45.8059 80.2738C46.9957 80.2738 47.9602 79.3093 47.9602 78.1196C47.9602 76.9298 46.9957 75.9653 45.8059 75.9653C44.6162 75.9653 43.6517 76.9298 43.6517 78.1196C43.6517 79.3093 44.6162 80.2738 45.8059 80.2738Z" fill="#FFFF00"/>
<path d="M51.7301 80.2738C52.9198 80.2738 53.8843 79.3093 53.8843 78.1196C53.8843 76.9298 52.9198 75.9653 51.7301 75.9653C50.5403 75.9653 49.5758 76.9298 49.5758 78.1196C49.5758 79.3093 50.5403 80.2738 51.7301 80.2738Z" fill="#69F0AE"/>
<g opacity="0.8">
<path opacity="0.8" d="M338.747 279.204C321.417 280.519 23.8012 280.008 13.4038 279.204C-0.229098 272.633 0.0200853 247.136 0.0200853 247.136L136.509 246.223L136.968 253.984H195.373L197.656 247.152H348.912C348.912 247.152 351.918 270.527 338.747 279.204Z" fill="url(#paint0_linear)"/>
</g>
<path d="M346.697 249.189H198.392C198.963 249.85 199.332 250.661 199.455 251.526C199.578 252.391 199.45 253.273 199.086 254.067C198.721 254.861 198.136 255.533 197.4 256.004C196.665 256.474 195.809 256.724 194.935 256.721H138.314C137.44 256.724 136.585 256.474 135.849 256.004C135.113 255.533 134.528 254.861 134.164 254.067C133.799 253.273 133.671 252.391 133.794 251.526C133.917 250.661 134.286 249.85 134.858 249.189H2.05378C2.05378 249.189 1.82469 271.331 15.2928 277.054C25.5616 277.737 319.54 278.195 336.658 277.054C349.684 269.502 346.697 249.189 346.697 249.189Z" fill="#484464"/>
<path d="M32.8684 255.809C33.8761 255.809 34.693 254.992 34.693 253.984C34.693 252.977 33.8761 252.16 32.8684 252.16C31.8606 252.16 31.0437 252.977 31.0437 253.984C31.0437 254.992 31.8606 255.809 32.8684 255.809Z" fill="#E0E0E0"/>
<path d="M38.3464 255.809C39.3542 255.809 40.1711 254.992 40.1711 253.984C40.1711 252.977 39.3542 252.16 38.3464 252.16C37.3387 252.16 36.5217 252.977 36.5217 253.984C36.5217 254.992 37.3387 255.809 38.3464 255.809Z" fill="#E0E0E0"/>
<path d="M43.8205 255.809C44.8282 255.809 45.6451 254.992 45.6451 253.984C45.6451 252.977 44.8282 252.16 43.8205 252.16C42.8127 252.16 41.9958 252.977 41.9958 253.984C41.9958 254.992 42.8127 255.809 43.8205 255.809Z" fill="#E0E0E0"/>
<path d="M168.755 151.059H181.692C196.562 151.059 210.823 156.966 221.337 167.48C231.852 177.995 237.759 192.255 237.759 207.125V247.883H112.688V207.125C112.688 192.255 118.595 177.995 129.11 167.48C139.624 156.966 153.885 151.059 168.755 151.059Z" fill="#6C63FF"/>
<path d="M175.346 129.259C206.915 129.259 232.506 103.668 232.506 72.0991C232.506 40.5306 206.915 14.9392 175.346 14.9392C143.778 14.9392 118.186 40.5306 118.186 72.0991C118.186 103.668 143.778 129.259 175.346 129.259Z" fill="#333333"/>
<path opacity="0.1" d="M166.93 134.411H183.461C186.552 134.411 189.517 135.639 191.702 137.825C193.888 140.011 195.116 142.976 195.116 146.067V157.425C195.116 162.151 193.239 166.684 189.897 170.026C186.555 173.368 182.022 175.246 177.295 175.246H173.079C168.353 175.246 163.82 173.368 160.478 170.026C157.136 166.684 155.259 162.151 155.259 157.425V146.083C155.259 142.992 156.487 140.027 158.672 137.841C160.858 135.655 163.823 134.427 166.914 134.427L166.93 134.411Z" fill="black"/>
<path d="M155.259 133.246H195.136V156.275C195.136 161.002 193.259 165.535 189.917 168.877C186.575 172.219 182.042 174.096 177.316 174.096H173.079C168.353 174.096 163.82 172.219 160.478 168.877C157.136 165.535 155.259 161.002 155.259 156.275V133.246Z" fill="#FDB797"/>
<path opacity="0.1" d="M155.331 138.997C168.183 143.799 182.33 143.837 195.209 139.106V134.21H155.331V138.997Z" fill="black"/>
<path d="M175.346 141.666C206.915 141.666 232.506 116.075 232.506 84.5061C232.506 52.9376 206.915 27.3462 175.346 27.3462C143.778 27.3462 118.186 52.9376 118.186 84.5061C118.186 116.075 143.778 141.666 175.346 141.666Z" fill="#FDB797"/>
<path opacity="0.1" d="M120.698 64.2737H229.697C229.697 64.2737 220.392 20.2603 179.184 23.0455C137.976 25.8308 120.698 64.2737 120.698 64.2737Z" fill="black"/>
<path d="M120.698 62.7947H229.697C229.697 62.7947 220.392 18.7813 179.184 21.5866C137.976 24.392 120.698 62.7947 120.698 62.7947Z" fill="#333333"/>
<path d="M119.368 92.042C122.305 92.042 124.685 87.5776 124.685 82.0706C124.685 76.5635 122.305 72.0991 119.368 72.0991C116.431 72.0991 114.051 76.5635 114.051 82.0706C114.051 87.5776 116.431 92.042 119.368 92.042Z" fill="#FDB797"/>
<path d="M231.027 92.042C233.964 92.042 236.344 87.5776 236.344 82.0706C236.344 76.5635 233.964 72.0991 231.027 72.0991C228.09 72.0991 225.71 76.5635 225.71 82.0706C225.71 87.5776 228.09 92.042 231.027 92.042Z" fill="#FDB797"/>
<path d="M129.158 33.6321C130.465 29.3637 132.84 25.2843 136.505 22.7402C139.291 20.807 142.622 19.8786 145.818 18.7452C150.545 17.07 155.083 14.8997 159.354 12.2704C164.201 9.28423 168.755 5.68712 174.092 3.71373C183.276 0.317573 193.504 2.15431 202.986 4.5899C205.321 5.18875 207.684 5.83984 209.742 7.10185C212.125 8.56079 213.954 10.7552 215.738 12.9055L230.786 31.0558C232.164 32.7157 233.551 34.3957 234.524 36.3249C235.431 38.1935 236.01 40.2042 236.236 42.2691C236.638 45.597 236.324 49.1258 234.628 52.0235C232.084 56.3682 226.839 58.5506 221.811 58.7516C216.783 58.9525 211.848 57.4936 207.017 56.0788C191.439 51.5171 175.668 47.2649 159.511 45.3719C151.493 44.3824 143.401 44.1201 135.336 44.5882C132.804 44.753 129.46 45.9145 127.921 43.3342C126.59 41.0956 128.471 35.8747 129.158 33.6321Z" fill="#333333"/>
<path opacity="0.05" d="M137.173 203.504V247.883" stroke="black" stroke-width="4" stroke-miterlimit="10"/>
<path opacity="0.05" d="M214.275 203.504V247.883" stroke="black" stroke-width="4" stroke-miterlimit="10"/>
<g opacity="0.8">
<path opacity="0.8" d="M361.761 79.7675H290.036L265.829 99.9515V79.7675H249.692V0H361.761V79.7675Z" fill="url(#paint1_linear)"/>
</g>
<path d="M360.242 0.948486H251.211V77.2274H360.242V0.948486Z" fill="white"/>
<path d="M349.88 12.1619H263.489V14.4286H349.88V12.1619Z" fill="#E0E0E0"/>
<path d="M322.884 22.3704H263.489V24.6371H322.884V22.3704Z" fill="#E0E0E0"/>
<path d="M334.765 32.575H263.489V34.8417H334.765V32.575Z" fill="#E0E0E0"/>
<path d="M320.726 42.7834H263.489V45.0502H320.726V42.7834Z" fill="#6C63FF"/>
<path d="M349.88 52.988H263.489V55.2548H349.88V52.988Z" fill="#6C63FF"/>
<path d="M349.88 63.1965H263.489V65.4633H349.88V63.1965Z" fill="#E0E0E0"/>
<path d="M269.864 75.7444V95.9204L292.053 73.7268L269.864 75.7444Z" fill="white"/>
</g>
<defs>
<linearGradient id="paint0_linear" x1="204058" y1="27219.2" x2="204058" y2="24379.5" gradientUnits="userSpaceOnUse">
<stop stop-color="#808080" stop-opacity="0.25"/>
<stop offset="0.54" stop-color="#808080" stop-opacity="0.12"/>
<stop offset="1" stop-color="#808080" stop-opacity="0.1"/>
</linearGradient>
<linearGradient id="paint1_linear" x1="85498.4" y1="24856.9" x2="85498.4" y2="0" gradientUnits="userSpaceOnUse">
<stop stop-color="#808080" stop-opacity="0.25"/>
<stop offset="0.54" stop-color="#808080" stop-opacity="0.12"/>
<stop offset="1" stop-color="#808080" stop-opacity="0.1"/>
</linearGradient>
<clipPath id="clip0">
<rect width="361.761" height="280" fill="white"/>
</clipPath>
</defs>
</svg>
