<svg width="437" height="280" viewBox="0 0 437 280" fill="none" xmlns="http://www.w3.org/2000/svg">
<g clip-path="url(#clip0)">
<path d="M436.996 0.247559H0.186523V280H436.996V0.247559Z" fill="#E6E6E6"/>
<path d="M424.506 35.3354H12.677V263.45H424.506V35.3354Z" fill="white"/>
<path d="M436.81 0H0V18.5573H436.81V0Z" fill="#6C63FF"/>
<path d="M13.7903 12.927C15.6898 12.927 17.2297 11.3871 17.2297 9.48754C17.2297 7.58799 15.6898 6.0481 13.7903 6.0481C11.8907 6.0481 10.3508 7.58799 10.3508 9.48754C10.3508 11.3871 11.8907 12.927 13.7903 12.927Z" fill="white"/>
<path d="M26.8456 12.927C28.7451 12.927 30.285 11.3871 30.285 9.48754C30.285 7.58799 28.7451 6.0481 26.8456 6.0481C24.946 6.0481 23.4061 7.58799 23.4061 9.48754C23.4061 11.3871 24.946 12.927 26.8456 12.927Z" fill="white"/>
<path d="M39.9009 12.927C41.8004 12.927 43.3403 11.3871 43.3403 9.48754C43.3403 7.58799 41.8004 6.0481 39.9009 6.0481C38.0013 6.0481 36.4614 7.58799 36.4614 9.48754C36.4614 11.3871 38.0013 12.927 39.9009 12.927Z" fill="white"/>
<path d="M143.896 54.0979H63.3479V141.485H143.896V54.0979Z" fill="#E6E6E6"/>
<path d="M258.864 54.0979H178.317V141.485H258.864V54.0979Z" fill="#E6E6E6"/>
<path d="M373.833 54.0979H293.285V141.485H373.833V54.0979Z" fill="#E6E6E6"/>
<path d="M143.896 157.302H63.3479V244.689H143.896V157.302Z" fill="#E6E6E6"/>
<path d="M258.864 157.302H178.317V244.689H258.864V157.302Z" fill="#E6E6E6"/>
<path d="M373.833 157.302H293.285V244.689H373.833V157.302Z" fill="#E6E6E6"/>
<path d="M94.6352 106.938C102.155 106.938 108.251 100.842 108.251 93.3225C108.251 85.8027 102.155 79.7068 94.6352 79.7068C87.1155 79.7068 81.0195 85.8027 81.0195 93.3225C81.0195 100.842 87.1155 106.938 94.6352 106.938Z" fill="#FFB9B9"/>
<path d="M89.3165 103.747C89.3165 103.747 91.0185 111.831 91.0185 112.682C91.0185 113.533 99.1028 117.363 99.1028 117.363L106.336 116.086L108.889 108.427C108.889 108.427 104.634 102.045 104.634 99.4919L89.3165 103.747Z" fill="#FFB9B9"/>
<path d="M82.8277 82.3527C82.8277 82.3527 87.1506 72.9863 95.4362 75.1478C103.722 77.3093 108.405 80.5515 108.765 83.7936C109.126 87.0358 108.585 91.8991 108.585 91.8991C108.585 91.8991 107.685 85.2346 101.921 86.6756C96.1567 88.1166 87.1506 87.0358 87.1506 87.0358L85.7097 100.005C85.7097 100.005 84.0885 97.663 82.2873 99.104C80.4861 100.545 77.0638 85.2346 82.8277 82.3527Z" fill="#2F2E41"/>
<path d="M137.821 138.212L134.42 122.892C132.714 117.785 128.463 113.534 128.463 113.534L107.48 106.155H107.474C107.434 108.009 106.808 109.804 105.688 111.283C104.567 112.761 103.009 113.849 101.234 114.39C94.8493 116.512 90.4537 109.358 90.4537 109.358L72.7165 122.892C72.7165 122.892 67.1873 127.576 67.6151 136.512L67.0269 141.485H139.457L137.821 138.212Z" fill="#6C63FF"/>
<path d="M209.296 113.723C219.503 113.723 227.777 104.94 227.777 94.1052C227.777 83.2706 219.503 74.4873 209.296 74.4873C199.09 74.4873 190.816 83.2706 190.816 94.1052C190.816 104.94 199.09 113.723 209.296 113.723Z" fill="#2F2E41"/>
<path d="M225.694 123.793C231.063 123.793 235.416 119.44 235.416 114.071C235.416 108.701 231.063 104.348 225.694 104.348C220.324 104.348 215.971 108.701 215.971 114.071C215.971 119.44 220.324 123.793 225.694 123.793Z" fill="#2F2E41"/>
<path d="M218.923 101.05L224.131 114.591L210.937 120.147L209.778 117.521L205.728 108.342L218.923 101.05Z" fill="#9F616A"/>
<path d="M208.506 109.904C214.93 109.904 220.138 104.696 220.138 98.272C220.138 91.8479 214.93 86.6401 208.506 86.6401C202.082 86.6401 196.875 91.8479 196.875 98.272C196.875 104.696 202.082 109.904 208.506 109.904Z" fill="#9F616A"/>
<path d="M198.999 96.9963C206.31 92.1177 208.495 90.9515 216.875 92.8359L217.378 80.6104L195.723 85.1531L198.999 96.9963Z" fill="#2F2E41"/>
<path d="M246.004 124.657L245.683 124.694C245.675 124.683 245.666 124.672 245.656 124.662C244.384 123.389 238.309 121.074 233.78 119.47H233.774C230.897 118.448 228.646 117.716 228.646 117.716L223.171 112.085C221.791 113.636 218.877 114.834 216.107 115.678C213.986 116.32 211.829 116.835 209.647 117.218H209.642L208.508 120.839C208.508 120.839 195.658 130.566 194.621 131.603H194.616V131.614C194.533 131.732 194.498 131.877 194.519 132.02V132.047C193.871 135.151 193.538 138.313 193.525 141.485H249.48V138.202C249.48 133.688 246.004 124.657 246.004 124.657Z" fill="#575A89"/>
<path d="M348.898 141.485H321.231L319.707 126.453L319.616 125.539L319.429 123.726L318.664 116.149L317.707 124.288L315.685 141.485H310.659L310.846 136.132L311.033 130.705L311.113 128.517L312.145 98.7646C312.066 94.0497 313.558 89.4425 316.386 85.6689C317.956 83.625 319.982 81.9761 322.302 80.8537C324.622 79.7312 327.172 79.1663 329.749 79.2039C332.378 79.1953 334.974 79.7958 337.332 80.9583C339.691 82.1208 341.748 83.8136 343.342 85.9042C346.265 89.7156 347.829 94.3949 347.786 99.1978L348.262 117.208L348.898 141.485Z" fill="#2F2E41"/>
<path d="M329.749 109.412C336.47 109.412 341.919 103.963 341.919 97.2421C341.919 90.521 336.47 85.0725 329.749 85.0725C323.028 85.0725 317.58 90.521 317.58 97.2421C317.58 103.963 323.028 109.412 329.749 109.412Z" fill="#FBBEBE"/>
<path d="M323.665 105.934C323.665 105.934 327.142 117.669 323.665 121.146C320.187 124.623 319.318 125.927 319.318 125.927L329.315 139.401L346.7 118.104C346.7 118.104 334.53 114.627 337.573 105.065L323.665 105.934Z" fill="#FBBEBE"/>
<path d="M361.208 141.485H350.941L350.769 139.726L350.614 138.1L355.341 137.506L361.042 136.795L361.106 138.619L361.208 141.485Z" fill="#FBBEBE"/>
<path d="M361.912 138.532C361.912 138.532 360.173 127.666 358.869 123.32C357.566 118.973 356.262 118.973 356.262 118.973H356.261L356.262 118.972C354.727 117.438 351.037 117.165 348.262 117.208C346.315 117.229 344.818 117.4 344.818 117.4L329.316 133.753L321.509 123.373V123.368C320.806 123.423 320.11 123.542 319.429 123.726C318.843 123.875 318.268 124.063 317.707 124.288C315.289 125.321 313.061 126.75 311.114 128.517H311.108C309.985 129.528 309.322 130.271 309.322 130.271C307.603 133.846 306.307 137.609 305.461 141.485H355.139L355.251 139.25V139.245L361.912 138.532Z" fill="#6C63FF"/>
<path d="M319.536 95.2861C327.396 91.0486 330.624 91.2281 340.398 95.2861L343.006 88.9327C343.004 87.7363 342.528 86.5894 341.682 85.7435C340.837 84.8976 339.69 84.4218 338.493 84.4204H321.005C319.809 84.4218 318.662 84.8976 317.816 85.7435C316.97 86.5894 316.495 87.7363 316.493 88.9327L319.536 95.2861Z" fill="#2F2E41"/>
<path d="M102.557 178.454C101.909 178.4 101.261 178.545 100.697 178.869C100.163 179.325 99.7337 179.891 99.4396 180.529C98.079 182.918 96.2369 184.999 94.0302 186.639C92.4228 187.817 90.3793 189.285 90.6543 191.456C90.7994 192.173 91.0643 192.86 91.4378 193.489C92.9206 196.483 96.9669 198.796 96.5689 202.211C98.0421 199.745 96.0716 198.525 97.5448 196.059C98.2464 194.885 99.4652 193.559 100.524 194.296C100.879 194.543 101.112 194.986 101.481 195.203C102.362 195.72 103.3 194.732 104.08 194.032C106.769 191.617 110.594 192.25 113.941 193.002C115.521 193.357 117.257 193.823 118.191 195.333C119.419 197.319 117.024 199.463 116.419 201.708C116.37 201.899 116.367 202.1 116.412 202.292C116.457 202.485 116.548 202.663 116.677 202.813C116.806 202.962 116.969 203.079 117.153 203.151C117.337 203.224 117.535 203.251 117.732 203.23C118.736 203.131 119.926 203.05 119.985 202.609C121.249 202.654 122.797 202.511 123.338 201.196C123.504 200.675 123.591 200.133 123.598 199.587C123.797 197.377 124.735 195.36 125.356 193.257C125.977 191.154 126.248 188.688 125.199 186.823C124.825 186.203 124.362 185.64 123.825 185.154C117.874 179.395 110.05 178.445 102.557 178.454Z" fill="#2F2E41"/>
<path d="M97.8631 206.525C97.8631 206.525 99.1573 217.311 94.4119 218.173C89.6664 219.036 98.7259 233.704 98.7259 233.704L120.296 236.292L115.119 219.036C115.119 219.036 111.668 217.742 113.825 209.114C115.982 200.486 97.8631 206.525 97.8631 206.525Z" fill="#9F616A"/>
<path d="M107.57 213.643C114.717 213.643 120.512 207.849 120.512 200.701C120.512 193.553 114.717 187.759 107.57 187.759C100.422 187.759 94.6276 193.553 94.6276 200.701C94.6276 207.849 100.422 213.643 107.57 213.643Z" fill="#9F616A"/>
<path d="M85.2936 244.689C87.5823 235.689 90.7426 223.567 90.7426 223.567C90.7426 223.567 91.9725 223.818 93.9082 224.102C96.7359 224.523 99.5854 224.782 102.443 224.877C106.1 224.979 109.95 224.738 112.929 223.706C114.052 223.346 115.101 222.786 116.025 222.054C116.414 221.74 116.763 221.379 117.062 220.979C122.239 214.075 124.394 240.39 124.394 240.39L124.795 244.689L85.2936 244.689Z" fill="#6C63FF"/>
<path d="M126.645 272.496C126.474 272.496 126.303 272.501 126.132 272.512L126.378 272.052C126.463 272.196 126.549 272.346 126.645 272.496Z" fill="#FFB8B8"/>
<path d="M103.187 181.84C102.665 181.801 102.143 181.903 101.673 182.133C101.249 182.443 100.899 182.844 100.65 183.307C99.499 185.038 97.999 186.509 96.2461 187.625C94.9377 188.458 93.2742 189.495 93.4981 191.03C93.6196 191.544 93.8359 192.032 94.1358 192.467C95.3471 194.604 95.8292 197.077 95.5094 199.513L99.1072 194.283C99.6783 193.453 100.67 192.516 101.533 193.037C101.821 193.212 102.011 193.525 102.312 193.678C103.029 194.044 103.792 193.345 104.427 192.85C106.616 191.144 109.73 191.591 112.455 192.122C113.741 192.373 115.154 192.703 115.914 193.77C117.178 195.544 115.858 198.107 116.596 200.156C116.802 200.012 116.977 199.827 117.111 199.614C117.245 199.4 117.335 199.162 117.375 198.913C118.403 198.945 119.664 198.844 120.104 197.914C120.238 197.549 120.31 197.165 120.316 196.777C120.477 195.214 121.241 193.789 121.747 192.303C122.253 190.816 122.472 189.074 121.619 187.756C121.307 187.309 120.93 186.911 120.5 186.575C115.656 182.505 109.287 181.834 103.187 181.84Z" fill="#2F2E41"/>
<path d="M101.961 223.995C99.0097 220.621 97.2557 215.701 97.1755 215.482V215.476C97.1755 215.476 92.4698 212.781 91.1758 215.37C89.8817 217.958 77.802 224.428 76.5079 224.428C76.4976 224.433 76.4868 224.436 76.4758 224.439C75.9625 224.61 69.5349 226.947 67.8826 235.647C67.4338 238.641 67.1944 241.662 67.166 244.689H102.346C102.71 240.877 102.983 237.31 103.09 234.23C103.245 229.936 103.095 226.599 102.443 224.877C102.338 224.556 102.175 224.257 101.961 223.995Z" fill="#2F2E41"/>
<path d="M132.212 226.422C132.19 226.321 132.174 226.235 132.158 226.155C132.101 225.926 132.003 225.708 131.869 225.513C131.866 225.509 131.865 225.503 131.864 225.497C129.372 221.637 113.346 216.321 113.346 216.321L112.747 218.391C112.747 218.391 112.822 220.433 112.929 223.706C113.036 226.77 113.164 230.909 113.287 235.454C113.373 238.422 113.448 241.566 113.517 244.689H137.489C136.146 238.488 134.383 232.385 132.212 226.422Z" fill="#2F2E41"/>
<path d="M356.502 244.689L358.336 235.727L360.042 235.005L360.053 235.01C360.208 235.069 362.063 235.855 362.063 238.834C362.063 239.433 361.972 241.588 361.823 244.689H356.502Z" fill="#575A89"/>
<path d="M337.237 213.385C345.463 213.385 352.132 206.716 352.132 198.49C352.132 190.263 345.463 183.594 337.237 183.594C329.01 183.594 322.341 190.263 322.341 198.49C322.341 206.716 329.01 213.385 337.237 213.385Z" fill="#FFB8B8"/>
<path d="M346.547 207.179L345.305 232.625L326.065 221.454L328.547 207.179H346.547Z" fill="#FFB8B8"/>
<path d="M352.133 233.866L350.871 244.689H340.77L329.808 223.626L326.717 217.696L325.236 216.728L326.952 216.337L328.305 217.316L343.444 228.283L345.871 220.995L345.936 220.808L346.545 218.974L352.133 233.866Z" fill="#6C63FF"/>
<path d="M328.237 183.905C328.237 183.905 330.099 174.595 340.65 176.457L339.409 177.078C339.409 177.078 349.339 175.836 348.098 181.422C348.098 181.422 356.166 186.387 354.305 191.973C353.21 195.21 352.379 198.531 351.822 201.903L349.96 200.041C349.96 200.041 348.098 187.628 336.926 188.87C328.548 189.801 325.134 193.757 324.261 196.608C323.86 197.949 323.347 199.254 322.728 200.509L322.031 200.662C322.031 200.662 318.307 187.008 328.237 183.905Z" fill="#2F2E41"/>
<path d="M360.053 235.011L360.042 235.005L352.133 227.658V222.696L346.027 217.883L345.936 220.808L345.305 240.695L335.15 226.727L328.305 217.316L327.075 215.632L327.375 214.054L323.584 218.348L309.862 228.642L308.686 229.524C307.336 230.875 306.092 232.326 304.964 233.866C304.595 234.417 302.916 238.802 300.729 244.689H361.823C361.972 241.588 362.063 239.433 362.063 238.834C362.063 235.855 360.208 235.069 360.053 235.011Z" fill="#2F2E41"/>
<path d="M217.365 182.128C207.271 182.128 199.089 191.209 199.089 202.411V216.643H203.466L206 211.37L205.366 216.643H233.5L235.804 211.849L235.228 216.643H238.396V205.468C238.396 192.578 228.98 182.128 217.365 182.128Z" fill="#2F2E41"/>
<path d="M202.615 244.689H190.728L190.616 234.994C190.61 234.893 190.61 234.797 190.61 234.695L192.99 232.016L193.033 231.968L202.118 237.722L202.615 244.689Z" fill="#D0CDE1"/>
<path d="M215.748 214.654C222.933 214.654 228.758 208.829 228.758 201.643C228.758 194.457 222.933 188.632 215.748 188.632C208.562 188.632 202.737 194.457 202.737 201.643C202.737 208.829 208.562 214.654 215.748 214.654Z" fill="#FBBEBE"/>
<path d="M208.288 209.449C208.288 209.449 212.105 229.226 210.37 231.308C208.635 233.389 228.758 227.491 228.758 227.491C228.758 227.491 222.166 213.96 225.636 206.327L208.288 209.449Z" fill="#FBBEBE"/>
<path d="M243.587 222.824H243.581C243.275 222.176 242.745 221.659 242.089 221.369C239.539 220.295 237.341 219.471 235.534 218.845C232.337 217.748 228.849 217.857 225.726 219.15C225.422 219.273 225.122 219.407 224.828 219.557C224.828 219.557 212.107 221.979 210.593 221.674C210.481 221.653 210.363 221.637 210.251 221.626C210.023 221.593 209.792 221.574 209.561 221.567C206.601 221.43 203.665 222.158 201.112 223.663C196.936 226.086 190.744 230.38 190.616 234.561L190.498 234.695L190.616 244.689H246.453C246.565 235.112 246.629 227.915 246.629 227.428C246.629 225.915 243.587 222.824 243.587 222.824Z" fill="#6C63FF"/>
<path d="M222.56 187.715C221.681 186.534 220.541 185.572 219.23 184.903C217.918 184.233 216.47 183.875 214.997 183.856H214.639C207.72 183.856 202.112 190.116 202.112 197.838V197.838H204.43L204.805 194.989L205.354 197.838H219.102L220.254 195.428L219.966 197.838H222.671C223.933 204.107 222.119 210.375 217.23 216.643H221.838L224.142 211.821L223.566 216.643H232.349L234.076 205.553C234.076 197.248 229.251 190.205 222.56 187.715Z" fill="#2F2E41"/>
<path d="M225.085 188.883C228.866 188.883 231.931 185.818 231.931 182.038C231.931 178.257 228.866 175.192 225.085 175.192C221.305 175.192 218.24 178.257 218.24 182.038C218.24 185.818 221.305 188.883 225.085 188.883Z" fill="#2F2E41"/>
</g>
<defs>
<clipPath id="clip0">
<rect width="436.996" height="280" fill="white"/>
</clipPath>
</defs>
</svg>