<svg width="64" height="64" viewBox="0 0 64 64" fill="none" xmlns="http://www.w3.org/2000/svg">
<path d="M0.0332031 60.116H1.91255V64H0.0332031V60.116Z" fill="white"/>
<path d="M0.0332031 56.3574H1.91255V58.2368H0.0332031V56.3574Z" fill="white"/>
<path d="M60.8817 54.2467H46.8054L43.9651 57.0028L41.2518 54.2467H27.2531L24.8084 55.3222L23.3842 51.2394L26.3338 47.0245L32.0874 44.2603L43.2513 48.6057V52.5988H45.1307V47.3205L32.7739 42.5107L30.1811 39.1289V35.683C33.2615 35.6498 35.7575 33.1348 35.7575 30.0467V25.0855C37.2667 24.5725 38.6779 23.9704 39.2805 22.2874C40.1632 19.8219 38.4014 17.1018 35.7893 16.9041C35.7893 14.1741 35.8462 11.4382 35.7893 8.70901C35.6893 3.91068 32.1019 0.170909 27.2674 0.0397309C24.3387 -0.0397026 21.3932 0.0214386 18.4634 0.0397309C13.9154 0.0681716 9.92067 3.10582 9.50972 7.82509C9.24937 10.8138 9.47627 13.9003 9.47627 16.8992C6.8358 17.0576 5.0305 19.7979 5.92181 22.2873C6.52445 23.9703 7.93546 24.5724 9.4447 25.0853V30.0466C9.4447 33.1552 11.9739 35.6845 15.0827 35.6845H15.1465V39.1244L12.6187 42.4215L0.0332031 47.3204V54.478H1.91255V48.6056L13.1652 44.2256L18.982 47.0204L21.8182 51.239L17.9027 62.4627V64.0001H19.7821V62.7812L22.6011 54.7005L24.0943 58.9809L24.1672 58.9555V62.501H25.4201V64.0003H27.2995V62.501H63.9675V55.6045L60.8817 54.2467ZM35.7575 18.7847C37.5485 19.1732 38.3367 21.4448 36.7579 22.648C36.4732 22.865 36.1226 23.0154 35.7575 23.1397V18.7847ZM9.4447 23.1179C8.59549 22.8091 7.82508 22.3638 7.61322 21.3788C7.29912 19.9179 8.27537 19.1397 9.4447 18.8751V23.1179ZM30.6704 42.8559L26.0057 45.0971L24.1678 42.5582L28.9319 40.5883L30.6704 42.8559ZM22.5808 41.1807L17.0257 38.8215V35.6845H28.3018V38.8149L22.5808 41.1807ZM15.0825 33.8051C13.0101 33.8051 11.324 32.119 11.324 30.0466V18.7495C14.4258 18.6732 17.2549 18.434 19.8464 16.2947C22.866 18.8689 26.4167 18.7705 30.1186 18.7705V16.8912C26.7577 16.8912 23.4514 17.107 20.7845 14.6152V7.49446H18.9052V14.6139C16.7447 16.6395 14.1576 16.8912 11.3556 16.8912C11.3556 14.2553 11.3324 11.6185 11.3556 8.98277C11.3902 5.05244 14.0808 2.03296 18.0893 1.91907C20.9281 1.83839 23.7846 1.90203 26.6245 1.91907C30.5774 1.94288 33.7634 4.43138 33.9101 8.56343C34.0085 11.3321 33.9101 14.1204 33.9101 16.8912H31.9979V18.7705C32.5273 18.7705 33.1933 18.7052 33.8783 18.6775V30.0467C33.8783 32.1191 32.1923 33.8052 30.1197 33.8052H15.0825V33.8051ZM14.6537 42.8559L16.3889 40.5928L21.1234 42.6036L19.3184 45.0971L14.6537 42.8559ZM22.6011 48.995L22.5918 49.0215L20.7649 46.304L22.6621 43.6832L24.5516 46.2934L22.621 49.0521L22.6011 48.995ZM43.0104 60.6215H26.0466V56.8306L27.6481 56.1259H40.4649L43.0103 58.7117V60.6215H43.0104ZM62.0882 60.6215H44.8897V58.7242L47.5675 56.1259H60.4865L62.0882 56.8306V60.6215Z" fill="white"/>
</svg>