<svg width="76" height="64" viewBox="0 0 76 64" fill="none" xmlns="http://www.w3.org/2000/svg">
<path d="M0 0V48.589H6.6994V46.3804H2.20859V2.20859H73.0309V46.3804H61.9142V48.589H75.2395V0H0Z" fill="white"/>
<path d="M8.9082 46.3805H11.1166V48.5891H8.9082V46.3805Z" fill="white"/>
<path d="M55.2881 4.41724H57.4967V6.62583H55.2881V4.41724Z" fill="white"/>
<path d="M53.0797 4.41724H10.659L4.56445 10.5124V37.9207L10.6505 44.1719H40.9098V41.9633H11.5826L6.77305 37.0233V11.4272L11.5738 6.62583H53.0797V4.41724Z" fill="white"/>
<path d="M64.5801 44.1719L70.8222 37.9294V10.5037L64.5716 4.41724H59.7056V6.62583H63.6739L68.6136 11.4357V37.0146L63.6652 41.9633H61.0701L64.1957 38.8889V25.2066L58.8273 19.9263H45.0912L39.8055 25.2119V38.8836L44.2969 43.3749V46.3805H13.3252V48.5891H44.297V64H46.3622L51.9981 60.0272L57.5869 64H59.7045V44.1719H64.5801ZM42.0142 26.1268L46.0062 22.135H57.9233L61.9873 26.1321V37.9635L57.9234 41.9605H46.0062L42.0142 37.9688V26.1268ZM52.0034 57.3214L46.5056 61.1968V44.1692H57.4959V61.2258L52.0034 57.3214Z" fill="white"/>
<path d="M35.3858 11.043H11.1406V17.6196H35.3858V11.043ZM33.1772 15.411H13.3492V13.2516H33.1772V15.411Z" fill="white"/>
<path d="M17.7422 19.7792H35.4109V21.9878H17.7422V19.7792Z" fill="white"/>
<path d="M11.1162 19.7792H15.5334V21.9878H11.1162V19.7792Z" fill="white"/>
<path d="M30.9941 24.2704H35.4113V26.479H30.9941V24.2704Z" fill="white"/>
<path d="M11.1162 24.2704H28.7849V26.479H11.1162V24.2704Z" fill="white"/>
<path d="M11.1162 35.3254H22.1592V37.534H11.1162V35.3254Z" fill="white"/>
<path d="M56.6282 39.6778L59.7043 36.8991V33.0653H57.4957V35.9179L55.7785 37.4692H48.101L46.5055 35.8739V28.1516L48.1783 26.479H55.7564L57.4957 28.1622V30.8467H59.7043V27.2262L56.6501 24.2704H47.2635L44.2969 27.2368V36.7887L47.1862 39.6778H56.6282Z" fill="white"/>
<path d="M48.6875 28.6381H50.8961V30.8467H48.6875V28.6381Z" fill="white"/>
</svg>