<svg width="65" height="64" viewBox="0 0 65 64" fill="none" xmlns="http://www.w3.org/2000/svg">
<path d="M65 13.963L32.4356 0.91333L0 13.9639V15.7233L9.57326 19.5706V35.5166L16.1831 38.2125V46.9045H15.8153L14.2394 48.3936V51.2529L14.3677 51.3872L12.4234 54.5506V64.9133H22.0466V54.5296L19.9375 51.3714L20.0391 51.2718V48.3842L18.4228 46.9045H18.0954V38.9925L32.4352 44.8413L55.4456 35.5183V30.8384H53.5335V34.1476L32.4373 42.6952L18.0952 36.8453V22.9953L32.4356 28.7583L53.5333 20.3138V24.8372H55.4455V19.5486L65 15.7243V13.963ZM18.5846 52.8386L20.1345 55.1591V62.9129H14.3355V60.8458H18.1585V58.8453H14.3355V55.1382L15.7489 52.8386H15.7554H18.4416H18.5846ZM18.1269 50.4052L17.6854 50.8381H16.5473L16.1516 50.4241V49.2824L16.5511 48.905H17.7044L18.127 49.2919V50.4052H18.1269ZM16.1831 36.0654L11.4854 34.1493V20.3389L16.1831 22.2268V36.0654ZM32.437 26.6159L19.7103 21.5013L32.8682 15.7589L32.132 13.9126L17.1246 20.4621L3.14201 14.8429L32.4368 3.05598L61.8503 14.8429L32.437 26.6159Z" fill="white"/>
<path d="M53.5332 26.8373H55.4453V28.8386H53.5332V26.8373Z" fill="white"/>
</svg>